<?xml version="1.0" encoding="UTF-8" standalone="no"?>
<svg
   xmlns:dc="http://purl.org/dc/elements/1.1/"
   xmlns:cc="http://creativecommons.org/ns#"
   xmlns:rdf="http://www.w3.org/1999/02/22-rdf-syntax-ns#"
   xmlns:svg="http://www.w3.org/2000/svg"
   xmlns="http://www.w3.org/2000/svg"
   version="1.1"
   id="svg2319"
   width="113.62708"
   height="100.49847"
   viewBox="0 0 113.62708 100.49847">
  <metadata
     id="metadata2325">
    <rdf:RDF>
      <cc:Work
         rdf:about="">
        <dc:format>image/svg+xml</dc:format>
        <dc:type
           rdf:resource="http://purl.org/dc/dcmitype/StillImage" />
        <dc:title></dc:title>
      </cc:Work>
    </rdf:RDF>
  </metadata>
  <defs
     id="defs2323">
    <rect
       x="-75.30294"
       y="-10.386612"
       width="61.886898"
       height="57.559143"
       id="rect2339" />
  </defs>
  <g
     transform="rotate(-1.342369,-46.405727,4544.2167)"
     id="g970">
    <g
       id="g956">
      <g
         transform="rotate(-1.3188886,196.2743,-4513.7881)"
         id="g2296">
        <g
           id="g2284">
          <g
             transform="translate(-243.64768,-259.16807)"
             id="g2327">
            <g
               id="g885">
              <path
                 id="path5094"
                 d="m 352.9801,331.67658 c -2.71725,7.61305 -7.74251,13.93892 -13.26614,18.57155 -9.90206,8.30479 -24.62816,11.73329 -48.38446,8.74893 -19.64661,-2.46808 -31.20476,-10.52466 -39.61693,-23.33608 -6.42812,-9.7898 -8.61954,-23.66402 -4.32984,-34.86689 2.4371,-6.36468 11.38128,-16.98542 11.38128,-16.98542 0,0 0.029,-21.81719 4.75176,-23.04588 3.56433,-0.92732 17.35578,8.89595 17.35578,8.89595 0,0 9.8599,-4.35564 21.56552,-2.98209 7.88959,0.92577 13.79227,3.53413 13.79227,3.53413 0,0 18.7738,-7.36991 22.52034,-5.99957 1.91065,0.69882 -1.72017,18.38169 -1.72017,18.38169 0,0 6.09864,2.81757 12.49931,13.22124 6.58227,10.69881 8.0771,22.90206 3.45128,35.86244 z"
                 style="color:#000000;font-style:normal;font-variant:normal;font-weight:normal;font-stretch:normal;font-size:medium;line-height:normal;font-family:sans-serif;font-variant-ligatures:normal;font-variant-position:normal;font-variant-caps:normal;font-variant-numeric:normal;font-variant-alternates:normal;font-variant-east-asian:normal;font-feature-settings:normal;font-variation-settings:normal;text-indent:0;text-align:start;text-decoration:none;text-decoration-line:none;text-decoration-style:solid;text-decoration-color:#000000;letter-spacing:normal;word-spacing:normal;text-transform:none;writing-mode:lr-tb;direction:ltr;text-orientation:mixed;dominant-baseline:auto;baseline-shift:baseline;text-anchor:start;white-space:normal;shape-padding:0;shape-margin:0;inline-size:0;clip-rule:nonzero;display:inline;overflow:visible;visibility:visible;isolation:auto;mix-blend-mode:normal;color-interpolation:sRGB;color-interpolation-filters:linearRGB;solid-color:#000000;solid-opacity:1;vector-effect:none;fill:#e4e9ec;fill-opacity:1;fill-rule:evenodd;stroke:none;stroke-width:3;stroke-linecap:round;stroke-linejoin:miter;stroke-miterlimit:4;stroke-dasharray:none;stroke-dashoffset:0;stroke-opacity:1;paint-order:fill markers stroke;color-rendering:auto;image-rendering:auto;shape-rendering:auto;text-rendering:auto;enable-background:accumulate;stop-color:#000000" />
              <ellipse
                 transform="rotate(4.126123)"
                 style="fill:#000000;fill-opacity:1;fill-rule:evenodd;stroke:none;stroke-width:2.24972;stroke-linecap:round;stroke-miterlimit:4;stroke-dasharray:none;stroke-opacity:1;paint-order:fill markers stroke"
                 id="path1491"
                 cx="301.3739"
                 cy="272.50433"
                 rx="4.2176871"
                 ry="3.7414966" />
              <path
                 id="path5071"
                 style="fill:#d7bf9b;fill-opacity:1;fill-rule:evenodd;stroke-width:0;stroke-linecap:round;stroke-miterlimit:4;stroke-dasharray:none;paint-order:fill markers stroke"
                 d="m 303.05048,266.76569 c -2.85705,6.68921 -5.44989,14.20519 -4.03715,20.28111 5.15017,22.14987 24.48158,36.58184 45.02714,31.80469 4.13553,-0.96157 7.93729,-2.62388 11.34128,-4.83072 -0.50497,-6.41817 -2.50267,-12.76446 -5.85193,-18.20834 -6.40068,-10.40367 -12.50031,-13.21953 -12.50031,-13.21953 0,0 3.63194,-17.68427 1.72129,-18.38309 -3.74654,-1.37034 -22.52114,6.00049 -22.52114,6.00049 0,0 -5.60747,-2.45887 -13.17918,-3.44461 z" />
              <path
                 id="path3816"
                 style="fill:#d387ba;fill-opacity:1;stroke:#000000;stroke-width:3;stroke-linecap:butt;stroke-linejoin:miter;stroke-miterlimit:4;stroke-dasharray:none;stroke-opacity:1"
                 d="m 300.5949,294.42006 c -0.21914,0.41103 -0.47266,0.91752 -0.84267,1.30883 -0.38607,0.40829 -0.89914,0.65559 -1.44423,0.75691 -0.60513,0.89078 -1.1164,1.82644 -1.3277,2.79318 -0.23134,1.0584 -0.10871,2.14917 0.1887,3.00206 0.29739,0.8529 0.77009,1.46756 1.46908,1.78195 0.69898,0.3144 1.62316,0.32995 2.50212,0.0759 0.87896,-0.25406 1.71244,-0.77545 2.35758,-1.46856 0.64515,-0.69312 1.10402,-1.55749 1.37789,-2.36171 0.27387,-0.80422 0.36406,-1.54959 0.26235,-2.20057 -0.0893,-0.57186 -0.34869,-1.07973 -0.92642,-1.70761 -0.58937,-0.23499 -1.19757,-0.72422 -1.69371,-1.29057 -0.072,-0.0822 -0.12105,-0.14971 -0.18851,-0.23289 -0.46663,-0.26909 -0.94567,-0.47419 -1.38245,-0.48667 -0.12103,-0.003 -0.23749,0.008 -0.35203,0.0297 z" />
              <path
                 id="path4424"
                 d="m 295.47803,293.51442 -2.04412,2.19577 c 0.86236,0.80174 1.81365,1.80557 3.29692,2.20918 1.48214,0.40332 3.06396,-0.0305 4.11893,-1.1462 0.25471,-0.26937 0.32995,-0.48053 0.48875,-0.73526 0.0268,0.0314 0.0316,0.0426 0.0594,0.0744 0.75633,0.86336 1.65331,1.70329 3.01698,1.91933 1.36216,0.21581 2.54261,-0.56337 3.26543,-1.41898 0.72269,-0.85548 1.17979,-1.83279 1.62367,-2.72765 l -2.68794,-1.33211 c -0.44388,0.89486 -0.87276,1.70512 -1.22662,2.124 -0.35373,0.41872 -0.44077,0.40208 -0.50441,0.392 -0.0622,-0.01 -0.75105,-0.38434 -1.23154,-0.93283 -0.24006,-0.27403 -0.48371,-0.62599 -0.80505,-0.9959 -0.16068,-0.18494 -0.65409,-1.41462 -1.05161,-1.39639 -0.35881,0.0165 -0.68108,0.0256 -1.34043,0.0965 -0.66447,0.0713 -0.69539,0.85529 -0.82733,1.1901 -0.10335,0.26227 -0.31771,0.62678 -0.41952,0.81957 -0.20363,0.3856 -0.40414,0.71809 -0.53964,0.8614 -0.27076,0.28635 -0.74525,0.42474 -1.15218,0.314 -0.40578,-0.11042 -1.17735,-0.70917 -2.03971,-1.51092 z"
                 style="color:#000000;font-style:normal;font-variant:normal;font-weight:normal;font-stretch:normal;font-size:medium;line-height:normal;font-family:sans-serif;font-variant-ligatures:normal;font-variant-position:normal;font-variant-caps:normal;font-variant-numeric:normal;font-variant-alternates:normal;font-variant-east-asian:normal;font-feature-settings:normal;font-variation-settings:normal;text-indent:0;text-align:start;text-decoration:none;text-decoration-line:none;text-decoration-style:solid;text-decoration-color:#000000;letter-spacing:normal;word-spacing:normal;text-transform:none;writing-mode:lr-tb;direction:ltr;text-orientation:mixed;dominant-baseline:auto;baseline-shift:baseline;text-anchor:start;white-space:normal;shape-padding:0;shape-margin:0;inline-size:0;clip-rule:nonzero;display:inline;overflow:visible;visibility:visible;isolation:auto;mix-blend-mode:normal;color-interpolation:sRGB;color-interpolation-filters:linearRGB;solid-color:#000000;solid-opacity:1;vector-effect:none;fill:#000000;fill-opacity:1;fill-rule:nonzero;stroke:none;stroke-width:3;stroke-linecap:butt;stroke-linejoin:miter;stroke-miterlimit:4;stroke-dasharray:none;stroke-dashoffset:0;stroke-opacity:1;color-rendering:auto;image-rendering:auto;shape-rendering:auto;text-rendering:auto;enable-background:accumulate;stop-color:#000000" />
              <path
                 style="fill:none;stroke:#000000;stroke-width:3;stroke-linecap:butt;stroke-linejoin:miter;stroke-miterlimit:4;stroke-dasharray:none;stroke-opacity:1"
                 d="m 319.19461,287.46094 -5.81204,4.31453 7.27608,4.53079"
                 id="path5069" />
              <path
                 id="path5096"
                 d="m 263.13724,259.31132 c -1.11358,0.28972 -1.88051,1.09496 -2.44863,1.99104 -0.56812,0.89609 -0.98579,1.95791 -1.34351,3.14778 -0.71544,2.37975 -1.16445,5.28353 -1.46861,8.13779 -0.57825,5.4265 -0.58038,10.15957 -0.58224,10.66482 -0.27269,0.32558 -2.11386,2.5107 -4.51516,5.77215 -2.57201,3.49332 -5.45853,7.73905 -6.79657,11.23347 -4.49859,11.74842 -2.22231,26.02362 4.47684,36.22619 8.59981,13.09719 20.70923,21.4922 40.6842,24.00153 23.97334,3.01162 39.22595,-0.4442 49.53331,-9.08891 5.69554,-4.77681 10.88957,-11.30004 13.7152,-19.21675 4.76041,-13.33748 3.21038,-26.10725 -3.58552,-37.15331 -3.28009,-5.33146 -6.50934,-8.75797 -8.94812,-10.86116 -1.85293,-1.59796 -2.59604,-1.90678 -3.19141,-2.2297 0.162,-0.80114 0.81722,-3.97545 1.42219,-8.05281 0.33844,-2.28107 0.62136,-4.58519 0.69728,-6.4445 0.038,-0.92965 0.0307,-1.73838 -0.0792,-2.46205 -0.055,-0.36183 -0.12859,-0.70493 -0.30293,-1.07856 -0.17435,-0.37363 -0.50476,-0.86457 -1.1393,-1.09665 -1.72354,-0.6304 -3.56273,-0.21368 -5.93325,0.30277 -2.3705,0.51648 -5.10204,1.32131 -7.70986,2.16563 -4.92899,1.59582 -8.91497,3.16221 -9.39377,3.34922 -0.82137,-0.3499 -6.09503,-2.55087 -13.61571,-3.43334 -11.39341,-1.33691 -20.32548,2.33552 -21.5066,2.83495 -0.52465,-0.37094 -3.18511,-2.27014 -6.80234,-4.44406 -1.97774,-1.18859 -4.07279,-2.35391 -5.967,-3.18851 -1.8942,-0.83459 -3.45559,-1.5307 -5.19933,-1.07703 z m 0.75505,2.90246 c 0.0384,-0.01 1.53972,0.17398 3.23389,0.92043 1.69416,0.74646 3.71593,1.86253 5.63161,3.01383 3.83135,2.30261 7.24434,4.73231 7.24434,4.73231 l 0.69487,0.49614 0.77985,-0.34575 c 0,0 9.54177,-4.18333 20.78601,-2.86392 7.6517,0.89785 13.3611,3.41634 13.3611,3.41634 l 0.57193,0.25202 0.58082,-0.22724 c 0,0 4.66188,-1.82904 9.76978,-3.48278 2.55394,-0.82686 5.21962,-1.60887 7.42291,-2.08888 1.95203,-0.42523 3.30646,-0.40334 3.77824,-0.36917 0.0421,0.39549 0.0704,0.92979 0.0409,1.65081 -0.0675,1.65277 -0.3365,3.89962 -0.66692,6.12663 -0.66086,4.45401 -1.56229,8.84737 -1.56229,8.84737 l -0.23859,1.16436 1.08047,0.49873 c 0,0 1.28826,0.57653 3.49895,2.48304 2.21071,1.9065 5.22983,5.08973 8.35042,10.16194 6.36863,10.35157 7.80764,21.98972 3.31643,34.573 -2.60887,7.30937 -7.46474,13.43652 -12.81645,17.92496 -9.49677,7.96488 -23.69547,11.36718 -47.23474,8.41007 -19.31824,-2.42682 -30.32554,-10.14532 -38.55008,-22.67098 -6.15707,-9.37701 -8.26239,-22.85026 -4.18159,-33.50757 1.09905,-2.87028 3.9022,-7.11811 6.41156,-10.52634 2.50936,-3.40822 4.71646,-6.0275 4.71646,-6.0275 l 0.35182,-0.41868 -4.6e-4,-0.54531 c 0,0 0.009,-5.39943 0.5962,-10.90669 0.29343,-2.75363 0.73894,-5.53399 1.35721,-7.59053 0.30915,-1.02827 0.66738,-1.87307 1.00482,-2.40529 0.33743,-0.53223 0.60339,-0.67786 0.6705,-0.69531 z"
                 style="color:#000000;font-style:normal;font-variant:normal;font-weight:normal;font-stretch:normal;font-size:medium;line-height:normal;font-family:sans-serif;font-variant-ligatures:normal;font-variant-position:normal;font-variant-caps:normal;font-variant-numeric:normal;font-variant-alternates:normal;font-variant-east-asian:normal;font-feature-settings:normal;font-variation-settings:normal;text-indent:0;text-align:start;text-decoration:none;text-decoration-line:none;text-decoration-style:solid;text-decoration-color:#000000;letter-spacing:normal;word-spacing:normal;text-transform:none;writing-mode:lr-tb;direction:ltr;text-orientation:mixed;dominant-baseline:auto;baseline-shift:baseline;text-anchor:start;white-space:normal;shape-padding:0;shape-margin:0;inline-size:0;clip-rule:nonzero;display:inline;overflow:visible;visibility:visible;isolation:auto;mix-blend-mode:normal;color-interpolation:sRGB;color-interpolation-filters:linearRGB;solid-color:#000000;solid-opacity:1;vector-effect:none;fill:#000000;fill-opacity:1;fill-rule:evenodd;stroke:none;stroke-width:3;stroke-linecap:round;stroke-linejoin:miter;stroke-miterlimit:4;stroke-dasharray:none;stroke-dashoffset:0;stroke-opacity:1;paint-order:fill markers stroke;color-rendering:auto;image-rendering:auto;shape-rendering:auto;text-rendering:auto;enable-background:accumulate;stop-color:#000000" />
            </g>
          </g>
        </g>
      </g>
    </g>
  </g>
  <text
     id="text2327"
     y="47.059132"
     x="-110.80404"
     style="font-style:normal;font-weight:normal;font-size:40px;line-height:1.25;font-family:sans-serif;fill:#000000;fill-opacity:1;stroke:none"
     xml:space="preserve"><tspan
       y="47.059132"
       x="-110.80404"
       id="tspan2325"> </tspan></text>
  <text
     transform="translate(-18.692479,-4.8879974)"
     style="font-style:normal;font-weight:normal;font-size:40px;line-height:1.25;font-family:sans-serif;white-space:pre;shape-inside:url(#rect2339);fill:#000000;fill-opacity:1;stroke:none;"
     id="text2337"
     xml:space="preserve" />
</svg>
