<?xml version="1.0" encoding="UTF-8" standalone="no"?>
<svg
   xmlns:dc="http://purl.org/dc/elements/1.1/"
   xmlns:cc="http://creativecommons.org/ns#"
   xmlns:rdf="http://www.w3.org/1999/02/22-rdf-syntax-ns#"
   xmlns:svg="http://www.w3.org/2000/svg"
   xmlns="http://www.w3.org/2000/svg"
   xmlns:xlink="http://www.w3.org/1999/xlink"
   width="11.159841mm"
   height="15.797139mm"
   viewBox="0 0 11.159841 15.797139"
   version="1.1"
   id="svg8">
  <defs
     id="defs2">
    <linearGradient
       id="linearGradient950">
      <stop
         id="stop946"
         offset="0"
         style="stop-color:#ffffff;stop-opacity:1" />
      <stop
         id="stop948"
         offset="1"
         style="stop-color:#ffff00;stop-opacity:1" />
    </linearGradient>
    <radialGradient
       gradientUnits="userSpaceOnUse"
       gradientTransform="matrix(0.0042426,-0.93055952,1.0849745,0.00494661,-36.339847,105.58536)"
       r="5.5799205"
       fy="69.589691"
       fx="39.330059"
       cy="69.589691"
       cx="39.330059"
       id="radialGradient952"
       xlink:href="#linearGradient950" />
  </defs>
  <metadata
     id="metadata5">
    <rdf:RDF>
      <cc:Work
         rdf:about="">
        <dc:format>image/svg+xml</dc:format>
        <dc:type
           rdf:resource="http://purl.org/dc/dcmitype/StillImage" />
        <dc:title></dc:title>
      </cc:Work>
    </rdf:RDF>
  </metadata>
  <g
     transform="translate(-35.800656,-64.617831)"
     id="layer1">
    <path
       d="m 41.380576,66.84838 c -0.01892,-9.8e-5 -0.03653,0.0023 -0.05529,0.0026 v 5.16e-4 c -2.987344,0.07437 -3.707291,4.825894 -4.216797,8.036719 -0.06993,0.440685 -1.296702,1.13344 -0.99994,1.72961 0.716537,1.439503 2.985834,1.814079 5.216737,1.807641 v 5.19e-4 c 0.01035,-5.6e-5 0.02066,5.87e-4 0.031,5.16e-4 0.0081,5.6e-5 0.01619,-5.64e-4 0.02429,-5.16e-4 0.0081,-4.8e-5 0.01618,5.72e-4 0.02429,5.16e-4 0.01035,7.1e-5 0.02066,-5.74e-4 0.031,-5.16e-4 v -5.19e-4 c 2.230919,0.0064 4.500198,-0.368125 5.216737,-1.807641 0.296762,-0.59617 -0.930008,-1.288925 -0.99994,-1.72961 -0.509511,-3.210862 -1.229365,-7.962458 -4.216797,-8.036719 v -5.16e-4 c -0.01876,-2.46e-4 -0.03637,-0.0027 -0.05529,-0.0026 z"
       style="fill:url(#radialGradient952);fill-opacity:1;fill-rule:evenodd;stroke:#000000;stroke-width:0.529167;stroke-linecap:round;stroke-miterlimit:4;stroke-dasharray:none;stroke-opacity:1;paint-order:fill markers stroke"
       id="path833" />
    <path
       id="path882"
       style="opacity:1;fill:#000000;fill-opacity:1;fill-rule:evenodd;stroke:none;stroke-width:0.529167;stroke-linecap:round;stroke-miterlimit:4;stroke-dasharray:none;stroke-opacity:1;paint-order:fill markers stroke"
       d="m 39.845648,78.891033 a 1.3797789,1.3096207 0 0 0 -0.01913,0.214456 1.3797789,1.3096207 0 0 0 1.379763,1.309481 1.3797789,1.3096207 0 0 0 1.379759,-1.309481 1.3797789,1.3096207 0 0 0 -0.01497,-0.192752 c -0.382709,0.02564 -0.769784,0.04194 -1.158587,0.04082 v 5.29e-4 c -0.01035,-5.8e-5 -0.02066,5.29e-4 -0.031,5.29e-4 -0.0081,5.6e-5 -0.01619,-5.29e-4 -0.02429,-5.29e-4 -0.0081,-4.8e-5 -0.01619,5.29e-4 -0.02429,5.29e-4 -0.01035,7.2e-5 -0.02066,-5.29e-4 -0.031,-5.29e-4 v -5.29e-4 c -0.489939,0.0013 -0.979455,-0.01995 -1.456242,-0.06253 z" />
    <path
       id="path927"
       style="color:#000000;font-style:normal;font-variant:normal;font-weight:normal;font-stretch:normal;font-size:medium;line-height:normal;font-family:sans-serif;font-variant-ligatures:normal;font-variant-position:normal;font-variant-caps:normal;font-variant-numeric:normal;font-variant-alternates:normal;font-variant-east-asian:normal;font-feature-settings:normal;font-variation-settings:normal;text-indent:0;text-align:start;text-decoration:none;text-decoration-line:none;text-decoration-style:solid;text-decoration-color:#000000;letter-spacing:normal;word-spacing:normal;text-transform:none;writing-mode:lr-tb;direction:ltr;text-orientation:mixed;dominant-baseline:auto;baseline-shift:baseline;text-anchor:start;white-space:normal;shape-padding:0;shape-margin:0;inline-size:0;clip-rule:nonzero;display:inline;overflow:visible;visibility:visible;opacity:1;isolation:auto;mix-blend-mode:normal;color-interpolation:sRGB;color-interpolation-filters:linearRGB;solid-color:#000000;solid-opacity:1;vector-effect:none;fill:#000000;fill-opacity:1;fill-rule:evenodd;stroke:#000000;stroke-width:0.529167;stroke-linecap:round;stroke-linejoin:miter;stroke-miterlimit:4;stroke-dasharray:none;stroke-dashoffset:0;stroke-opacity:1;paint-order:fill markers stroke;color-rendering:auto;image-rendering:auto;shape-rendering:auto;text-rendering:auto;enable-background:accumulate;stop-color:#000000;stop-opacity:1"
       d="m 41.347687,64.882414 c -0.367872,0 -0.681694,0.248471 -0.892453,0.603581 -0.210754,0.355108 -0.334346,0.827638 -0.334346,1.347721 0,0.06201 0.0074,0.120799 0.01085,0.181383 0.103399,-0.05658 0.210381,-0.106061 0.321426,-0.147794 -1.37e-4,-0.01148 -0.0021,-0.02207 -0.0021,-0.03359 0,-0.467352 0.114028,-0.887788 0.287322,-1.179774 0.173291,-0.291986 0.391099,-0.443384 0.609264,-0.443384 0.218167,0 0.435972,0.151398 0.609264,0.443384 0.173294,0.291986 0.287322,0.712422 0.287322,1.179774 0,0.01154 -0.0019,0.02212 -0.0021,0.03359 0.110395,0.04152 0.216524,0.09109 0.31936,0.147278 0.0034,-0.06042 0.01085,-0.119036 0.01085,-0.180866 0,-0.520084 -0.12359,-0.992614 -0.334349,-1.347722 -0.21075,-0.35511 -0.522506,-0.603581 -0.89038,-0.603581 z" />
  </g>
</svg>
