<?xml version="1.0" encoding="UTF-8" standalone="no"?>
<svg
   xmlns:dc="http://purl.org/dc/elements/1.1/"
   xmlns:cc="http://creativecommons.org/ns#"
   xmlns:rdf="http://www.w3.org/1999/02/22-rdf-syntax-ns#"
   xmlns:svg="http://www.w3.org/2000/svg"
   xmlns="http://www.w3.org/2000/svg"
   id="svg1485"
   version="1.1"
   viewBox="0 0 17.850115 22.229971"
   height="22.229971mm"
   width="17.850115mm">
  <defs
     id="defs1479" />
  <metadata
     id="metadata1482">
    <rdf:RDF>
      <cc:Work
         rdf:about="">
        <dc:format>image/svg+xml</dc:format>
        <dc:type
           rdf:resource="http://purl.org/dc/dcmitype/StillImage" />
        <dc:title></dc:title>
      </cc:Work>
    </rdf:RDF>
  </metadata>
  <g
     transform="translate(-27.547766,-72.301186)"
     id="layer1">
    <g
       id="g2680">
      <g
         id="g2643">
        <path
           d="m 43.149942,77.882272 c 0,1.753504 -1.026165,2.315104 -2.863169,2.315104 -1.837005,10e-7 -3.330869,-0.496531 -3.392337,-2.248958 -0.06615,-1.885796 1.489187,-3.175 3.326191,-3.175 1.837004,0 2.929315,1.35535 2.929315,3.108854 z"
           style="fill:#4d8bc2;fill-opacity:1;fill-rule:evenodd;stroke-width:0.211667;stroke-linecap:round;paint-order:fill markers stroke"
           id="path2048" />
        <path
           d="m 45.397881,75.229195 c 0,0.550266 -0.46732,0.996345 -1.043789,0.996345 -0.576469,0 -1.04379,-0.446079 -1.04379,-0.996345 0,-0.550266 0.475589,-0.888858 1.052058,-0.888858 0.576469,0 1.035521,0.338592 1.035521,0.888858"
           style="fill:#4d8bc2;fill-opacity:1;fill-rule:evenodd;stroke-width:0.0664232;stroke-linecap:round;paint-order:fill markers stroke"
           id="ellipse2625" />
        <path
           d="m 42.152573,73.297531 c 0,0.550266 -0.343297,0.97154 -0.919766,0.97154 -0.576469,0 -1.167813,-0.421274 -1.167813,-0.97154 0,-0.550266 0.467321,-0.996345 1.04379,-0.996345 0.576469,0 1.043789,0.446079 1.043789,0.996345"
           style="fill:#4d8bc2;fill-opacity:1;fill-rule:evenodd;stroke-width:0.0664232;stroke-linecap:round;paint-order:fill markers stroke"
           id="ellipse2631" />
        <path
           d="m 38.2585,74.065903 c 0,0.550266 -0.467321,0.996345 -1.04379,0.996345 -0.576469,0 -1.04379,-0.446079 -1.04379,-0.996345 0,-0.550266 0.599612,-0.938468 1.176082,-0.938467 0.576469,-10e-7 0.911498,0.388201 0.911498,0.938467"
           style="fill:#4d8bc2;fill-opacity:1;fill-rule:evenodd;stroke-width:0.0664232;stroke-linecap:round;paint-order:fill markers stroke"
           id="ellipse2633" />
      </g>
      <g
         id="g2653"
         transform="matrix(-0.86899236,-0.49482551,-0.49482551,0.86899236,112.55111,44.012453)">
        <path
           id="path2645"
           style="fill:#4d8bc2;fill-opacity:1;fill-rule:evenodd;stroke-width:0.211667;stroke-linecap:round;paint-order:fill markers stroke"
           d="m 43.149942,77.882272 c 0,1.753504 -1.026165,2.315104 -2.863169,2.315104 -1.837005,10e-7 -3.330869,-0.496531 -3.392337,-2.248958 -0.06615,-1.885796 1.489187,-3.175 3.326191,-3.175 1.837004,0 2.929315,1.35535 2.929315,3.108854 z" />
        <path
           id="path2647"
           style="fill:#4d8bc2;fill-opacity:1;fill-rule:evenodd;stroke-width:0.0664232;stroke-linecap:round;paint-order:fill markers stroke"
           d="m 45.397881,75.229195 c 0,0.550266 -0.46732,0.996345 -1.043789,0.996345 -0.576469,0 -1.04379,-0.446079 -1.04379,-0.996345 0,-0.550266 0.475589,-0.888858 1.052058,-0.888858 0.576469,0 1.035521,0.338592 1.035521,0.888858" />
        <path
           id="path2649"
           style="fill:#4d8bc2;fill-opacity:1;fill-rule:evenodd;stroke-width:0.0664232;stroke-linecap:round;paint-order:fill markers stroke"
           d="m 42.152573,73.297531 c 0,0.550266 -0.343297,0.97154 -0.919766,0.97154 -0.576469,0 -1.167813,-0.421274 -1.167813,-0.97154 0,-0.550266 0.467321,-0.996345 1.04379,-0.996345 0.576469,0 1.043789,0.446079 1.043789,0.996345" />
        <path
           id="path2651"
           style="fill:#4d8bc2;fill-opacity:1;fill-rule:evenodd;stroke-width:0.0664232;stroke-linecap:round;paint-order:fill markers stroke"
           d="m 38.2585,74.065903 c 0,0.550266 -0.467321,0.996345 -1.04379,0.996345 -0.576469,0 -1.04379,-0.446079 -1.04379,-0.996345 0,-0.550266 0.599612,-0.938468 1.176082,-0.938467 0.576469,-10e-7 0.911498,0.388201 0.911498,0.938467" />
      </g>
      <g
         transform="rotate(-29.658245,48.410555,94.534632)"
         id="g2663">
        <path
           d="m 43.149942,77.882272 c 0,1.753504 -1.026165,2.315104 -2.863169,2.315104 -1.837005,10e-7 -3.330869,-0.496531 -3.392337,-2.248958 -0.06615,-1.885796 1.489187,-3.175 3.326191,-3.175 1.837004,0 2.929315,1.35535 2.929315,3.108854 z"
           style="fill:#4d8bc2;fill-opacity:1;fill-rule:evenodd;stroke-width:0.211667;stroke-linecap:round;paint-order:fill markers stroke"
           id="path2655" />
        <path
           d="m 45.397881,75.229195 c 0,0.550266 -0.46732,0.996345 -1.043789,0.996345 -0.576469,0 -1.04379,-0.446079 -1.04379,-0.996345 0,-0.550266 0.475589,-0.888858 1.052058,-0.888858 0.576469,0 1.035521,0.338592 1.035521,0.888858"
           style="fill:#4d8bc2;fill-opacity:1;fill-rule:evenodd;stroke-width:0.0664232;stroke-linecap:round;paint-order:fill markers stroke"
           id="path2657" />
        <path
           d="m 42.152573,73.297531 c 0,0.550266 -0.343297,0.97154 -0.919766,0.97154 -0.576469,0 -1.167813,-0.421274 -1.167813,-0.97154 0,-0.550266 0.467321,-0.996345 1.04379,-0.996345 0.576469,0 1.043789,0.446079 1.043789,0.996345"
           style="fill:#4d8bc2;fill-opacity:1;fill-rule:evenodd;stroke-width:0.0664232;stroke-linecap:round;paint-order:fill markers stroke"
           id="path2659" />
        <path
           d="m 38.2585,74.065903 c 0,0.550266 -0.467321,0.996345 -1.04379,0.996345 -0.576469,0 -1.04379,-0.446079 -1.04379,-0.996345 0,-0.550266 0.599612,-0.938468 1.176082,-0.938467 0.576469,-10e-7 0.911498,0.388201 0.911498,0.938467"
           style="fill:#4d8bc2;fill-opacity:1;fill-rule:evenodd;stroke-width:0.0664232;stroke-linecap:round;paint-order:fill markers stroke"
           id="path2661" />
      </g>
    </g>
  </g>
</svg>
