<?xml version="1.0" encoding="UTF-8" standalone="no"?>
<svg
   xmlns:dc="http://purl.org/dc/elements/1.1/"
   xmlns:cc="http://creativecommons.org/ns#"
   xmlns:rdf="http://www.w3.org/1999/02/22-rdf-syntax-ns#"
   xmlns:svg="http://www.w3.org/2000/svg"
   xmlns="http://www.w3.org/2000/svg"
   viewBox="0 0 90.433584 88.073536"
   height="88.073547"
   width="90.433586"
   id="svg2319"
   version="1.1">
  <metadata
     id="metadata2325">
    <rdf:RDF>
      <cc:Work
         rdf:about="">
        <dc:format>image/svg+xml</dc:format>
        <dc:type
           rdf:resource="http://purl.org/dc/dcmitype/StillImage" />
        <dc:title></dc:title>
      </cc:Work>
    </rdf:RDF>
  </metadata>
  <defs
     id="defs2323" />
  <g
     id="g2327"
     transform="translate(-264.04221,-253.83085)">
    <g
       id="g3388">
      <g
         id="g3378">
        <path
           transform="translate(243.64768,259.16807)"
           d="M 93.621094,-3.6015625 C 87.82604,-3.6080593 69.769531,4.78125 69.769531,4.78125 c 0,0 -6.794855,-2.5203813 -15.703125,-3.0195312 -13.21701,-0.7405801 -23.974609,4.8144531 -23.974609,4.8144531 0,0 -4.734455,-2.935001 -9.697266,-5.4394531 V 82.736328 h 89.533199 c 0.30828,-0.490378 0.60798,-0.988111 0.90039,-1.492187 V 34.285156 c -0.62149,-1.037722 -1.27094,-2.066953 -1.97851,-3.074218 -7.88622,-11.226531 -14.916016,-13.96875 -14.916016,-13.96875 0,0 2.863578,-20.0716299 0.673828,-20.7246099 -0.268365,-0.080029 -0.599991,-0.1187075 -0.986328,-0.1191406 z"
           style="color:#000000;font-style:normal;font-variant:normal;font-weight:normal;font-stretch:normal;font-size:medium;line-height:normal;font-family:sans-serif;font-variant-ligatures:normal;font-variant-position:normal;font-variant-caps:normal;font-variant-numeric:normal;font-variant-alternates:normal;font-variant-east-asian:normal;font-feature-settings:normal;font-variation-settings:normal;text-indent:0;text-align:start;text-decoration:none;text-decoration-line:none;text-decoration-style:solid;text-decoration-color:#000000;letter-spacing:normal;word-spacing:normal;text-transform:none;writing-mode:lr-tb;direction:ltr;text-orientation:mixed;dominant-baseline:auto;baseline-shift:baseline;text-anchor:start;white-space:normal;shape-padding:0;shape-margin:0;inline-size:0;clip-rule:nonzero;display:inline;overflow:visible;visibility:visible;isolation:auto;mix-blend-mode:normal;color-interpolation:sRGB;color-interpolation-filters:linearRGB;solid-color:#000000;solid-opacity:1;vector-effect:none;fill:#e4e9ec;fill-opacity:1;fill-rule:evenodd;stroke:none;stroke-width:3.36954;stroke-linecap:round;stroke-linejoin:miter;stroke-miterlimit:4;stroke-dasharray:none;stroke-dashoffset:0;stroke-opacity:1;paint-order:fill markers stroke;color-rendering:auto;image-rendering:auto;shape-rendering:auto;text-rendering:auto;enable-background:accumulate;stop-color:#000000"
           id="path5094" />
        <path
           d="m 280.23145,292.49914 a 4.7372282,4.2023798 0.64065111 0 1 -4.78392,4.14915 4.7372282,4.2023798 0.64065111 0 1 -4.68995,-4.25508 4.7372282,4.2023798 0.64065111 0 1 4.78393,-4.14915 4.7372282,4.2023798 0.64065111 0 1 4.68994,4.25508"
           style="fill:#000000;fill-opacity:1;fill-rule:evenodd;stroke:none;stroke-width:2.52684;stroke-linecap:round;stroke-miterlimit:4;stroke-dasharray:none;stroke-opacity:1;paint-order:fill markers stroke"
           id="path1491" />
        <path
           transform="translate(243.64768,259.16807)"
           d="M 93.623047,-3.6015625 C 87.827902,-3.6079324 69.769531,4.78125 69.769531,4.78125 c 0,0 -6.453785,-2.3748006 -15.009765,-2.9628906 -2.74628,7.69439 -5.139335,16.2984016 -3.140625,23.0136716 7.28637,24.48063 29.94289,39.340652 52.650389,32.582031 2.29488,-0.683041 4.48423,-1.558599 6.55859,-2.603515 V 34.333984 c -0.6209,-1.067309 -1.26913,-2.117936 -1.97656,-3.125 -7.88623,-11.22653 -14.917966,-13.966796 -14.917966,-13.966796 0,0 2.865531,-20.073583 0.675781,-20.726563 -0.268364,-0.080029 -0.599985,-0.1167628 -0.986328,-0.1171875 z"
           style="fill:#d7bf9b;fill-opacity:1;fill-rule:evenodd;stroke-width:0;stroke-linecap:round;stroke-miterlimit:4;stroke-dasharray:none;paint-order:fill markers stroke"
           id="path5071" />
        <path
           id="path3816"
           style="fill:#d387ba;fill-opacity:1;stroke:#000000;stroke-width:3.36954;stroke-linecap:butt;stroke-linejoin:miter;stroke-miterlimit:4;stroke-dasharray:none;stroke-opacity:1"
           d="m 297.54274,292.15822 c -0.21761,0.47577 -0.46725,1.06091 -0.85535,1.52487 -0.40495,0.4841 -0.96326,0.79639 -1.56745,0.9472 -0.61758,1.03997 -1.12688,2.12386 -1.29776,3.2221 -0.18708,1.20238 0.0249,2.41687 0.41655,3.35274 0.39164,0.93588 0.96356,1.5927 1.76867,1.89743 0.8051,0.30475 1.84226,0.25908 2.81032,-0.0858 0.96806,-0.34485 1.86687,-0.98629 2.54281,-1.80739 0.67595,-0.82112 1.13137,-1.8215 1.38349,-2.74181 0.25212,-0.92032 0.30234,-1.76211 0.14386,-2.48499 -0.13916,-0.63501 -0.46465,-1.18668 -1.15522,-1.85114 -0.67679,-0.22321 -1.39205,-0.73015 -1.98695,-1.33121 -0.0863,-0.0872 -0.14593,-0.15958 -0.22724,-0.24822 -0.54152,-0.26982 -1.09257,-0.46705 -1.5831,-0.45121 -0.13589,0.005 -0.26571,0.0252 -0.39264,0.0573 z" />
        <path
           id="path4424"
           d="m 291.74435,291.4923 -2.14173,2.60127 c 1.02154,0.83995 2.15658,1.90039 3.84704,2.25159 1.68917,0.35096 3.43294,-0.24341 4.53948,-1.56626 0.26716,-0.31939 0.3371,-0.56126 0.49774,-0.85768 0.0322,0.0334 0.0383,0.0456 0.0717,0.0793 0.90688,0.91627 1.96984,1.79667 3.51341,1.94576 1.54186,0.14893 2.81206,-0.80522 3.56399,-1.8138 0.75179,-1.00843 1.19752,-2.13531 1.63405,-3.16885 l -3.10443,-1.30989 c -0.43653,1.03354 -0.86202,1.97121 -1.23013,2.46498 -0.36797,0.49358 -0.46669,0.48087 -0.53873,0.47392 -0.0704,-0.007 -0.86825,-0.3796 -1.44438,-0.96171 -0.28784,-0.29082 -0.58503,-0.66877 -0.97055,-1.06153 -0.19277,-0.19637 -0.8299,-1.54127 -1.27431,-1.49369 -0.40114,0.043 -0.76182,0.0752 -1.49618,0.19971 -0.74007,0.12531 -0.7212,1.00636 -0.84625,1.39072 -0.098,0.30109 -0.31339,0.72438 -0.41436,0.94747 -0.20196,0.44621 -0.40405,0.83265 -0.54618,1.00257 -0.28399,0.33952 -0.8065,0.52707 -1.27027,0.4307 -0.46246,-0.0961 -1.36836,-0.71465 -2.3899,-1.55461 z"
           style="color:#000000;font-style:normal;font-variant:normal;font-weight:normal;font-stretch:normal;font-size:medium;line-height:normal;font-family:sans-serif;font-variant-ligatures:normal;font-variant-position:normal;font-variant-caps:normal;font-variant-numeric:normal;font-variant-alternates:normal;font-variant-east-asian:normal;font-feature-settings:normal;font-variation-settings:normal;text-indent:0;text-align:start;text-decoration:none;text-decoration-line:none;text-decoration-style:solid;text-decoration-color:#000000;letter-spacing:normal;word-spacing:normal;text-transform:none;writing-mode:lr-tb;direction:ltr;text-orientation:mixed;dominant-baseline:auto;baseline-shift:baseline;text-anchor:start;white-space:normal;shape-padding:0;shape-margin:0;inline-size:0;clip-rule:nonzero;display:inline;overflow:visible;visibility:visible;isolation:auto;mix-blend-mode:normal;color-interpolation:sRGB;color-interpolation-filters:linearRGB;solid-color:#000000;solid-opacity:1;vector-effect:none;fill:#000000;fill-opacity:1;fill-rule:nonzero;stroke:none;stroke-width:3.36954;stroke-linecap:butt;stroke-linejoin:miter;stroke-miterlimit:4;stroke-dasharray:none;stroke-dashoffset:0;stroke-opacity:1;color-rendering:auto;image-rendering:auto;shape-rendering:auto;text-rendering:auto;enable-background:accumulate;stop-color:#000000" />
        <path
           style="fill:none;stroke:#000000;stroke-width:3.36954;stroke-linecap:butt;stroke-linejoin:miter;stroke-miterlimit:4;stroke-dasharray:none;stroke-opacity:1"
           d="m 317.91975,283.08625 -6.22129,5.23391 8.46662,4.58264"
           id="path5069" />
        <path
           transform="translate(243.64768,259.16807)"
           d="m 93.587891,-5.3339844 c -1.528174,-0.046995 -3.162159,0.4250263 -5.128907,0.9804688 -2.62231,0.74089 -5.630103,1.8304281 -8.496093,2.9550781 -5.41694,2.12565 -9.778715,4.1541344 -10.302735,4.3964844 -0.94473,-0.33619 -7.00827,-2.4441319 -15.5,-2.9199219 -12.86448,-0.72083 -22.625955,4.0059244 -23.916015,4.6464844 -0.61351,-0.38003 -3.725948,-2.3273881 -7.929688,-4.51757815 -0.630674,-0.32858369 -1.277484,-0.63244136 -1.919922,-0.94921875 v 3.7597656 c 0.120072,0.061927 0.241849,0.1154849 0.361328,0.1777344 4.45257,2.31985 8.445313,4.8105469 8.445313,4.8105469 l 0.8125,0.5078125 0.851562,-0.4394531 c 0,0 10.411362,-5.3422494 23.107422,-4.6308594 8.63966,0.48409 15.212891,2.9179687 15.212891,2.9179687 l 0.658203,0.2441407 0.634766,-0.2949219 c 0,0 5.101273,-2.3694656 10.714843,-4.5722657 2.80677,-1.10138995 5.742348,-2.1590662 8.179688,-2.8476562 2.15939,-0.61002 3.679697,-0.677965 4.210937,-0.671875 0.0742,0.44051 0.142044,1.03730625 0.158204,1.84765625 0.0372,1.85753995 -0.111719,4.39479245 -0.330079,6.91406255 -0.43676,5.0385302 -1.146484,10.0253902 -1.146484,10.0253902 l -0.1875,1.322266 1.244141,0.484375 c 0,0 1.48515,0.558482 4.09375,2.544922 2.608624,1.98643 6.209824,5.348876 10.054684,10.822266 1.26815,1.805283 2.37822,3.661704 3.35742,5.558593 v -6.59375 c -0.20163,-0.30011 -0.39078,-0.605064 -0.5996,-0.902343 -4.04138,-5.75314 -7.8957,-9.375037 -10.773442,-11.566407 -2.18645,-1.66495 -3.040949,-1.95988 -3.730469,-2.28125 0.12692,-0.90922 0.645112,-4.51254 1.044922,-9.1249998 0.22367,-2.58042 0.383647,-5.1837775 0.341797,-7.27343745 -0.0209,-1.04482995 -0.08325,-1.95010625 -0.255859,-2.75390625 -0.0864,-0.40189 -0.193093,-0.78053 -0.414063,-1.1875 -0.22097,-0.40698 -0.624332,-0.9354838 -1.351562,-1.1523437 -0.49383,-0.1472625 -0.992562,-0.2206632 -1.501953,-0.2363282 z M 110.82812,77.675781 c -0.86914,1.761639 -1.84388,3.450683 -2.90624,5.060547 h 2.90624 z"
           style="color:#000000;font-style:normal;font-variant:normal;font-weight:normal;font-stretch:normal;font-size:medium;line-height:normal;font-family:sans-serif;font-variant-ligatures:normal;font-variant-position:normal;font-variant-caps:normal;font-variant-numeric:normal;font-variant-alternates:normal;font-variant-east-asian:normal;font-feature-settings:normal;font-variation-settings:normal;text-indent:0;text-align:start;text-decoration:none;text-decoration-line:none;text-decoration-style:solid;text-decoration-color:#000000;letter-spacing:normal;word-spacing:normal;text-transform:none;writing-mode:lr-tb;direction:ltr;text-orientation:mixed;dominant-baseline:auto;baseline-shift:baseline;text-anchor:start;white-space:normal;shape-padding:0;shape-margin:0;inline-size:0;clip-rule:nonzero;display:inline;overflow:visible;visibility:visible;isolation:auto;mix-blend-mode:normal;color-interpolation:sRGB;color-interpolation-filters:linearRGB;solid-color:#000000;solid-opacity:1;vector-effect:none;fill:#000000;fill-opacity:1;fill-rule:evenodd;stroke:none;stroke-width:3.36954;stroke-linecap:round;stroke-linejoin:miter;stroke-miterlimit:4;stroke-dasharray:none;stroke-dashoffset:0;stroke-opacity:1;paint-order:fill markers stroke;color-rendering:auto;image-rendering:auto;shape-rendering:auto;text-rendering:auto;enable-background:accumulate;stop-color:#000000"
           id="path5096" />
      </g>
    </g>
  </g>
</svg>
