<?xml version="1.0" encoding="UTF-8" standalone="no"?>
<svg
   xmlns:dc="http://purl.org/dc/elements/1.1/"
   xmlns:cc="http://creativecommons.org/ns#"
   xmlns:rdf="http://www.w3.org/1999/02/22-rdf-syntax-ns#"
   xmlns:svg="http://www.w3.org/2000/svg"
   xmlns="http://www.w3.org/2000/svg"
   viewBox="0 0 25.035875 25.530704"
   height="25.530704"
   width="25.035875"
   id="svg833"
   version="1.1">
  <metadata
     id="metadata839">
    <rdf:RDF>
      <cc:Work
         rdf:about="">
        <dc:format>image/svg+xml</dc:format>
        <dc:type
           rdf:resource="http://purl.org/dc/dcmitype/StillImage" />
        <dc:title></dc:title>
      </cc:Work>
    </rdf:RDF>
  </metadata>
  <defs
     id="defs837" />
  <g
     transform="translate(-9.9648193,-318.14605)"
     id="g841">
    <g
       transform="matrix(0.256,0,0,0.256,16.727171,246.19808)"
       id="g957">
      <path
         id="path845"
         style="fill:#e3c2bb;fill-opacity:1;fill-rule:evenodd;stroke:#000000;stroke-width:2;stroke-linecap:round;stroke-miterlimit:4;stroke-dasharray:none;stroke-opacity:1;paint-order:fill markers stroke"
         d="m 70.38095,339.25838 c 0,10.46676 -2.97746,23.61851 -9.57887,30.59863 -11.54952,12.2121 -29.17371,10.62185 -44.29868,8.31293 -25.84953,-3.94609 -40.1865,-11.75722 -41.77838,-38.91156 -0.54422,-9.28329 0.44165,-19.37417 3.98171,-28.14133 2.87733,-7.12586 9.22206,-12.24263 14.38419,-16.21656 4.41075,-3.3955 5.27944,-11.64792 8.75088,-12.78858 2.77122,-0.91057 12.32468,9.12162 12.32468,9.12162 0,0 9.30096,-0.84203 11.75368,-0.84203 5.84966,0 19.03799,4.0431 19.03799,4.0431 0,0 12.89608,-6.40731 15.18431,-3.85929 1.91295,2.13014 -1.18036,11.14564 -1.18036,11.14564 0,0 5.51941,5.06574 8.19542,12.19558 3.01334,8.02864 3.22343,18.56521 3.22343,25.34185" />
      <path
         style="fill:none;stroke:#000000;stroke-width:2;stroke-linecap:butt;stroke-linejoin:miter;stroke-miterlimit:4;stroke-dasharray:none;stroke-opacity:1"
         d="m 17.79793,310.93458 c -0.03127,1.21959 -0.06416,2.5023 0.144857,3.30396 0.209015,0.80166 0.657961,1.1544 1.341477,1.14017 0.683516,-0.0142 1.624806,-0.40373 2.329995,-0.93266 0.70519,-0.52894 1.186206,-1.20236 1.554973,-1.7635 0.368767,-0.56114 0.625304,-1.01008 0.675683,-0.6888 0.05038,0.32127 -0.114451,1.47506 0.01435,2.27689 0.128798,0.80183 0.545683,1.28284 1.21921,1.57098 0.673528,0.28814 1.603488,0.38435 2.426026,0.18329 0.822537,-0.20107 1.5817,-0.72918 2.126661,-1.41833 0.544961,-0.68916 0.897702,-1.55498 1.028773,-2.26061 0.131072,-0.70563 0.02967,-1.31406 -0.0665,-1.8111 -0.09617,-0.49705 -0.19237,-0.91393 -0.288847,-1.33199"
         id="path857" />
      <path
         style="fill:none;stroke:#000000;stroke-width:2;stroke-linecap:butt;stroke-linejoin:miter;stroke-miterlimit:4;stroke-dasharray:none;stroke-opacity:1"
         d="m 38.71426,334.37559 c -0.237609,-1.75164 -0.475368,-3.50439 -0.562279,-5.02224 -0.08691,-1.51784 -0.02277,-2.80055 0.265884,-3.68292 0.288658,-0.88237 0.801748,-1.36339 1.331167,-1.56977 0.529418,-0.20639 1.010935,-0.1462 1.636178,0.31927 0.625243,0.46546 1.3628,1.33129 1.843507,2.24529 0.480707,0.91401 0.705179,1.87604 0.958052,2.9352 0.252873,1.05916 0.54885,2.27595 0.837181,3.46131"
         id="path861" />
      <path
         style="fill:none;stroke:#000000;stroke-width:2;stroke-linecap:butt;stroke-linejoin:miter;stroke-miterlimit:4;stroke-dasharray:none;stroke-opacity:1"
         d="m 1.53928,332.4845 c 0,-2.01931 0,-4.03961 0.1762804,-5.59513 0.1762803,-1.55552 0.5290294,-2.64583 1.036032,-3.45572 0.5070025,-0.80988 1.1288025,-1.30732 1.8829034,-1.51566 0.7541008,-0.20833 1.6199314,-0.11212 2.2932112,0.28925 0.6732798,0.40137 1.154295,1.10686 1.4425677,2.02078 0.2882727,0.91393 0.3844744,2.0363 0.3843572,2.86994 -1.172e-4,0.83364 -0.096318,1.37879 -0.1923819,1.92316"
         id="path865" />
      <path
         style="fill:none;stroke:#000000;stroke-width:2;stroke-linecap:butt;stroke-linejoin:miter;stroke-miterlimit:4;stroke-dasharray:none;stroke-opacity:1"
         d="m -21.05187,310.87112 c 2.69042,-0.15214 5.37992,-0.30423 8.06847,-0.45626"
         id="path869" />
      <path
         style="fill:none;stroke:#000000;stroke-width:2;stroke-linecap:butt;stroke-linejoin:miter;stroke-miterlimit:4;stroke-dasharray:none;stroke-opacity:1"
         d="m -22.2351,315.99309 c 2.087208,-0.0888 4.263996,-0.18145 6.39456,-0.27211"
         id="path873" />
      <path
         style="fill:none;stroke:#000000;stroke-width:2;stroke-linecap:butt;stroke-linejoin:miter;stroke-miterlimit:4;stroke-dasharray:none;stroke-opacity:1"
         d="m 27.0166,290.82302 c -0.680475,1.9507 -1.360744,3.90081 -2.04081,5.85034"
         id="path877" />
      <path
         style="fill:none;stroke:#000000;stroke-width:2;stroke-linecap:butt;stroke-linejoin:miter;stroke-miterlimit:4;stroke-dasharray:none;stroke-opacity:1"
         d="m 35.9962,292.31962 c -0.771183,2.08673 -1.54216,4.17289 -2.31293,6.2585"
         id="path881" />
      <path
         style="fill:none;stroke:#000000;stroke-width:2;stroke-linecap:butt;stroke-linejoin:miter;stroke-miterlimit:4;stroke-dasharray:none;stroke-opacity:1"
         d="m 69.05742,322.5237 c -3.082758,-0.54402 -6.166658,-1.08823 -9.2517,-1.63265"
         id="path885" />
      <path
         style="fill:none;stroke:#000000;stroke-width:2;stroke-linecap:butt;stroke-linejoin:miter;stroke-miterlimit:4;stroke-dasharray:none;stroke-opacity:1"
         d="m 69.32953,327.69377 c -3.082709,-0.90668 -6.166609,-1.81371 -9.2517,-2.72109"
         id="path889" />
      <ellipse
         style="fill:#000000;fill-opacity:1;fill-rule:evenodd;stroke:none;stroke-width:2.44369;stroke-linecap:round;stroke-miterlimit:4;stroke-dasharray:none;stroke-opacity:1;paint-order:fill markers stroke"
         id="path893"
         cx="10.622052"
         cy="304.93869"
         rx="3.4693878"
         ry="3.367347" />
      <ellipse
         ry="3.367347"
         rx="3.027211"
         cy="306.4353"
         cx="39.907757"
         id="ellipse895"
         style="fill:#000000;fill-opacity:1;fill-rule:evenodd;stroke:none;stroke-width:2.28266;stroke-linecap:round;stroke-miterlimit:4;stroke-dasharray:none;stroke-opacity:1;paint-order:fill markers stroke" />
    </g>
  </g>
</svg>
