<?xml version="1.0" encoding="UTF-8" standalone="no"?>
<svg
   xmlns:dc="http://purl.org/dc/elements/1.1/"
   xmlns:cc="http://creativecommons.org/ns#"
   xmlns:rdf="http://www.w3.org/1999/02/22-rdf-syntax-ns#"
   xmlns:svg="http://www.w3.org/2000/svg"
   xmlns="http://www.w3.org/2000/svg"
   id="svg1485"
   version="1.1"
   viewBox="0 0 30.559374 30.559374"
   height="30.559374mm"
   width="30.559374mm">
  <defs
     id="defs1479" />
  <metadata
     id="metadata1482">
    <rdf:RDF>
      <cc:Work
         rdf:about="">
        <dc:format>image/svg+xml</dc:format>
        <dc:type
           rdf:resource="http://purl.org/dc/dcmitype/StillImage" />
        <dc:title></dc:title>
      </cc:Work>
    </rdf:RDF>
  </metadata>
  <g
     transform="translate(-68.029015,-29.041812)"
     id="layer1">
    <path
       transform="matrix(0.26458333,0,0,0.26458333,27.547766,72.301186)"
       d="M 210.75,-163.5 A 57.749999,57.749999 0 0 0 153,-105.75 57.749999,57.749999 0 0 0 210.75,-48 57.749999,57.749999 0 0 0 268.5,-105.75 57.749999,57.749999 0 0 0 210.75,-163.5 Z m 6.25,20.51562 c 1.48594,0.0587 2.99329,0.47096 4.39062,1.27149 4.47153,2.5617 6.12578,8.11979 3.69532,12.41406 -2.43046,4.29427 -8.87809,4.95428 -13.34961,2.39258 -4.47153,-2.5617 -5.27421,-7.3737 -2.84375,-11.66797 1.67094,-2.95231 4.83835,-4.53934 8.10742,-4.41016 z m -34.96094,1.20899 c 1.67198,0.0429 3.4306,0.55889 5.10742,1.51953 4.47155,2.5617 6.66484,7.31706 4.23438,11.61133 -2.43046,4.29427 -8.02652,5.69842 -12.49805,3.13672 -4.47152,-2.5617 -6.12577,-8.1198 -3.69531,-12.41407 1.51904,-2.6839 4.06494,-3.925 6.85156,-3.85351 z m 22.11133,19.53711 c 4.28258,0.0196 8.75612,1.21461 13.20899,3.76562 14.24914,8.16325 20.61979,25.13583 11.77734,39.558598 -8.21706,13.402761 -21.99692,10.639816 -36.2461,2.476562 -14.24914,-8.163239 -19.72939,-17.106684 -11.98437,-30.79102 5.3247,-9.40796 13.82247,-15.05299 23.24414,-15.00976 z m 38.67578,2.44922 c 1.31383,0.0404 2.6964,0.44165 4.09375,1.24218 4.47154,2.5617 7.40702,8.25456 4.97656,12.54883 -2.43045,4.29427 -8.02457,5.70037 -12.49609,3.13867 -4.47152,-2.5617 -6.12577,-8.11979 -3.69531,-12.41406 1.67094,-2.9523 4.23067,-4.60459 7.12109,-4.51562 z"
       style="fill:#4d8bc2;fill-opacity:1;fill-rule:evenodd;stroke-width:1.7434;stroke-linecap:round;paint-order:fill markers stroke"
       id="path3392" />
  </g>
</svg>
