<?xml version="1.0" encoding="UTF-8" standalone="no"?>
<svg
   xmlns:dc="http://purl.org/dc/elements/1.1/"
   xmlns:cc="http://creativecommons.org/ns#"
   xmlns:rdf="http://www.w3.org/1999/02/22-rdf-syntax-ns#"
   xmlns:svg="http://www.w3.org/2000/svg"
   xmlns="http://www.w3.org/2000/svg"
   xmlns:sodipodi="http://sodipodi.sourceforge.net/DTD/sodipodi-0.dtd"
   xmlns:inkscape="http://www.inkscape.org/namespaces/inkscape"
   viewBox="0 0 380.72722 144.3692"
   height="144.3692"
   width="380.72723"
   id="svg833"
   version="1.1"
   sodipodi:docname="kitty_ball.svg"
   inkscape:version="1.0 (4035a4fb49, 2020-05-01)">
  <sodipodi:namedview
     inkscape:document-rotation="0"
     pagecolor="#ffffff"
     bordercolor="#666666"
     borderopacity="1"
     objecttolerance="10"
     gridtolerance="10"
     guidetolerance="10"
     inkscape:pageopacity="0"
     inkscape:pageshadow="2"
     inkscape:window-width="1920"
     inkscape:window-height="1017"
     id="namedview1636"
     showgrid="false"
     fit-margin-top="0"
     fit-margin-left="0"
     fit-margin-right="0"
     fit-margin-bottom="0"
     inkscape:zoom="1"
     inkscape:cx="350.00859"
     inkscape:cy="126.63545"
     inkscape:window-x="-8"
     inkscape:window-y="-8"
     inkscape:window-maximized="1"
     inkscape:current-layer="g2335" />
  <metadata
     id="metadata839">
    <rdf:RDF>
      <cc:Work
         rdf:about="">
        <dc:format>image/svg+xml</dc:format>
        <dc:type
           rdf:resource="http://purl.org/dc/dcmitype/StillImage" />
        <dc:title />
      </cc:Work>
    </rdf:RDF>
  </metadata>
  <defs
     id="defs837" />
  <g
     id="g2335"
     transform="translate(220.38382,86.283946)">
    <path
       d="m -72.21884,-69.01284 c 0,3.79703 -2.84312,7.01119 -7.18945,7.01119 -4.34633,0 -2.69966,-3.0781 -2.69966,-6.87514 0,-3.79704 -1.64667,-6.87514 2.69966,-6.87514 4.34633,0 7.18945,2.94205 7.18945,6.73909 z"
       style="fill:#f9f9f9;fill-opacity:0.361446;fill-rule:evenodd;stroke:none;stroke-width:2.26453;stroke-linecap:round;stroke-miterlimit:4;stroke-dasharray:none;stroke-opacity:1;paint-order:fill markers stroke"
       id="path879" />
    <path
       id="path845"
       style="fill:#8b9aad;fill-opacity:1;fill-rule:evenodd;stroke:#000000;stroke-width:2;stroke-linecap:round;stroke-miterlimit:4;stroke-dasharray:none;stroke-opacity:1;paint-order:fill markers stroke"
       d="m 32.28667,-23.78649 c 0,31.77327 -27.8248,57.53059 -62.14843,57.53059 -34.32364,0 -62.14845,-25.75732 -62.14845,-57.53059 0,-6.99956 4.41721,-26.37842 4.41721,-26.37842 0,0 -2.158,-27.35612 5.15825,-33.51457 6.30771,-5.30951 28.98594,4.27966 28.98594,4.27966 0,0 15.70069,-2.09125 23.58705,-1.91727 9.86628,0.21766 29.37422,3.69761 29.37422,3.69761 0,0 23.56241,-6.69604 29.31987,-1.85726 6.49813,5.46125 -4.82256,31.26883 -4.82256,31.26883 0,0 8.2769,16.29515 8.2769,24.42142 z" />
    <path
       id="path884"
       style="fill:#e3cec9;fill-opacity:1;fill-rule:evenodd;stroke:#000000;stroke-width:2.024;stroke-linecap:round;stroke-miterlimit:4;stroke-dasharray:none;stroke-opacity:1;paint-order:fill markers stroke"
       d="m -29.86132,-81.31725 c -3.90993,-0.0862 -9.73526,0.38443 -14.6211,0.88086 2.83441,9.57132 7.20249,18.99189 12.16211,27.45703 4.41367,7.53331 8.49352,14.31109 15.01367,19.76563 12.21218,10.21628 28.3375,15.03869 47.96094,15.30469 0.44729,0.006 0.87858,0.0413 1.30079,0.0898 0.21847,-1.96201 0.33203,-3.95133 0.33203,-5.9668 0,-8.12627 -8.27735,-24.42187 -8.27735,-24.42187 0,0 11.3204,-25.80828 4.82227,-31.26953 -5.75746,-4.83878 -29.31836,1.85742 -29.31836,1.85742 0,0 -19.50872,-3.47961 -29.375,-3.69727 z" />
    <path
       style="fill:none;stroke:#000000;stroke-width:2.2;stroke-linecap:butt;stroke-linejoin:miter;stroke-miterlimit:4;stroke-dasharray:none;stroke-opacity:1"
       d="m -35.57734,-28.26893 c 0.90803,0.90802 1.81506,1.81505 2.94847,1.81447 1.13342,-5.9e-4 2.49394,-0.9076 3.71889,-0.95245 1.22494,-0.0448 2.31335,0.77147 3.31098,1.13381 0.99762,0.36235 1.90464,0.27165 2.7205,-0.1818 0.81586,-0.45344 1.54147,-1.26975 2.26715,-2.08614"
       id="path896" />
    <path
       id="path927"
       style="fill:#ffffff;fill-opacity:1;fill-rule:evenodd;stroke:none;stroke-width:2.024;stroke-linecap:round;stroke-miterlimit:4;stroke-dasharray:none;stroke-opacity:1;paint-order:fill markers stroke"
       d="m -69.31905,-69.37947 c 0,4.25061 -3.68646,7.96851 -6.55561,7.96851 -2.86916,0 -3.56242,-1.40498 -3.56242,-5.65558 0,-4.2506 -0.39518,-8.64878 2.47398,-8.64878 2.86916,0 7.64405,2.08525 7.64405,6.33585 z" />
    <ellipse
       ry="5.2912755"
       rx="5.4836855"
       cy="-40.903324"
       cx="-48.247108"
       id="path848"
       style="fill:#000000;fill-opacity:1;fill-rule:evenodd;stroke:none;stroke-width:3.45573;stroke-linecap:round;stroke-miterlimit:4;stroke-dasharray:none;stroke-opacity:1;paint-order:fill markers stroke" />
    <ellipse
       style="fill:#000000;fill-opacity:1;fill-rule:evenodd;stroke:none;stroke-width:3.45573;stroke-linecap:round;stroke-miterlimit:4;stroke-dasharray:none;stroke-opacity:1;paint-order:fill markers stroke"
       id="ellipse850"
       cx="-12.651222"
       cy="-45.328739"
       rx="5.4836855"
       ry="5.2912755" />
    <path
       style="fill:none;stroke:#000000;stroke-width:2;stroke-linecap:butt;stroke-linejoin:miter;stroke-miterlimit:4;stroke-dasharray:none;stroke-opacity:1"
       d="m -50.94748,-79.78464 c -1.64008,0.46436 -3.27965,0.92858 -4.59869,1.54351 -1.31904,0.61494 -2.31539,1.37991 -3.31158,2.14475"
       id="path990" />
    <path
       style="fill:none;stroke:#000000;stroke-width:2;stroke-linecap:butt;stroke-linejoin:miter;stroke-miterlimit:4;stroke-dasharray:none;stroke-opacity:1"
       d="m -87.593,-50.16491 c 0.65995,-1.19385 1.31982,-2.38755 1.94466,-3.23082 0.62483,-0.84328 1.21388,-1.33498 1.8027,-1.8265"
       id="path994" />
    <path
       style="fill:none;stroke:#000000;stroke-width:2;stroke-linecap:butt;stroke-linejoin:miter;stroke-miterlimit:4;stroke-dasharray:none;stroke-opacity:1"
       d="m -1.06577,-77.78955 c 0,0 2.56159,1.40076 3.67557,2.32991 0.73439,0.61254 1.94592,2.10816 1.94592,2.10816"
       id="path998" />
    <rect
       y="-3.407515"
       x="-219.28023"
       height="60.389179"
       width="378.52005"
       id="rect2199"
       style="fill:#5e9fc9;fill-rule:evenodd;stroke:#000000;stroke-width:2.20718;stroke-linecap:round;paint-order:fill markers stroke" />
    <ellipse
       ry="4.103374"
       rx="4.2806592"
       cy="-3.9140806"
       cx="-57.911854"
       id="path2294"
       style="fill:#8b9aad;fill-opacity:1;fill-rule:evenodd;stroke:none;stroke-width:2.95877;stroke-linecap:round;paint-order:fill markers stroke" />
    <path
       style="fill:none;stroke:#000000;stroke-width:2.2;stroke-linecap:butt;stroke-linejoin:miter;stroke-miterlimit:4;stroke-dasharray:none;stroke-opacity:1"
       d="m -63.769214,-10.817732 c 0.18149,2.2686498 0.3629,4.5362198 0.99822,6.3502998 0.63533,1.81409 1.72374,3.17461 2.72162,3.94515 0.99788,0.77055 1.90489,0.95195 2.92103,0.56598 1.01613,-0.38596 2.24811,-1.4284 3.00465,-2.55354 0.75654,-1.12513 1.14795,-2.59292 1.37477,-4.04405 0.22682,-1.45114 0.31752,-2.99306 0.40828,-4.5359498"
       id="path904" />
    <ellipse
       style="fill:#8b9aad;fill-opacity:1;fill-rule:evenodd;stroke:none;stroke-width:3.17711;stroke-linecap:round;paint-order:fill markers stroke"
       id="ellipse2316"
       cx="-1.9899788"
       cy="-3.2812681"
       rx="4.4525342"
       ry="4.5486865" />
    <path
       style="fill:none;stroke:#000000;stroke-width:2.2;stroke-linecap:butt;stroke-linejoin:miter;stroke-miterlimit:4;stroke-dasharray:none;stroke-opacity:1"
       d="m -5.9244701,-10.653068 c -0.60985,2.0037998 -1.27003,4.1729798 -1.1252,6.1863498 0.14483,2.01337 1.03507,3.88288 2.12555,4.96211 1.09048,1.07923 2.53821,1.36878 3.85282,0.77911 1.31460001,-0.58966 2.58441,-2.04088 3.49138,-3.58258 0.90696,-1.5417 1.45117,-3.17432 1.814,-4.35341 0.36282,-1.17909 0.54422,-1.9047 0.7258,-2.63103"
       id="path900" />
    <path
       d="m -195.25333,27.383446 q 0,1.633689 -0.51986,3.027128 -0.51985,1.377423 -1.54427,2.386466 -1.02442,1.009043 -2.5534,1.569622 -1.52899,0.560579 -3.54724,0.560579 h -1.91124 v 6.72695 h -3.79187 V 20.720563 h 5.85601 q 1.94181,0 3.42492,0.448463 1.4984,0.432447 2.50753,1.281324 1.02442,0.848877 1.54427,2.098168 0.53515,1.233274 0.53515,2.834928 z m -3.94478,0.272282 q 0,-0.832861 -0.25993,-1.505556 -0.24463,-0.688712 -0.76449,-1.169208 -0.50456,-0.480496 -1.28434,-0.736761 -0.77979,-0.256264 -1.85008,-0.256264 h -1.97239 v 7.671926 h 2.09471 q 0.97855,0 1.72776,-0.272281 0.7492,-0.288299 1.25376,-0.816844 0.51986,-0.528546 0.77978,-1.265308 0.27522,-0.736761 0.27522,-1.649704 z"
       style="font-style:normal;font-variant:normal;font-weight:bold;font-stretch:normal;font-size:32.0491px;line-height:1.25;font-family:Consolas;-inkscape-font-specification:'Consolas, Bold';font-variant-ligatures:normal;font-variant-caps:normal;font-variant-numeric:normal;font-variant-east-asian:normal;fill:#000000;fill-opacity:1;stroke:none;stroke-width:0.801227"
       id="path877" />
    <path
       d="m -186.79806,22.065953 h -4.38818 v -3.043144 h 8.21064 v 19.588238 h 4.47992 v 3.043144 h -13.2257 v -3.043144 h 4.92332 z"
       style="font-style:normal;font-variant:normal;font-weight:bold;font-stretch:normal;font-size:32.0491px;line-height:1.25;font-family:Consolas;-inkscape-font-specification:'Consolas, Bold';font-variant-ligatures:normal;font-variant-caps:normal;font-variant-numeric:normal;font-variant-east-asian:normal;fill:#000000;fill-opacity:1;stroke:none;stroke-width:0.801227"
       id="path880" />
    <path
       d="m -161.03468,32.268493 q 0,0.400415 -0.0306,1.041077 -0.0152,0.640662 -0.0612,1.201241 h -10.21361 q 0,1.073108 0.30579,1.889953 0.32109,0.816843 0.88681,1.377422 0.58102,0.544563 1.37609,0.832861 0.81037,0.288298 1.78891,0.288298 1.13145,0 2.4158,-0.176182 1.29963,-0.192199 2.69101,-0.608629 v 3.10721 q -0.5963,0.176183 -1.29964,0.320331 -0.70333,0.144149 -1.43724,0.256265 -0.73392,0.112116 -1.48312,0.160166 -0.7492,0.06407 -1.45253,0.06407 -1.77362,0 -3.18029,-0.528547 -1.40666,-0.528546 -2.38521,-1.553605 -0.97855,-1.041075 -1.49841,-2.562647 -0.51985,-1.521572 -0.51985,-3.523641 0,-1.986052 0.51985,-3.603723 0.51986,-1.633688 1.46782,-2.78688 0.94798,-1.169208 2.29348,-1.793853 1.3608,-0.640662 3.02739,-0.640662 1.65131,0 2.92036,0.544563 1.26906,0.528545 2.12529,1.489539 0.85623,0.960992 1.29963,2.290366 0.44341,1.329374 0.44341,2.915011 z m -3.79188,-0.560579 q 0.0152,-0.960992 -0.22935,-1.66572 -0.24463,-0.720745 -0.67275,-1.185225 -0.41283,-0.46448 -0.97855,-0.688712 -0.55043,-0.224232 -1.19261,-0.224232 -1.40666,0 -2.30876,0.993027 -0.9021,0.977009 -1.07029,2.770862 z"
       style="font-style:normal;font-variant:normal;font-weight:bold;font-stretch:normal;font-size:32.0491px;line-height:1.25;font-family:Consolas;-inkscape-font-specification:'Consolas, Bold';font-variant-ligatures:normal;font-variant-caps:normal;font-variant-numeric:normal;font-variant-east-asian:normal;fill:#000000;fill-opacity:1;stroke:none;stroke-width:0.801227"
       id="path882" />
    <path
       d="m -147.57963,41.654191 -0.0917,-2.130201 q -0.48927,0.544563 -1.02442,1.009043 -0.53514,0.448463 -1.17731,0.784811 -0.64217,0.336347 -1.40666,0.512529 -0.74921,0.192199 -1.65131,0.192199 -1.1926,0 -2.0947,-0.368381 -0.90211,-0.36838 -1.5137,-1.025059 -0.61159,-0.656678 -0.93268,-1.585639 -0.3058,-0.928959 -0.3058,-2.050117 0,-1.153192 0.4587,-2.130202 0.47398,-0.977009 1.42196,-1.681737 0.96325,-0.704728 2.38521,-1.105141 1.43724,-0.400415 3.36376,-0.400415 h 2.03354 v -0.977009 q 0,-0.624645 -0.16818,-1.121158 -0.16818,-0.512529 -0.55044,-0.864894 -0.36695,-0.352364 -0.96325,-0.544563 -0.5963,-0.192198 -1.46782,-0.192198 -1.37609,0 -2.7216,0.336348 -1.33021,0.32033 -2.58398,0.912942 v -3.123227 q 1.11616,-0.464479 2.56869,-0.768793 1.46783,-0.304315 3.04267,-0.304315 1.72776,0 2.96624,0.352364 1.23847,0.336348 2.03355,1.025059 0.81035,0.688712 1.1926,1.729787 0.38224,1.025059 0.38224,2.402482 v 11.115485 z m -0.53515,-7.19143 h -2.27817 q -0.94798,0 -1.60544,0.192199 -0.65746,0.192198 -1.07028,0.528546 -0.41284,0.336347 -0.6116,0.78481 -0.18348,0.432448 -0.18348,0.92896 0,0.993026 0.6116,1.521572 0.61159,0.51253 1.66659,0.51253 0.77977,0 1.62072,-0.592612 0.84094,-0.592612 1.85006,-1.697755 z"
       style="font-style:normal;font-variant:normal;font-weight:bold;font-stretch:normal;font-size:32.0491px;line-height:1.25;font-family:Consolas;-inkscape-font-specification:'Consolas, Bold';font-variant-ligatures:normal;font-variant-caps:normal;font-variant-numeric:normal;font-variant-east-asian:normal;fill:#000000;fill-opacity:1;stroke:none;stroke-width:0.801227"
       id="path885" />
    <path
       d="m -127.25944,36.865243 q 0,1.39344 -0.5963,2.386466 -0.58102,0.977009 -1.55956,1.601654 -0.96327,0.608629 -2.20174,0.880911 -1.22318,0.288298 -2.50754,0.288298 -1.71245,0 -3.08854,-0.176182 -1.37609,-0.160166 -2.59927,-0.480497 v -3.523641 q 1.43724,0.624646 2.85919,0.912944 1.43725,0.272281 2.70631,0.272281 1.46782,0 2.18645,-0.480497 0.73391,-0.496512 0.73391,-1.281323 0,-0.368381 -0.1529,-0.672696 -0.1529,-0.304314 -0.58101,-0.576595 -0.41283,-0.288298 -1.17732,-0.576596 -0.76449,-0.304314 -2.00297,-0.672695 -1.14673,-0.336347 -2.01825,-0.752777 -0.85624,-0.432448 -1.42196,-1.009043 -0.56573,-0.576596 -0.85623,-1.329374 -0.27522,-0.768793 -0.27522,-1.793853 0,-0.993026 0.42812,-1.873936 0.42811,-0.88091 1.26905,-1.537588 0.85624,-0.672696 2.12529,-1.057093 1.26905,-0.384397 2.96622,-0.384397 1.46783,0 2.59928,0.160166 1.13145,0.160165 2.00296,0.352363 v 3.187294 q -1.33021,-0.448464 -2.50753,-0.624646 -1.16202,-0.192199 -2.30876,-0.192199 -1.14674,0 -1.85007,0.432448 -0.68804,0.432446 -0.68804,1.201241 0,0.36838 0.13761,0.656678 0.13761,0.288298 0.53514,0.560579 0.41282,0.272281 1.13144,0.576596 0.73392,0.288297 1.92653,0.640662 1.34551,0.400413 2.26289,0.864893 0.91739,0.448464 1.46783,1.02506 0.56572,0.576595 0.81036,1.313357 0.24463,0.73676 0.24463,1.681737 z"
       style="font-style:normal;font-variant:normal;font-weight:bold;font-stretch:normal;font-size:32.0491px;line-height:1.25;font-family:Consolas;-inkscape-font-specification:'Consolas, Bold';font-variant-ligatures:normal;font-variant-caps:normal;font-variant-numeric:normal;font-variant-east-asian:normal;fill:#000000;fill-opacity:1;stroke:none;stroke-width:0.801227"
       id="path887" />
    <path
       d="m -109.29389,32.268493 q 0,0.400415 -0.0306,1.041077 -0.0153,0.640662 -0.0612,1.201241 h -10.21361 q 0,1.073108 0.3058,1.889953 0.32108,0.816843 0.88681,1.377422 0.58101,0.544563 1.37608,0.832861 0.81036,0.288298 1.78891,0.288298 1.13145,0 2.41579,-0.176182 1.29964,-0.192199 2.69101,-0.608629 v 3.10721 q -0.5963,0.176183 -1.29963,0.320331 -0.70333,0.144149 -1.43725,0.256265 -0.73391,0.112116 -1.48311,0.160166 -0.7492,0.06407 -1.45253,0.06407 -1.77362,0 -3.18028,-0.528547 -1.40667,-0.528546 -2.38522,-1.553605 -0.97855,-1.041075 -1.4984,-2.562647 -0.51986,-1.521572 -0.51986,-3.523641 0,-1.986052 0.51986,-3.603723 0.51985,-1.633688 1.46782,-2.78688 0.94796,-1.169208 2.29347,-1.793853 1.3608,-0.640662 3.02739,-0.640662 1.6513,0 2.92035,0.544563 1.26907,0.528545 2.12529,1.489539 0.85623,0.960992 1.29964,2.290366 0.4434,1.329374 0.4434,2.915011 z m -3.79187,-0.560579 q 0.0153,-0.960992 -0.22935,-1.66572 -0.24464,-0.720745 -0.67275,-1.185225 -0.41283,-0.46448 -0.97855,-0.688712 -0.55044,-0.224232 -1.1926,-0.224232 -1.40667,0 -2.30877,0.993027 -0.90211,0.977009 -1.0703,2.770862 z"
       style="font-style:normal;font-variant:normal;font-weight:bold;font-stretch:normal;font-size:32.0491px;line-height:1.25;font-family:Consolas;-inkscape-font-specification:'Consolas, Bold';font-variant-ligatures:normal;font-variant-caps:normal;font-variant-numeric:normal;font-variant-east-asian:normal;fill:#000000;fill-opacity:1;stroke:none;stroke-width:0.801227"
       id="path889" />
    <path
       d="m -83.316446,22.065953 h -4.388183 v -3.043144 h 8.210642 v 19.588238 h 4.479921 v 3.043144 h -13.225707 v -3.043144 h 4.923327 z"
       style="font-style:normal;font-variant:normal;font-weight:bold;font-stretch:normal;font-size:32.0491px;line-height:1.25;font-family:Consolas;-inkscape-font-specification:'Consolas, Bold';font-variant-ligatures:normal;font-variant-caps:normal;font-variant-numeric:normal;font-variant-east-asian:normal;fill:#000000;fill-opacity:1;stroke:none;stroke-width:0.801227"
       id="path891" />
    <path
       d="m -57.094382,33.389653 q 0,1.921984 -0.519854,3.52364 -0.519854,1.585638 -1.498404,2.722812 -0.97855,1.137176 -2.400505,1.761822 -1.421954,0.624645 -3.241444,0.624645 -1.727752,0 -3.088547,-0.528547 -1.360796,-0.528546 -2.308765,-1.569621 -0.94797,-1.057092 -1.452535,-2.626714 -0.504565,-1.585638 -0.504565,-3.683806 0,-1.938003 0.519855,-3.523641 0.535144,-1.585639 1.513694,-2.706797 0.993839,-1.121158 2.415794,-1.729787 1.421954,-0.624645 3.210865,-0.624645 1.743041,0 3.103837,0.544562 1.360795,0.528546 2.308765,1.585639 0.94797,1.057092 1.437245,2.626713 0.504564,1.553606 0.504564,3.603725 z m -3.883619,0.09609 q 0,-2.530615 -0.917389,-3.795921 -0.902101,-1.281324 -2.675722,-1.281324 -0.978549,0 -1.666592,0.400413 -0.688043,0.400414 -1.131448,1.105142 -0.443405,0.688712 -0.657463,1.617672 -0.198767,0.928959 -0.198767,1.986051 0,2.546631 0.978549,3.843972 0.978549,1.281324 2.675721,1.281324 0.932681,0 1.620723,-0.384397 0.688043,-0.400414 1.116158,-1.089126 0.428115,-0.704727 0.642173,-1.649704 0.214057,-0.944976 0.214057,-2.034102 z"
       style="font-style:normal;font-variant:normal;font-weight:bold;font-stretch:normal;font-size:32.0491px;line-height:1.25;font-family:Consolas;-inkscape-font-specification:'Consolas, Bold';font-variant-ligatures:normal;font-variant-caps:normal;font-variant-numeric:normal;font-variant-east-asian:normal;fill:#000000;fill-opacity:1;stroke:none;stroke-width:0.801227"
       id="path893" />
    <path
       d="m -42.186797,28.232324 q 0.428116,0.560579 0.596304,1.185224 0.183478,0.608629 0.183478,1.249291 0,1.361407 -0.458695,2.402482 -0.443405,1.041075 -1.269056,1.745804 -0.810362,0.704728 -1.957099,1.073109 -1.131448,0.352364 -2.507533,0.352364 -0.810361,0 -1.498404,-0.160166 -0.688043,-0.176182 -1.039709,-0.400413 -0.259927,0.27228 -0.443405,0.608628 -0.183478,0.320331 -0.183478,0.736762 0,0.256264 0.122319,0.512529 0.122318,0.256264 0.351666,0.46448 0.244637,0.192199 0.565724,0.320331 0.336377,0.128132 0.749202,0.144149 l 3.68485,0.144149 q 1.238477,0.03204 2.232316,0.336348 1.009129,0.288297 1.727752,0.83286 0.718622,0.544562 1.100868,1.329373 0.397535,0.768795 0.397535,1.76182 0,1.137175 -0.489275,2.146218 -0.489274,1.009043 -1.483113,1.745804 -0.97855,0.752778 -2.446374,1.185224 -1.467825,0.432447 -3.409633,0.432447 -1.88065,0 -3.241446,-0.320331 -1.345506,-0.304314 -2.217026,-0.864894 -0.856231,-0.560579 -1.269056,-1.34539 -0.412825,-0.768793 -0.412825,-1.697754 0,-0.560579 0.137607,-1.041075 0.137609,-0.480496 0.412827,-0.92896 0.275216,-0.432447 0.688042,-0.848877 0.412826,-0.416431 0.978549,-0.832861 -0.749202,-0.448463 -1.146737,-1.153191 -0.382246,-0.704728 -0.382246,-1.505556 0,-0.544562 0.137608,-1.009042 0.137609,-0.480496 0.351667,-0.912944 0.229347,-0.432446 0.519854,-0.83286 0.290507,-0.400414 0.611594,-0.784811 -0.565724,-0.592612 -0.947971,-1.425473 -0.366955,-0.848876 -0.366955,-2.114184 0,-1.361406 0.458694,-2.418498 0.473985,-1.07311 1.299637,-1.793854 0.825651,-0.736761 1.957099,-1.105142 1.146738,-0.384397 2.492243,-0.384397 0.688042,0 1.314925,0.08009 0.642174,0.06407 1.162028,0.240248 h 5.382022 v 2.850946 z m -8.791655,15.584101 q 0,0.944976 0.902101,1.393439 0.917389,0.448464 2.568692,0.448464 1.054999,0 1.77362,-0.208215 0.733913,-0.208216 1.192608,-0.544563 0.458695,-0.336348 0.657463,-0.784811 0.198768,-0.448463 0.198768,-0.928959 0,-0.432448 -0.198768,-0.736761 -0.183478,-0.288299 -0.535144,-0.496513 -0.336376,-0.192199 -0.810361,-0.304315 -0.458696,-0.0961 -1.02442,-0.128133 l -3.287314,-0.06407 q -0.443405,0.320331 -0.733912,0.60863 -0.275217,0.288297 -0.443405,0.560579 -0.152899,0.288297 -0.214058,0.576595 -0.04587,0.288298 -0.04587,0.608629 z m 0.626883,-13.053487 q 0,1.297341 0.718623,2.066134 0.733912,0.752778 2.033548,0.752778 0.688042,0 1.192608,-0.240247 0.519854,-0.240249 0.85623,-0.640662 0.336376,-0.400414 0.504564,-0.92896 0.168189,-0.528546 0.168189,-1.105142 0,-1.361407 -0.733913,-2.114185 -0.718622,-0.768793 -2.018257,-0.768793 -0.688043,0 -1.207897,0.240247 -0.504566,0.240249 -0.840942,0.656679 -0.336376,0.400414 -0.504564,0.944977 -0.168189,0.544562 -0.168189,1.137174 z"
       style="font-style:normal;font-variant:normal;font-weight:bold;font-stretch:normal;font-size:32.0491px;line-height:1.25;font-family:Consolas;-inkscape-font-specification:'Consolas, Bold';font-variant-ligatures:normal;font-variant-caps:normal;font-variant-numeric:normal;font-variant-east-asian:normal;fill:#000000;fill-opacity:1;stroke:none;stroke-width:0.801227"
       id="path895" />
    <path
       d="m -10.200454,20.928778 q 0,0.528546 -0.183478,0.993026 -0.183477,0.464479 -0.519854,0.816844 -0.321086,0.336347 -0.764491,0.544562 -0.443406,0.192199 -0.963261,0.192199 -0.519854,0 -0.978549,-0.192199 -0.443405,-0.208215 -0.779782,-0.544562 -0.321086,-0.352365 -0.504564,-0.816844 -0.183478,-0.46448 -0.183478,-0.993026 0,-0.528546 0.183478,-0.993027 0.183478,-0.464479 0.504564,-0.816843 0.336377,-0.352365 0.779782,-0.544562 0.458695,-0.208216 0.978549,-0.208216 0.519855,0 0.963261,0.208216 0.443405,0.192197 0.764491,0.544562 0.336377,0.352364 0.519854,0.816843 0.183478,0.464481 0.183478,0.993027 z m -4.128255,7.495745 h -4.388183 v -3.043145 h 8.210642 v 13.229669 h 4.4799217 v 3.043144 H -19.252037 v -3.043144 h 4.923328 z"
       style="font-style:normal;font-variant:normal;font-weight:bold;font-stretch:normal;font-size:32.0491px;line-height:1.25;font-family:Consolas;-inkscape-font-specification:'Consolas, Bold';font-variant-ligatures:normal;font-variant-caps:normal;font-variant-numeric:normal;font-variant-east-asian:normal;fill:#000000;fill-opacity:1;stroke:none;stroke-width:0.801227"
       id="path897" />
    <path
       d="M 7.1687957,41.654191 V 31.051236 q 0,-2.674763 -1.8959397,-2.674763 -0.9479698,0 -1.8194904,0.800827 -0.8562308,0.800827 -1.8194904,2.178251 v 10.29864 H -2.0968447 V 25.381378 h 3.2261553 l 0.091739,2.402483 q 0.4739849,-0.624646 0.9785495,-1.137176 0.5198544,-0.512529 1.1161579,-0.864893 0.5963036,-0.368381 1.2843462,-0.560579 0.6880427,-0.192199 1.5442734,-0.192199 1.1926072,0 2.0794177,0.41643 0.8868105,0.400414 1.4831141,1.153192 0.5963035,0.736761 0.8868105,1.793853 0.305796,1.041076 0.305796,2.338416 v 10.923286 z"
       style="font-style:normal;font-variant:normal;font-weight:bold;font-stretch:normal;font-size:32.0491px;line-height:1.25;font-family:Consolas;-inkscape-font-specification:'Consolas, Bold';font-variant-ligatures:normal;font-variant-caps:normal;font-variant-numeric:normal;font-variant-east-asian:normal;fill:#000000;fill-opacity:1;stroke:none;stroke-width:0.801227"
       id="path899" />
    <path
       d="m 45.209914,41.494025 q -1.00913,0.240249 -2.033549,0.384398 -1.024419,0.144149 -1.941808,0.144149 -1.528985,0 -2.645142,-0.336348 -1.100869,-0.336347 -1.834781,-1.025059 -0.718622,-0.688711 -1.070288,-1.745803 -0.336377,-1.07311 -0.336377,-2.546632 v -7.944207 h -4.174124 v -3.043145 h 4.174124 V 21.217075 L 39.170428,20.176 v 5.205378 h 6.039486 v 3.043145 h -6.039486 v 7.655909 q 0,1.39344 0.611594,2.114185 0.611593,0.704728 2.048838,0.704728 0.91739,0 1.78891,-0.160166 0.871521,-0.160165 1.590144,-0.368381 z"
       style="font-style:normal;font-variant:normal;font-weight:bold;font-stretch:normal;font-size:32.0491px;line-height:1.25;font-family:Consolas;-inkscape-font-specification:'Consolas, Bold';font-variant-ligatures:normal;font-variant-caps:normal;font-variant-numeric:normal;font-variant-east-asian:normal;fill:#000000;fill-opacity:1;stroke:none;stroke-width:0.801227"
       id="path901" />
    <path
       d="m 63.634161,33.389653 q 0,1.921984 -0.519854,3.52364 -0.519855,1.585638 -1.498404,2.722812 -0.97855,1.137176 -2.400504,1.761822 -1.421955,0.624645 -3.241446,0.624645 -1.727751,0 -3.088546,-0.528547 -1.360796,-0.528546 -2.308766,-1.569621 -0.947969,-1.057092 -1.452534,-2.626714 -0.504564,-1.585638 -0.504564,-3.683806 0,-1.938003 0.519854,-3.523641 0.535144,-1.585639 1.513693,-2.706797 0.99384,-1.121158 2.415794,-1.729787 1.421956,-0.624645 3.210866,-0.624645 1.743042,0 3.103837,0.544562 1.360795,0.528546 2.308765,1.585639 0.94797,1.057092 1.437244,2.626713 0.504565,1.553606 0.504565,3.603725 z m -3.883618,0.09609 q 0,-2.530615 -0.917391,-3.795921 -0.9021,-1.281324 -2.67572,-1.281324 -0.97855,0 -1.666592,0.400413 -0.688043,0.400414 -1.131448,1.105142 -0.443405,0.688712 -0.657463,1.617672 -0.198768,0.928959 -0.198768,1.986051 0,2.546631 0.97855,3.843972 0.978549,1.281324 2.675721,1.281324 0.932679,0 1.620722,-0.384397 0.688043,-0.400414 1.116158,-1.089126 0.428116,-0.704727 0.642173,-1.649704 0.214058,-0.944976 0.214058,-2.034102 z"
       style="font-style:normal;font-variant:normal;font-weight:bold;font-stretch:normal;font-size:32.0491px;line-height:1.25;font-family:Consolas;-inkscape-font-specification:'Consolas, Bold';font-variant-ligatures:normal;font-variant-caps:normal;font-variant-numeric:normal;font-variant-east-asian:normal;fill:#000000;fill-opacity:1;stroke:none;stroke-width:0.801227"
       id="path903" />
    <path
       d="m 89.152889,22.065953 h -4.388183 v -3.043144 h 8.210641 v 19.588238 h 4.479923 v 3.043144 H 84.229561 v -3.043144 h 4.923328 z"
       style="font-style:normal;font-variant:normal;font-weight:bold;font-stretch:normal;font-size:32.0491px;line-height:1.25;font-family:Consolas;-inkscape-font-specification:'Consolas, Bold';font-variant-ligatures:normal;font-variant-caps:normal;font-variant-numeric:normal;font-variant-east-asian:normal;fill:#000000;fill-opacity:1;stroke:none;stroke-width:0.801227"
       id="path905" />
    <path
       d="m 110.52808,20.928778 q 0,0.528546 -0.18348,0.993026 -0.18348,0.464479 -0.51986,0.816844 -0.32108,0.336347 -0.76449,0.544562 -0.44341,0.192199 -0.96326,0.192199 -0.51986,0 -0.97854,-0.192199 -0.44342,-0.208215 -0.77979,-0.544562 -0.32109,-0.352365 -0.50457,-0.816844 -0.18348,-0.46448 -0.18348,-0.993026 0,-0.528546 0.18348,-0.993027 0.18348,-0.464479 0.50457,-0.816843 0.33637,-0.352365 0.77979,-0.544562 0.45868,-0.208216 0.97854,-0.208216 0.51985,0 0.96326,0.208216 0.44341,0.192197 0.76449,0.544562 0.33638,0.352364 0.51986,0.816843 0.18348,0.464481 0.18348,0.993027 z m -4.12826,7.495745 h -4.38818 v -3.043145 h 8.21064 v 13.229669 h 4.47992 v 3.043144 h -13.22571 v -3.043144 h 4.92333 z"
       style="font-style:normal;font-variant:normal;font-weight:bold;font-stretch:normal;font-size:32.0491px;line-height:1.25;font-family:Consolas;-inkscape-font-specification:'Consolas, Bold';font-variant-ligatures:normal;font-variant-caps:normal;font-variant-numeric:normal;font-variant-east-asian:normal;fill:#000000;fill-opacity:1;stroke:none;stroke-width:0.801227"
       id="path907" />
    <path
       d="m 128.24899,41.654191 -5.73369,-8.136407 v 8.136407 h -3.73072 V 19.022809 h 3.73072 v 13.245684 l 5.42789,-6.887115 h 4.6634 l -6.29941,7.415662 6.81927,8.857151 z"
       style="font-style:normal;font-variant:normal;font-weight:bold;font-stretch:normal;font-size:32.0491px;line-height:1.25;font-family:Consolas;-inkscape-font-specification:'Consolas, Bold';font-variant-ligatures:normal;font-variant-caps:normal;font-variant-numeric:normal;font-variant-east-asian:normal;fill:#000000;fill-opacity:1;stroke:none;stroke-width:0.801227"
       id="path909" />
    <path
       d="m 149.41012,32.268493 q 0,0.400415 -0.0306,1.041077 -0.0152,0.640662 -0.0612,1.201241 h -10.21361 q 0,1.073108 0.3058,1.889953 0.32108,0.816843 0.88681,1.377422 0.58101,0.544563 1.37608,0.832861 0.81036,0.288298 1.78891,0.288298 1.13145,0 2.4158,-0.176182 1.29963,-0.192199 2.69101,-0.608629 v 3.10721 q -0.5963,0.176183 -1.29964,0.320331 -0.70333,0.144149 -1.43724,0.256265 -0.73391,0.112116 -1.48312,0.160166 -0.7492,0.06407 -1.45253,0.06407 -1.77362,0 -3.18029,-0.528547 -1.40667,-0.528546 -2.38521,-1.553605 -0.97855,-1.041075 -1.49841,-2.562647 -0.51985,-1.521572 -0.51985,-3.523641 0,-1.986052 0.51985,-3.603723 0.51986,-1.633688 1.46783,-2.78688 0.94797,-1.169208 2.29348,-1.793853 1.36079,-0.640662 3.02738,-0.640662 1.6513,0 2.92036,0.544563 1.26905,0.528545 2.12529,1.489539 0.85623,0.960992 1.29963,2.290366 0.44341,1.329374 0.44341,2.915011 z m -3.79188,-0.560579 q 0.0152,-0.960992 -0.22935,-1.66572 -0.24463,-0.720745 -0.67275,-1.185225 -0.41283,-0.46448 -0.97855,-0.688712 -0.55043,-0.224232 -1.19261,-0.224232 -1.40667,0 -2.30877,0.993027 -0.90209,0.977009 -1.07028,2.770862 z"
       style="font-style:normal;font-variant:normal;font-weight:bold;font-stretch:normal;font-size:32.0491px;line-height:1.25;font-family:Consolas;-inkscape-font-specification:'Consolas, Bold';font-variant-ligatures:normal;font-variant-caps:normal;font-variant-numeric:normal;font-variant-east-asian:normal;fill:#000000;fill-opacity:1;stroke:none;stroke-width:0.801227"
       id="path911" />
  </g>
</svg>
