<?xml version="1.0" encoding="UTF-8" standalone="no"?>
<svg
   xmlns:dc="http://purl.org/dc/elements/1.1/"
   xmlns:cc="http://creativecommons.org/ns#"
   xmlns:rdf="http://www.w3.org/1999/02/22-rdf-syntax-ns#"
   xmlns:svg="http://www.w3.org/2000/svg"
   xmlns="http://www.w3.org/2000/svg"
   id="svg8"
   version="1.1"
   viewBox="0 0 12.589224 14.912694"
   height="14.912694mm"
   width="12.589224mm">
  <defs
     id="defs2" />
  <metadata
     id="metadata5">
    <rdf:RDF>
      <cc:Work
         rdf:about="">
        <dc:format>image/svg+xml</dc:format>
        <dc:type
           rdf:resource="http://purl.org/dc/dcmitype/StillImage" />
        <dc:title></dc:title>
      </cc:Work>
    </rdf:RDF>
  </metadata>
  <g
     transform="translate(-118.58813,-100.09632)"
     id="layer1">
    <g
       transform="matrix(0.1996,0,0,0.1996,103.57369,86.53405)"
       style="fill:#000000;stroke-width:2505.01002004;stroke-miterlimit:4;stroke-dasharray:none"
       id="g935">
      <g
         id="g907"
         style="fill:#000000;stroke-width:2505.01002004;stroke-miterlimit:4;stroke-dasharray:none">
        <path
           d="m 106.75989,91.759772 c -6.835836,5e-6 -12.929891,3.881376 -17.18758,9.816458 -4.257688,5.93507 -6.808888,13.97264 -6.808888,22.81049 1.4e-5,0.49908 0.0094,0.99777 0.02635,1.49552 a 29.36875,9.2604168 0 0 1 4.14755,-1.48208 c -3e-6,-0.004 0,-0.009 0,-0.0134 0,-8.02894 2.353773,-15.26089 6.025473,-20.37912 3.671699,-5.118228 8.533085,-8.073923 13.797095,-8.073928 5.264,0 10.12487,2.9557 13.79657,8.073928 3.67171,5.11823 6.02547,12.35018 6.02547,20.37912 0,0.005 1e-5,0.009 0,0.0139 a 29.36875,9.2604168 0 0 1 4.146,1.48156 c 0.0168,-0.49774 0.0258,-0.99644 0.0259,-1.49551 0,-8.83785 -2.54862,-16.87542 -6.8063,-22.81049 -4.25769,-5.935085 -10.35175,-9.816462 -17.18758,-9.816462 z"
           style="color:#000000;font-style:normal;font-variant:normal;font-weight:normal;font-stretch:normal;font-size:medium;line-height:normal;font-family:sans-serif;font-variant-ligatures:normal;font-variant-position:normal;font-variant-caps:normal;font-variant-numeric:normal;font-variant-alternates:normal;font-variant-east-asian:normal;font-feature-settings:normal;font-variation-settings:normal;text-indent:0;text-align:start;text-decoration:none;text-decoration-line:none;text-decoration-style:solid;text-decoration-color:#000000;letter-spacing:normal;word-spacing:normal;text-transform:none;writing-mode:lr-tb;direction:ltr;text-orientation:mixed;dominant-baseline:auto;baseline-shift:baseline;text-anchor:start;white-space:normal;shape-padding:0;shape-margin:0;inline-size:0;clip-rule:nonzero;display:inline;overflow:visible;visibility:visible;isolation:auto;mix-blend-mode:normal;color-interpolation:sRGB;color-interpolation-filters:linearRGB;solid-color:#000000;solid-opacity:1;vector-effect:none;fill:#000000;fill-opacity:1;fill-rule:evenodd;stroke:none;stroke-width:2505.01002004;stroke-linecap:round;stroke-linejoin:miter;stroke-miterlimit:4;stroke-dasharray:none;stroke-dashoffset:0;stroke-opacity:1;paint-order:fill markers stroke;color-rendering:auto;image-rendering:auto;shape-rendering:auto;text-rendering:auto;enable-background:accumulate;stop-color:#000000"
           id="path847" />
        <path
           style="color:#000000;font-style:normal;font-variant:normal;font-weight:normal;font-stretch:normal;font-size:medium;line-height:normal;font-family:sans-serif;font-variant-ligatures:normal;font-variant-position:normal;font-variant-caps:normal;font-variant-numeric:normal;font-variant-alternates:normal;font-variant-east-asian:normal;font-feature-settings:normal;font-variation-settings:normal;text-indent:0;text-align:start;text-decoration:none;text-decoration-line:none;text-decoration-style:solid;text-decoration-color:#000000;letter-spacing:normal;word-spacing:normal;text-transform:none;writing-mode:lr-tb;direction:ltr;text-orientation:mixed;dominant-baseline:auto;baseline-shift:baseline;text-anchor:start;white-space:normal;shape-padding:0;shape-margin:0;inline-size:0;clip-rule:nonzero;display:inline;overflow:visible;visibility:visible;isolation:auto;mix-blend-mode:normal;color-interpolation:sRGB;color-interpolation-filters:linearRGB;solid-color:#000000;solid-opacity:1;vector-effect:none;fill:#000000;fill-opacity:1;fill-rule:evenodd;stroke:none;stroke-width:2505.01002004;stroke-linecap:round;stroke-linejoin:miter;stroke-miterlimit:4;stroke-dasharray:none;stroke-dashoffset:0;stroke-opacity:1;paint-order:fill markers stroke;color-rendering:auto;image-rendering:auto;shape-rendering:auto;text-rendering:auto;enable-background:accumulate;stop-color:#000000"
           d="m 106.75781,119.80664 c -8.294588,0 -15.801777,1.04163 -21.417966,2.8125 -2.808095,0.88544 -5.148068,1.93748 -6.9375,3.27148 -1.789432,1.33401 -3.179682,3.13466 -3.179688,5.3418 -2e-6,2.20714 1.390257,4.00975 3.179688,5.34375 1.789431,1.334 4.129405,2.38605 6.9375,3.27149 5.61619,1.77087 13.123372,2.8125 21.417966,2.8125 8.2946,0 15.80373,-1.04163 21.41992,-2.8125 2.8081,-0.88544 5.14807,-1.93749 6.9375,-3.27149 1.42708,-1.06387 2.39,-2.50193 2.80665,-4.1289 a 2.1670001,2.1670001 0 0 0 0.37304,-1.21485 2.1670001,2.1670001 0 0 0 -0.37109,-1.21094 c -0.41587,-1.6285 -1.38051,-3.06623 -2.8086,-4.13086 -1.78943,-1.334 -4.1294,-2.38604 -6.9375,-3.27148 -5.61618,-1.77087 -13.12533,-2.8125 -21.41992,-2.8125 z m 0,4.33398 c 7.92532,0 15.10203,1.03059 20.11524,2.61133 2.5066,0.79037 4.46754,1.73148 5.65039,2.61328 1.18285,0.8818 1.4375,1.51714 1.4375,1.86719 0,0.35006 -0.25466,0.98539 -1.4375,1.86719 -1.18285,0.8818 -3.14379,1.82486 -5.65039,2.61523 -5.01321,1.58075 -12.18992,2.61133 -20.11524,2.61133 -7.925318,0 -15.102025,-1.03058 -20.115232,-2.61133 -2.506603,-0.79037 -4.467543,-1.73343 -5.65039,-2.61523 -1.182848,-0.8818 -1.435548,-1.51713 -1.435547,-1.86719 0,-0.35005 0.252697,-0.98539 1.435547,-1.86719 1.182849,-0.8818 3.143787,-1.82291 5.65039,-2.61328 5.013207,-1.58074 12.18992,-2.61133 20.115232,-2.61133 z"
           id="path884" />
        <g
           id="g886"
           style="fill:#000000;stroke-width:2505.01002004;stroke-miterlimit:4;stroke-dasharray:none">
          <path
             style="color:#000000;font-style:normal;font-variant:normal;font-weight:normal;font-stretch:normal;font-size:medium;line-height:normal;font-family:sans-serif;font-variant-ligatures:normal;font-variant-position:normal;font-variant-caps:normal;font-variant-numeric:normal;font-variant-alternates:normal;font-variant-east-asian:normal;font-feature-settings:normal;font-variation-settings:normal;text-indent:0;text-align:start;text-decoration:none;text-decoration-line:none;text-decoration-style:solid;text-decoration-color:#000000;letter-spacing:normal;word-spacing:normal;text-transform:none;writing-mode:lr-tb;direction:ltr;text-orientation:mixed;dominant-baseline:auto;baseline-shift:baseline;text-anchor:start;white-space:normal;shape-padding:0;shape-margin:0;inline-size:0;clip-rule:nonzero;display:inline;overflow:visible;visibility:visible;isolation:auto;mix-blend-mode:normal;color-interpolation:sRGB;color-interpolation-filters:linearRGB;solid-color:#000000;solid-opacity:1;vector-effect:none;fill:#000000;fill-opacity:1;fill-rule:evenodd;stroke:none;stroke-width:2505.01002004;stroke-linecap:round;stroke-linejoin:miter;stroke-miterlimit:4;stroke-dasharray:none;stroke-dashoffset:0;stroke-opacity:1;paint-order:fill markers stroke;color-rendering:auto;image-rendering:auto;shape-rendering:auto;text-rendering:auto;enable-background:accumulate;stop-color:#000000;stop-opacity:1"
             d="m 119.45515,130.57188 c 0,4.23531 -3.07802,7.66871 -6.87495,7.66871 -3.79693,0 -6.87495,-3.4334 -6.87495,-7.66871 0,-4.23531 3.07802,-7.6687 6.87495,-7.6687 3.79693,0 6.87495,3.43339 6.87495,7.6687"
             id="path888" />
          <path
             style="color:#000000;font-style:normal;font-variant:normal;font-weight:normal;font-stretch:normal;font-size:medium;line-height:normal;font-family:sans-serif;font-variant-ligatures:normal;font-variant-position:normal;font-variant-caps:normal;font-variant-numeric:normal;font-variant-alternates:normal;font-variant-east-asian:normal;font-feature-settings:normal;font-variation-settings:normal;text-indent:0;text-align:start;text-decoration:none;text-decoration-line:none;text-decoration-style:solid;text-decoration-color:#000000;letter-spacing:normal;word-spacing:normal;text-transform:none;writing-mode:lr-tb;direction:ltr;text-orientation:mixed;dominant-baseline:auto;baseline-shift:baseline;text-anchor:start;white-space:normal;shape-padding:0;shape-margin:0;inline-size:0;clip-rule:nonzero;display:inline;overflow:visible;visibility:visible;isolation:auto;mix-blend-mode:normal;color-interpolation:sRGB;color-interpolation-filters:linearRGB;solid-color:#000000;solid-opacity:1;vector-effect:none;fill:#000000;fill-opacity:1;fill-rule:evenodd;stroke:none;stroke-width:2505.01002004;stroke-linecap:round;stroke-linejoin:miter;stroke-miterlimit:4;stroke-dasharray:none;stroke-dashoffset:0;stroke-opacity:1;paint-order:fill markers stroke;color-rendering:auto;image-rendering:auto;shape-rendering:auto;text-rendering:auto;enable-background:accumulate;stop-color:#000000;stop-opacity:1"
             d="m 112.58008,120.07031 c -5.50457,10e-6 -9.70703,4.89421 -9.70703,10.50196 -1e-5,5.60774 4.20245,10.50195 9.70703,10.50195 5.15636,0 9.03229,-4.33557 9.51953,-9.48828 a 2.832675,2.832675 0 0 0 0.1875,-1.01367 2.832675,2.832675 0 0 0 -0.1875,-1.01758 c -0.48869,-5.1512 -4.36431,-9.48438 -9.51953,-9.48438 z m 0,5.66602 c 2.08929,0 4.04297,1.97307 4.04297,4.83594 0,2.86287 -1.95368,4.83593 -4.04297,4.83593 -2.08929,0 -4.04297,-1.97306 -4.04297,-4.83593 0,-2.86287 1.95368,-4.83594 4.04297,-4.83594 z"
             id="path890" />
        </g>
      </g>
      <path
         style="color:#000000;font-style:normal;font-variant:normal;font-weight:normal;font-stretch:normal;font-size:medium;line-height:normal;font-family:sans-serif;font-variant-ligatures:normal;font-variant-position:normal;font-variant-caps:normal;font-variant-numeric:normal;font-variant-alternates:normal;font-variant-east-asian:normal;font-feature-settings:normal;font-variation-settings:normal;text-indent:0;text-align:start;text-decoration:none;text-decoration-line:none;text-decoration-style:solid;text-decoration-color:#000000;letter-spacing:normal;word-spacing:normal;text-transform:none;writing-mode:lr-tb;direction:ltr;text-orientation:mixed;dominant-baseline:auto;baseline-shift:baseline;text-anchor:start;white-space:normal;shape-padding:0;shape-margin:0;inline-size:0;clip-rule:nonzero;display:inline;overflow:visible;visibility:visible;opacity:1;isolation:auto;mix-blend-mode:normal;color-interpolation:sRGB;color-interpolation-filters:linearRGB;solid-color:#000000;solid-opacity:1;vector-effect:none;fill:#000000;fill-opacity:1;fill-rule:evenodd;stroke:none;stroke-width:2505.01002004;stroke-linecap:round;stroke-linejoin:miter;stroke-miterlimit:4;stroke-dasharray:none;stroke-dashoffset:0;stroke-opacity:1;paint-order:fill markers stroke;color-rendering:auto;image-rendering:auto;shape-rendering:auto;text-rendering:auto;enable-background:accumulate;stop-color:#000000;stop-opacity:1"
         d="m 106.75781,67.947266 c -2.54835,-3e-6 -4.58619,1.668565 -5.82617,3.695312 -1.239974,2.026747 -1.896484,4.568191 -1.896484,7.335938 0,2.767746 0.65651,5.307237 1.896484,7.333984 1.23998,2.026747 3.27977,3.695315 5.82813,3.695312 2.54835,3e-6 4.58619,-1.668565 5.82617,-3.695312 1.23997,-2.026747 1.89648,-4.566238 1.89648,-7.333984 0,-2.767747 -0.65651,-5.309191 -1.89648,-7.335938 -1.23998,-2.026747 -3.27977,-3.695315 -5.82813,-3.695312 z m 0,5.021484 c 0.33036,0 0.89839,0.238155 1.54492,1.294922 0.64654,1.056766 1.15821,2.777305 1.15821,4.714844 0,1.937538 -0.51167,3.656124 -1.15821,4.71289 -0.64653,1.056767 -1.2126,1.294922 -1.54296,1.294922 -0.33037,0 -0.89839,-0.238155 -1.54493,-1.294922 -0.64653,-1.056766 -1.1582,-2.775352 -1.1582,-4.71289 0,-1.937539 0.51167,-3.658078 1.1582,-4.714844 0.64654,-1.056767 1.21261,-1.294922 1.54297,-1.294922 z"
         id="path917" />
      <g
         id="g919"
         style="opacity:1;fill:#000000;stroke-width:2505.01002004;stroke-miterlimit:4;stroke-dasharray:none">
        <path
           style="color:#000000;font-style:normal;font-variant:normal;font-weight:normal;font-stretch:normal;font-size:medium;line-height:normal;font-family:sans-serif;font-variant-ligatures:normal;font-variant-position:normal;font-variant-caps:normal;font-variant-numeric:normal;font-variant-alternates:normal;font-variant-east-asian:normal;font-feature-settings:normal;font-variation-settings:normal;text-indent:0;text-align:start;text-decoration:none;text-decoration-line:none;text-decoration-style:solid;text-decoration-color:#000000;letter-spacing:normal;word-spacing:normal;text-transform:none;writing-mode:lr-tb;direction:ltr;text-orientation:mixed;dominant-baseline:auto;baseline-shift:baseline;text-anchor:start;white-space:normal;shape-padding:0;shape-margin:0;inline-size:0;clip-rule:nonzero;display:inline;overflow:visible;visibility:visible;isolation:auto;mix-blend-mode:normal;color-interpolation:sRGB;color-interpolation-filters:linearRGB;solid-color:#000000;solid-opacity:1;vector-effect:none;fill:#000000;fill-opacity:1;fill-rule:evenodd;stroke:none;stroke-width:2505.01002004;stroke-linecap:round;stroke-linejoin:miter;stroke-miterlimit:4;stroke-dasharray:none;stroke-dashoffset:0;stroke-opacity:1;paint-order:fill markers stroke;color-rendering:auto;image-rendering:auto;shape-rendering:auto;text-rendering:auto;enable-background:accumulate;stop-color:#000000;stop-opacity:1"
           d="m 108.87663,90.065292 c 0,1.520331 -1.03664,2.752802 -2.3154,2.752796 -1.27875,-10e-7 -2.31539,-1.232469 -2.31539,-2.752796 0,-1.520326 1.03664,-2.752794 2.31539,-2.752795 1.27876,-6e-6 2.3154,1.232464 2.3154,2.752795 z"
           id="path921" />
        <path
           style="color:#000000;font-style:normal;font-variant:normal;font-weight:normal;font-stretch:normal;font-size:medium;line-height:normal;font-family:sans-serif;font-variant-ligatures:normal;font-variant-position:normal;font-variant-caps:normal;font-variant-numeric:normal;font-variant-alternates:normal;font-variant-east-asian:normal;font-feature-settings:normal;font-variation-settings:normal;text-indent:0;text-align:start;text-decoration:none;text-decoration-line:none;text-decoration-style:solid;text-decoration-color:#000000;letter-spacing:normal;word-spacing:normal;text-transform:none;writing-mode:lr-tb;direction:ltr;text-orientation:mixed;dominant-baseline:auto;baseline-shift:baseline;text-anchor:start;white-space:normal;shape-padding:0;shape-margin:0;inline-size:0;clip-rule:nonzero;display:inline;overflow:visible;visibility:visible;isolation:auto;mix-blend-mode:normal;color-interpolation:sRGB;color-interpolation-filters:linearRGB;solid-color:#000000;solid-opacity:1;vector-effect:none;fill:#000000;fill-opacity:1;fill-rule:evenodd;stroke:none;stroke-width:2505.01002004;stroke-linecap:round;stroke-linejoin:miter;stroke-miterlimit:4;stroke-dasharray:none;stroke-dashoffset:0;stroke-opacity:1;paint-order:fill markers stroke;color-rendering:auto;image-rendering:auto;shape-rendering:auto;text-rendering:auto;enable-background:accumulate;stop-color:#000000;stop-opacity:1"
           d="m 106.56055,85.144531 c -2.67113,2e-6 -4.48242,2.414547 -4.48243,4.919922 0,2.505376 1.81129,4.91992 4.48243,4.919922 2.67114,1.2e-5 4.48242,-2.414539 4.48242,-4.919922 0,-2.505382 -1.81128,-4.919933 -4.48242,-4.919922 z m 0,4.335938 c -0.11363,0 0.14843,0.0487 0.14843,0.583984 0,0.53528 -0.26206,0.585937 -0.14843,0.585938 0.11362,0 -0.14844,-0.05066 -0.14844,-0.585938 0,-0.535277 0.26206,-0.583984 0.14844,-0.583984 z"
           id="path923" />
      </g>
    </g>
  </g>
</svg>
