<?xml version="1.0" encoding="UTF-8" standalone="no"?>
<svg
   xmlns:dc="http://purl.org/dc/elements/1.1/"
   xmlns:cc="http://creativecommons.org/ns#"
   xmlns:rdf="http://www.w3.org/1999/02/22-rdf-syntax-ns#"
   xmlns:svg="http://www.w3.org/2000/svg"
   xmlns="http://www.w3.org/2000/svg"
   xmlns:sodipodi="http://sodipodi.sourceforge.net/DTD/sodipodi-0.dtd"
   xmlns:inkscape="http://www.inkscape.org/namespaces/inkscape"
   shape-rendering="crispEdges"
   viewBox="0 0 89.22042 93.887115"
   height="93.887115"
   width="89.220421"
   id="svg833"
   version="1.1"
   sodipodi:docname="bunny-ears-down.svg"
   inkscape:version="1.0 (4035a4fb49, 2020-05-01)">
  <sodipodi:namedview
     fit-margin-bottom="0"
     fit-margin-right="0"
     fit-margin-left="0"
     fit-margin-top="0"
     inkscape:document-rotation="0"
     pagecolor="#ffffff"
     bordercolor="#666666"
     borderopacity="1"
     objecttolerance="10"
     gridtolerance="10"
     guidetolerance="10"
     inkscape:pageopacity="0"
     inkscape:pageshadow="2"
     inkscape:window-width="1920"
     inkscape:window-height="1017"
     id="namedview2967"
     showgrid="false"
     inkscape:zoom="4.0897605"
     inkscape:cx="42.897982"
     inkscape:cy="49.219738"
     inkscape:window-x="-8"
     inkscape:window-y="-8"
     inkscape:window-maximized="1"
     inkscape:current-layer="svg833" />
  <metadata
     id="metadata839">
    <rdf:RDF>
      <cc:Work
         rdf:about="">
        <dc:format>image/svg+xml</dc:format>
        <dc:type
           rdf:resource="http://purl.org/dc/dcmitype/StillImage" />
        <dc:title></dc:title>
      </cc:Work>
    </rdf:RDF>
  </metadata>
  <defs
     id="defs837">
    <filter
       height="1.0001014"
       y="-5.0758885e-05"
       width="1.0000426"
       x="-2.1292142e-05"
       id="filter1094"
       style="color-interpolation-filters:sRGB">
      <feGaussianBlur
         id="feGaussianBlur1096"
         stdDeviation="0.0091378778" />
    </filter>
  </defs>
  <g
     transform="translate(0.001947,1.826287)"
     id="g970">
    <g
       style="filter:url(#filter1094)"
       id="g1679"
       transform="rotate(-17.564478,-1298.6894,-2314.9896)">
      <path
         id="path1681"
         d="m -729.02497,309.08465 c 0,7.69354 0.52614,9.62553 -4.08979,9.62553 -2.98118,0 -3.23954,0.45087 -9.26876,-8.02117 -1.6787,-2.35884 -3.54539,-5.09123 -3.54539,-7.81594 0,-7.69355 -2.78613,-10.59369 1.82979,-10.59369 4.61593,0 15.07415,9.11172 15.07415,16.80527 z"
         style="color:#000000;font-style:normal;font-variant:normal;font-weight:normal;font-stretch:normal;font-size:medium;line-height:normal;font-family:sans-serif;font-variant-ligatures:normal;font-variant-position:normal;font-variant-caps:normal;font-variant-numeric:normal;font-variant-alternates:normal;font-variant-east-asian:normal;font-feature-settings:normal;font-variation-settings:normal;text-indent:0;text-align:start;text-decoration:none;text-decoration-line:none;text-decoration-style:solid;text-decoration-color:#000000;letter-spacing:normal;word-spacing:normal;text-transform:none;writing-mode:lr-tb;direction:ltr;text-orientation:mixed;dominant-baseline:auto;baseline-shift:baseline;text-anchor:start;white-space:normal;shape-padding:0;shape-margin:0;inline-size:0;clip-rule:nonzero;display:inline;overflow:visible;visibility:visible;isolation:auto;mix-blend-mode:normal;color-interpolation:sRGB;color-interpolation-filters:linearRGB;solid-color:#000000;solid-opacity:1;vector-effect:none;fill:#f27795;fill-opacity:1;fill-rule:evenodd;stroke:none;stroke-width:1;stroke-linecap:round;stroke-linejoin:miter;stroke-miterlimit:4;stroke-dasharray:none;stroke-dashoffset:0;stroke-opacity:1;paint-order:fill markers stroke;color-rendering:auto;image-rendering:auto;shape-rendering:auto;text-rendering:auto;enable-background:accumulate;stop-color:#000000;stop-opacity:1" />
      <path
         id="path1683"
         d="m -744.09961,291.7793 c -1.20634,0 -2.04526,0.17417 -2.58789,0.72265 -0.54263,0.54848 -0.61995,1.33135 -0.55664,2.22461 0.12662,1.78653 0.81445,4.36007 0.81445,8.14649 0,2.95307 1.95574,5.74068 3.63867,8.10547 3.019,4.24218 4.58057,6.26205 5.87305,7.28906 0.64624,0.5135 1.25154,0.77052 1.86328,0.87304 0.61174,0.10253 1.20676,0.0703 1.93946,0.0703 1.18886,0 2.09277,-0.11595 2.81054,-0.47656 0.71778,-0.36062 1.19352,-0.99441 1.44336,-1.80469 0.49969,-1.62057 0.33594,-4.01033 0.33594,-7.84571 0,-4.07333 -2.70181,-8.34234 -5.94922,-11.63867 -1.6237,-1.64816 -3.39105,-3.05014 -5.06445,-4.05078 -1.6734,-1.00064 -3.24207,-1.61523 -4.56055,-1.61523 z m 0,1 c 0.98949,0 2.46113,0.52443 4.04688,1.47265 1.58574,0.94823 3.29739,2.30503 4.86523,3.89649 3.13568,3.18292 5.66211,7.31533 5.66211,10.93554 0,3.85817 0.10021,6.28197 -0.29102,7.55079 -0.19561,0.6344 -0.45374,0.96497 -0.93554,1.20703 -0.48181,0.24206 -1.24418,0.36914 -2.36328,0.36914 -0.7579,0 -1.31182,0.0211 -1.77539,-0.0566 -0.46358,-0.0777 -0.85965,-0.23714 -1.4043,-0.66992 -1.08931,-0.86557 -2.67142,-2.85609 -5.68164,-7.08594 -1.67447,-2.35289 -3.45313,-5.02905 -3.45313,-7.52539 0,-3.90713 -0.70393,-6.62987 -0.8164,-8.2168 -0.0562,-0.79346 0.0363,-1.21545 0.26953,-1.45117 0.2332,-0.23572 0.77533,-0.42578 1.87695,-0.42578 z"
         style="color:#000000;font-style:normal;font-variant:normal;font-weight:normal;font-stretch:normal;font-size:medium;line-height:normal;font-family:sans-serif;font-variant-ligatures:normal;font-variant-position:normal;font-variant-caps:normal;font-variant-numeric:normal;font-variant-alternates:normal;font-variant-east-asian:normal;font-feature-settings:normal;font-variation-settings:normal;text-indent:0;text-align:start;text-decoration:none;text-decoration-line:none;text-decoration-style:solid;text-decoration-color:#000000;letter-spacing:normal;word-spacing:normal;text-transform:none;writing-mode:lr-tb;direction:ltr;text-orientation:mixed;dominant-baseline:auto;baseline-shift:baseline;text-anchor:start;white-space:normal;shape-padding:0;shape-margin:0;inline-size:0;clip-rule:nonzero;display:inline;overflow:visible;visibility:visible;isolation:auto;mix-blend-mode:normal;color-interpolation:sRGB;color-interpolation-filters:linearRGB;solid-color:#000000;solid-opacity:1;vector-effect:none;fill:#000000;fill-opacity:1;fill-rule:evenodd;stroke:none;stroke-width:1;stroke-linecap:round;stroke-linejoin:miter;stroke-miterlimit:4;stroke-dasharray:none;stroke-dashoffset:0;stroke-opacity:1;paint-order:fill markers stroke;color-rendering:auto;image-rendering:auto;shape-rendering:auto;text-rendering:auto;enable-background:accumulate;stop-color:#000000;stop-opacity:1" />
    </g>
    <path
       d="M 53.09124,15.99096 C 50.92119,25.81133 42.5463,29.72033 39.65527,27.5933 36.76424,25.46627 39.25224,17.17485 45.21238,9.0739 51.17251,0.97294 57.67134,0.27528 60.56237,2.40231 63.4534,4.52933 55.03885,7.17716 53.09124,15.99096 Z"
       style="fill:#f27795;fill-opacity:1;fill-rule:evenodd;stroke:#000000;stroke-width:1;stroke-linecap:round;stroke-miterlimit:4;stroke-dasharray:none;stroke-opacity:1;paint-order:fill markers stroke;filter:url(#filter1094)"
       id="path1258"
       transform="rotate(13.109459,49.065322,22.396518)" />
    <g
       style="filter:url(#filter1094)"
       id="g1685"
       transform="translate(766.73998,-291.7793)">
      <path
         id="path1687"
         d="m -695.58719,369.40818 c 0,19.11654 -3.22927,12.04172 -28.91471,13.15381 -15.44358,0.66864 -35.23153,2.09983 -40.17489,-2.20989 -1.45648,-1.26979 -1.23325,-2.57139 -1.42659,-3.96153 -0.35503,-2.55243 0.0371,-5.18401 0.53491,-7.71248 0.31263,-1.58819 0.82757,-3.14965 1.52517,-4.61028 2.16757,-4.53832 6.08011,-11.39527 8.16326,-12.68914 2.81968,-5.08232 3.84625,-13.68994 8.35959,-16.93429 6.25187,-4.13469 12.89902,-4.37611 21.21199,-4.37611 12.45015,0 8.34292,22.67914 15.77543,30.69988 2.67065,2.88201 7.69848,4.07755 11.54843,4.60465 2.3727,0.32485 4.03128,-0.0932 5.20979,0.9303 0.7767,0.67456 -1.81238,1.54645 -1.81238,3.10508 z"
         style="color:#000000;font-style:normal;font-variant:normal;font-weight:normal;font-stretch:normal;font-size:medium;line-height:normal;font-family:sans-serif;font-variant-ligatures:normal;font-variant-position:normal;font-variant-caps:normal;font-variant-numeric:normal;font-variant-alternates:normal;font-variant-east-asian:normal;font-feature-settings:normal;font-variation-settings:normal;text-indent:0;text-align:start;text-decoration:none;text-decoration-line:none;text-decoration-style:solid;text-decoration-color:#000000;letter-spacing:normal;word-spacing:normal;text-transform:none;writing-mode:lr-tb;direction:ltr;text-orientation:mixed;dominant-baseline:auto;baseline-shift:baseline;text-anchor:start;white-space:normal;shape-padding:0;shape-margin:0;inline-size:0;clip-rule:nonzero;display:inline;overflow:visible;visibility:visible;isolation:auto;mix-blend-mode:normal;color-interpolation:sRGB;color-interpolation-filters:linearRGB;solid-color:#000000;solid-opacity:1;vector-effect:none;fill:#f27795;fill-opacity:1;fill-rule:evenodd;stroke:none;stroke-width:1;stroke-linecap:round;stroke-linejoin:miter;stroke-miterlimit:4;stroke-dasharray:none;stroke-dashoffset:0;stroke-opacity:1;paint-order:fill markers stroke;color-rendering:auto;image-rendering:auto;shape-rendering:auto;text-rendering:auto;enable-background:accumulate;stop-color:#000000;stop-opacity:1" />
      <path
         id="path1689"
         d="m -726.30859,329.56836 c -8.32265,0 -15.10787,0.23928 -21.48829,4.45898 l -0.008,0.006 -0.008,0.006 c -2.41225,1.73401 -3.80952,4.79342 -4.99219,8.01172 -1.18044,3.21225 -2.14373,6.61242 -3.5039,9.07031 -0.57921,0.4051 -1.16545,1.00118 -1.81641,1.8418 -0.71005,0.91693 -1.4695,2.04954 -2.23047,3.28125 -1.52193,2.46342 -3.04667,5.32106 -4.13867,7.60742 -0.71609,1.49934 -1.24372,3.10113 -1.56445,4.73047 -0.5009,2.54416 -0.90748,5.22832 -0.53907,7.87695 0.0901,0.64798 0.0784,1.33475 0.2461,2.06836 0.16773,0.73362 0.54414,1.50236 1.3457,2.20118 1.37072,1.19502 3.60647,1.90672 6.43945,2.375 2.83299,0.46827 6.27132,0.67185 10.03321,0.7207 7.52378,0.0977 16.33712,-0.42962 24.05273,-0.76367 12.79604,-0.55403 19.91725,0.97037 24.16016,0.16797 2.12145,-0.40121 3.5548,-1.52944 4.30078,-3.69336 0.74598,-2.16393 0.93164,-5.33374 0.93164,-10.12696 0,-0.50246 0.48866,-1.02164 1.0332,-1.51367 0.27227,-0.24601 0.54048,-0.46298 0.74024,-0.76367 0.0999,-0.15034 0.19291,-0.343 0.18359,-0.58398 -0.009,-0.24099 -0.14727,-0.47421 -0.31641,-0.6211 -0.70237,-0.60999 -1.5508,-0.7808 -2.44726,-0.84766 -0.89646,-0.0668 -1.87921,-0.0448 -3.02149,-0.20117 -3.80724,-0.52125 -8.74514,-1.74612 -11.25,-4.44922 -3.52535,-3.80435 -4.41762,-11.4132 -5.88476,-18.125 -0.73357,-3.3559 -1.62107,-6.48957 -3.16797,-8.83984 -1.5469,-2.35027 -3.82551,-3.89453 -7.08984,-3.89453 z m 0,1 c 2.96073,0 4.83703,1.29064 6.2539,3.44336 1.41687,2.15271 2.30239,5.18938 3.02735,8.50586 1.4499,6.63295 2.21979,14.37346 6.12695,18.58984 2.83644,3.06093 7.955,4.22877 11.84766,4.76172 1.23042,0.16846 2.26335,0.14388 3.08398,0.20508 0.77178,0.0576 1.29512,0.21231 1.75391,0.57031 -0.0924,0.11365 -0.26478,0.28645 -0.50977,0.50781 -0.55582,0.50222 -1.36328,1.19969 -1.36328,2.25586 0,4.76506 -0.21478,7.87996 -0.87695,9.80078 -0.66218,1.92083 -1.64447,2.67844 -3.54102,3.03711 -3.79309,0.71734 -11.12817,-0.74166 -24.01758,-0.18359 -7.72797,0.33459 -16.52916,0.85869 -23.99609,0.76172 -3.73347,-0.0485 -7.13458,-0.25244 -9.88477,-0.70703 -2.75019,-0.45459 -4.84239,-1.18274 -5.94336,-2.14258 -0.65491,-0.57097 -0.89619,-1.08776 -1.02929,-1.66992 -0.13311,-0.58217 -0.12725,-1.24026 -0.23047,-1.98242 -0.34165,-2.45623 0.0346,-5.0341 0.5293,-7.54688 0.30452,-1.54704 0.80721,-3.07026 1.48632,-4.49219 1.07557,-2.25195 2.59087,-5.09057 4.08789,-7.51367 0.74851,-1.21155 1.49275,-2.32084 2.16993,-3.19531 0.67717,-0.87448 1.30456,-1.51544 1.71679,-1.77149 l 0.11133,-0.0684 0.0625,-0.11329 c 1.45545,-2.62336 2.41425,-6.05939 3.57813,-9.22656 1.16271,-3.164 2.53332,-6.02752 4.63085,-7.53906 6.12044,-4.04338 12.62698,-4.28711 20.92579,-4.28711 z"
         style="color:#000000;font-style:normal;font-variant:normal;font-weight:normal;font-stretch:normal;font-size:medium;line-height:normal;font-family:sans-serif;font-variant-ligatures:normal;font-variant-position:normal;font-variant-caps:normal;font-variant-numeric:normal;font-variant-alternates:normal;font-variant-east-asian:normal;font-feature-settings:normal;font-variation-settings:normal;text-indent:0;text-align:start;text-decoration:none;text-decoration-line:none;text-decoration-style:solid;text-decoration-color:#000000;letter-spacing:normal;word-spacing:normal;text-transform:none;writing-mode:lr-tb;direction:ltr;text-orientation:mixed;dominant-baseline:auto;baseline-shift:baseline;text-anchor:start;white-space:normal;shape-padding:0;shape-margin:0;inline-size:0;clip-rule:nonzero;display:inline;overflow:visible;visibility:visible;isolation:auto;mix-blend-mode:normal;color-interpolation:sRGB;color-interpolation-filters:linearRGB;solid-color:#000000;solid-opacity:1;vector-effect:none;fill:#000000;fill-opacity:1;fill-rule:evenodd;stroke:none;stroke-width:1;stroke-linecap:round;stroke-linejoin:miter;stroke-miterlimit:4;stroke-dasharray:none;stroke-dashoffset:0;stroke-opacity:1;paint-order:fill markers stroke;color-rendering:auto;image-rendering:auto;shape-rendering:auto;text-rendering:auto;enable-background:accumulate;stop-color:#000000;stop-opacity:1" />
    </g>
    <path
       d="m 58.26666,58.55992 c 0,2.29013 0.19849,4.81004 -0.52459,7.17475 -0.73586,2.40656 -2.39974,4.65674 -3.12894,6.84797 -0.9068,2.72487 -0.50423,5.23541 -2.25384,6.91242 -0.83951,0.80468 -2.19683,0.92391 -3.3596,0.94002 -0.36812,0.005 -0.72459,-0.0691 -1.07144,-0.268 -0.25184,-0.14446 -0.33819,-0.29001 -0.4812,-0.37019 0,0 0.13396,0.45329 0.13451,0.7815 8.4e-4,0.52554 -0.0973,0.67922 -0.58514,1.2764 -1.15831,1.41788 -2.97687,1.43393 -4.69223,1.43393 -4.5176,0 -5.72645,-4.61242 -8.46316,-8.04117 -0.60014,-0.7519 -1.65547,-0.65737 -3.52002,-1.09773 C 23.7644,72.60129 19.55364,63.2577 19.34935,57.17611 c 0,-2.68143 -0.54984,-5.6548 -0.3154,-8.3721 0.25794,-2.98975 1.3588,-5.67141 2.71958,-7.3573 3.19626,-3.95986 9.7823,-3.61469 16.00692,-3.61469 4.87129,0 10.62181,-2.17417 14.69918,-0.77127 1.15973,0.39902 2.16544,1.70833 2.99994,2.67808 3.02738,3.51805 2.80709,13.22522 2.80709,18.82109 z"
       style="fill:#f27795;fill-opacity:1;fill-rule:evenodd;stroke:#000000;stroke-width:1;stroke-linecap:round;stroke-miterlimit:4;stroke-dasharray:none;stroke-opacity:1;paint-order:fill markers stroke;filter:url(#filter1094)"
       id="path1190" />
    <path
       style="color:#000000;font-style:normal;font-variant:normal;font-weight:normal;font-stretch:normal;font-size:medium;line-height:normal;font-family:sans-serif;font-variant-ligatures:normal;font-variant-position:normal;font-variant-caps:normal;font-variant-numeric:normal;font-variant-alternates:normal;font-variant-east-asian:normal;font-feature-settings:normal;font-variation-settings:normal;text-indent:0;text-align:start;text-decoration:none;text-decoration-line:none;text-decoration-style:solid;text-decoration-color:#000000;letter-spacing:normal;word-spacing:normal;text-transform:none;writing-mode:lr-tb;direction:ltr;text-orientation:mixed;dominant-baseline:auto;baseline-shift:baseline;text-anchor:start;white-space:normal;shape-padding:0;shape-margin:0;inline-size:0;clip-rule:nonzero;display:inline;overflow:visible;visibility:visible;isolation:auto;mix-blend-mode:normal;color-interpolation:sRGB;color-interpolation-filters:linearRGB;solid-color:#000000;solid-opacity:1;vector-effect:none;fill:#f27795;fill-opacity:1;fill-rule:evenodd;stroke:none;stroke-width:1;stroke-linecap:round;stroke-linejoin:miter;stroke-miterlimit:4;stroke-dasharray:none;stroke-dashoffset:0;stroke-opacity:1;paint-order:fill markers stroke;filter:url(#filter1094);color-rendering:auto;image-rendering:auto;shape-rendering:auto;text-rendering:auto;enable-background:accumulate;stop-color:#000000"
       d="m 48.59149,31.09212 c 0.57305,1.70764 1.47887,3.11712 2.39275,4.84508 1.28166,2.42334 2.08555,5.00212 1.69883,6.68981 -1.02858,4.4889 -7.04177,5.62811 -11.52473,5.62811 -1.56953,0 -4.97562,-0.10058 -7.55072,-0.32394 -2.35379,-0.20416 -4.68592,-0.32053 -6.4891,-1.63344 -1.53112,-1.11484 -2.44866,-2.09459 -3.01194,-4.81798 -0.69542,-3.36222 2.5152,-6.89503 3.58733,-10.40285 0.5611,-1.83583 1.22832,-4.04567 1.48707,-5.56369 1.05421,-6.18494 3.2154,-8.17723 9.13319,-8.17723 5.76197,0 8.2338,2.70171 9.28511,8.56406 0.29344,1.63629 0.43164,3.52161 0.99221,5.19207 z"
       id="path1693" />
    <path
       transform="matrix(0.21,0,0,0.21,196.25644,-24.90996)"
       id="path1279-7"
       style="display:inline;fill:#ffffff;fill-opacity:1;fill-rule:evenodd;stroke:none;stroke-width:2;stroke-linecap:round;stroke-miterlimit:4;stroke-dasharray:none;stroke-opacity:1;paint-order:fill markers stroke;filter:url(#filter1094)"
       d="m -750.92521,205.70767 c -0.70041,0.01 -1.45386,0.50262 -2.26953,1.55078 -6.04509,7.7681 -9.10172,28.95981 -17.06836,65.40039 -4.34658,19.88189 -19.23242,32.54226 -19.23242,50.02929 0,10.90701 0.57631,17.6932 1.82031,21.82617 4.26936,0.63791 8.70475,0.96334 13.1582,1.34961 12.26234,1.06359 28.48113,1.54102 35.95508,1.54102 5.04675,0 10.50177,-0.31899 15.95313,-1.06446 2.10551,-6.35106 2.93713,-17.06003 2.57617,-34.42578 -0.39866,-19.17935 -14.05459,-19.8745 -17.88086,-39.0371 -4.4589,-22.33086 -6.24103,-67.26302 -13.01172,-67.16992 z" />
    <path
       style="color:#000000;font-style:normal;font-variant:normal;font-weight:normal;font-stretch:normal;font-size:medium;line-height:normal;font-family:sans-serif;font-variant-ligatures:normal;font-variant-position:normal;font-variant-caps:normal;font-variant-numeric:normal;font-variant-alternates:normal;font-variant-east-asian:normal;font-feature-settings:normal;font-variation-settings:normal;text-indent:0;text-align:start;text-decoration:none;text-decoration-line:none;text-decoration-style:solid;text-decoration-color:#000000;letter-spacing:normal;word-spacing:normal;text-transform:none;writing-mode:lr-tb;direction:ltr;text-orientation:mixed;dominant-baseline:auto;baseline-shift:baseline;text-anchor:start;white-space:normal;shape-padding:0;shape-margin:0;inline-size:0;clip-rule:nonzero;display:inline;overflow:visible;visibility:visible;isolation:auto;mix-blend-mode:normal;color-interpolation:sRGB;color-interpolation-filters:linearRGB;solid-color:#000000;solid-opacity:1;vector-effect:none;fill:#000000;fill-opacity:1;fill-rule:evenodd;stroke:none;stroke-width:1;stroke-linecap:round;stroke-linejoin:miter;stroke-miterlimit:4;stroke-dasharray:none;stroke-dashoffset:0;stroke-opacity:1;paint-order:fill markers stroke;filter:url(#filter1094);color-rendering:auto;image-rendering:auto;shape-rendering:auto;text-rendering:auto;enable-background:accumulate;stop-color:#000000"
       d="m 38.3142,16.83593 c -3.01501,0 -5.18485,0.51204 -6.72461,1.89844 -1.53976,1.38641 -2.36722,3.55582 -2.90234,6.69531 -0.24834,1.45691 -0.91001,3.66743 -1.47071,5.50196 -0.509,1.66536 -1.56362,3.41022 -2.42773,5.18164 -0.86412,1.77142 -1.55754,3.60221 -1.17188,5.4668 0.58028,2.80556 1.64007,3.98015 3.20703,5.12109 1.95766,1.42538 4.39848,1.5254 6.74024,1.72851 2.60004,0.22553 6.00286,0.32618 7.59375,0.32618 2.28383,0 4.95619,-0.28348 7.23828,-1.16407 2.28209,-0.88058 4.21383,-2.41127 4.77344,-4.85351 0.44518,-1.94282 -0.43434,-4.55861 -1.74414,-7.03516 -0.92519,-1.74933 -1.81049,-3.13388 -2.35938,-4.76953 -0.53235,-1.58638 -0.6742,-3.44597 -0.97461,-5.12109 -0.53531,-2.98506 -1.44113,-5.23958 -3.02148,-6.75391 -1.58035,-1.51433 -3.79673,-2.22266 -6.75586,-2.22266 z m 0,1 c 2.80284,0 4.70362,0.6432 6.0625,1.94532 1.35888,1.30211 2.21447,3.32973 2.73047,6.20703 0.28647,1.59745 0.42098,3.50913 1.00976,5.26367 0.59721,1.77963 1.52321,3.21333 2.42578,4.91992 1.25352,2.37014 1.98061,4.91119 1.65235,6.34375 -0.46897,2.04666 -2.05582,3.33134 -4.1582,4.14258 -2.10239,0.81124 -4.67978,1.09766 -6.87891,1.09766 -1.54817,0 -4.95766,-0.10107 -7.50781,-0.32227 -2.36582,-0.2052 -4.58958,-0.34058 -6.23828,-1.54101 -1.49528,-1.08874 -2.27013,-1.87246 -2.81641,-4.51368 -0.30976,-1.49763 0.25642,-3.11367 1.0918,-4.82617 0.83537,-1.71249 1.92124,-3.48762 2.48437,-5.33008 0.5615,-1.83713 1.23279,-4.04586 1.50195,-5.625 0.51909,-3.04544 1.30015,-4.96512 2.58399,-6.12109 1.28384,-1.15598 3.15385,-1.64063 6.05664,-1.64063 z"
       id="path1695" />
    <path
       d="m 33.62521,26.93088 c 0,1.19958 -0.27019,1.99827 -0.90357,1.99827 -0.63337,0 -1.11208,-0.9377 -1.11208,-2.13728 0,-1.19958 0.96524,-1.85926 1.59862,-1.85926 0.63338,0 0.41703,0.79869 0.41703,1.99827 z"
       style="fill:#000000;fill-rule:evenodd;stroke-width:0;stroke-linecap:round;stroke-miterlimit:4;stroke-dasharray:none;paint-order:fill markers stroke;filter:url(#filter1094)"
       id="path1098" />
    <path
       id="path1101"
       style="fill:#000000;fill-rule:evenodd;stroke-width:0;stroke-linecap:round;stroke-miterlimit:4;stroke-dasharray:none;paint-order:fill markers stroke;filter:url(#filter1094)"
       d="m 46.16081,27.22294 c 0,1.19958 -0.68722,1.75501 -1.3206,1.75501 -0.63338,0 -0.48654,-0.65969 -0.48654,-1.85927 0,-1.19958 -0.66629,-2.20617 0.79931,-1.92877 0.62233,0.1178 1.00783,0.83345 1.00783,2.03303 z" />
    <path
       id="path1022"
       d="m 34.63258,38.97026 c 1.14621,1.05435 2.28776,2.10441 3.33076,2.26656 1.043,0.16215 1.9841,-0.56586 2.53538,-1.03379 0.55127,-0.46792 0.71345,-0.67644 0.87585,-0.88524"
       style="fill:none;stroke:#000000;stroke-width:1;stroke-linecap:butt;stroke-linejoin:miter;stroke-miterlimit:4;stroke-dasharray:none;stroke-opacity:1;filter:url(#filter1094)" />
    <path
       id="path1026"
       d="m 37.96334,41.23682 c 0.0719,0.33594 0.14321,0.66934 0.12058,1.35697 -0.0226,0.68763 -0.13847,1.73021 -0.25411,2.77095"
       style="fill:none;stroke:#000000;stroke-width:1;stroke-linecap:butt;stroke-linejoin:miter;stroke-miterlimit:4;stroke-dasharray:none;stroke-opacity:1;filter:url(#filter1094)" />
    <path
       id="path1034"
       d="m 42.99052,47.98018 c -0.60421,-0.53584 -1.20878,-1.07201 -2.06909,-1.50809 -0.86031,-0.43607 -1.97502,-0.77142 -2.53332,-0.93939 -0.5583,-0.16796 -0.5583,-0.16796 -1.03279,-0.0709 -0.4745,0.097 -1.4146,0.28935 -2.32853,0.68843 -0.91394,0.39908 -1.7862,0.99879 -2.66238,1.60119"
       style="fill:none;stroke:#000000;stroke-width:1;stroke-linecap:butt;stroke-linejoin:miter;stroke-miterlimit:4;stroke-dasharray:none;stroke-opacity:1;filter:url(#filter1094)" />
    <g
       style="filter:url(#filter1094)"
       id="g1673"
       transform="translate(766.73998,-291.7793)">
      <path
         id="path1675"
         d="m -686.37304,370.36719 c -1.71783,2.03358 -3.97013,4.71567 -5.14121,6.78527 -1.10485,1.95255 0,0 -2.60432,4.16121 -2.07566,3.3165 -3.47679,1.53748 -8.64113,1.63792 -2.99856,0.0583 -4.50191,-2.39466 -2.47929,-4.58159 3.58116,-3.87206 6.15022,-9.26122 10.25159,-16.4859 1.61657,-2.84763 4.30846,-5.94121 6.38555,-7.38606 3.30807,-2.30115 8.20686,-2.33704 9.29126,-0.2431 1.81316,3.50116 1.83499,6.04909 -0.71592,9.99731 -1.31449,2.03452 -3.93732,3.2629 -6.34653,6.11494 z"
         style="color:#000000;font-style:normal;font-variant:normal;font-weight:normal;font-stretch:normal;font-size:medium;line-height:normal;font-family:sans-serif;font-variant-ligatures:normal;font-variant-position:normal;font-variant-caps:normal;font-variant-numeric:normal;font-variant-alternates:normal;font-variant-east-asian:normal;font-feature-settings:normal;font-variation-settings:normal;text-indent:0;text-align:start;text-decoration:none;text-decoration-line:none;text-decoration-style:solid;text-decoration-color:#000000;letter-spacing:normal;word-spacing:normal;text-transform:none;writing-mode:lr-tb;direction:ltr;text-orientation:mixed;dominant-baseline:auto;baseline-shift:baseline;text-anchor:start;white-space:normal;shape-padding:0;shape-margin:0;inline-size:0;clip-rule:nonzero;display:inline;overflow:visible;visibility:visible;isolation:auto;mix-blend-mode:normal;color-interpolation:sRGB;color-interpolation-filters:linearRGB;solid-color:#000000;solid-opacity:1;vector-effect:none;fill:#f27795;fill-opacity:1;fill-rule:evenodd;stroke:none;stroke-width:1;stroke-linecap:round;stroke-linejoin:miter;stroke-miterlimit:4;stroke-dasharray:none;stroke-dashoffset:0;stroke-opacity:1;paint-order:fill markers stroke;color-rendering:auto;image-rendering:auto;shape-rendering:auto;text-rendering:auto;enable-background:accumulate;stop-color:#000000;stop-opacity:1" />
      <path
         id="path1677"
         d="m -683.13281,352.22852 c -1.87592,0.0369 -4.00589,0.64342 -5.75391,1.85937 -2.1855,1.52026 -4.87769,4.62916 -6.53516,7.54883 -4.10981,7.23956 -6.67852,12.60474 -10.18359,16.39453 -1.11651,1.20721 -1.32196,2.64295 -0.71289,3.71875 0.60907,1.0758 1.93119,1.733 3.56836,1.70117 2.52391,-0.0491 4.10233,0.3676 5.46289,0.38672 0.68028,0.01 1.32741,-0.0955 1.92578,-0.45312 0.59838,-0.35761 1.12302,-0.93904 1.66602,-1.80665 1.30037,-2.07774 1.66803,-2.61649 1.85547,-2.89257 0.18743,-0.27609 0.20929,-0.31084 0.76172,-1.28711 1.12694,-1.9916 3.37088,-4.67638 5.08789,-6.70899 2.33944,-2.76944 4.95358,-3.9539 6.38281,-6.16601 1.30241,-2.01584 1.98111,-3.72723 2.07422,-5.41016 0.0931,-1.68292 -0.40501,-3.29406 -1.33399,-5.08789 -0.68412,-1.32103 -2.38971,-1.83376 -4.26562,-1.79687 z m 0.0195,1 c 1.6716,-0.0329 2.9591,0.48294 3.35937,1.25586 0.88418,1.70732 1.30307,3.12083 1.22266,4.57421 -0.0804,1.45339 -0.66752,2.98949 -1.91602,4.92188 -1.19975,1.85693 -3.82961,3.12982 -6.30859,6.06445 -1.71865,2.03456 -3.97814,4.71373 -5.19336,6.86133 -0.55242,0.97627 -0.53132,0.94071 -0.71875,1.2168 -0.18743,0.27608 -0.57105,0.84231 -1.875,2.92578 -0.49483,0.79064 -0.92253,1.23183 -1.33203,1.47656 -0.4095,0.24473 -0.82344,0.32058 -1.39844,0.3125 -1.15,-0.0162 -2.85566,-0.43807 -5.49609,-0.38672 -1.36139,0.0265 -2.29115,-0.51248 -2.67774,-1.19531 -0.38658,-0.68283 -0.32993,-1.56716 0.57618,-2.54688 3.65725,-3.95433 6.22543,-9.36832 10.31836,-16.57812 1.57567,-2.77559 4.26764,-5.85322 6.23632,-7.22266 1.56006,-1.0852 3.53153,-1.64682 5.20313,-1.67968 z"
         style="color:#000000;font-style:normal;font-variant:normal;font-weight:normal;font-stretch:normal;font-size:medium;line-height:normal;font-family:sans-serif;font-variant-ligatures:normal;font-variant-position:normal;font-variant-caps:normal;font-variant-numeric:normal;font-variant-alternates:normal;font-variant-east-asian:normal;font-feature-settings:normal;font-variation-settings:normal;text-indent:0;text-align:start;text-decoration:none;text-decoration-line:none;text-decoration-style:solid;text-decoration-color:#000000;letter-spacing:normal;word-spacing:normal;text-transform:none;writing-mode:lr-tb;direction:ltr;text-orientation:mixed;dominant-baseline:auto;baseline-shift:baseline;text-anchor:start;white-space:normal;shape-padding:0;shape-margin:0;inline-size:0;clip-rule:nonzero;display:inline;overflow:visible;visibility:visible;isolation:auto;mix-blend-mode:normal;color-interpolation:sRGB;color-interpolation-filters:linearRGB;solid-color:#000000;solid-opacity:1;vector-effect:none;fill:#000000;fill-opacity:1;fill-rule:evenodd;stroke:none;stroke-width:1;stroke-linecap:round;stroke-linejoin:miter;stroke-miterlimit:4;stroke-dasharray:none;stroke-dashoffset:0;stroke-opacity:1;paint-order:fill markers stroke;color-rendering:auto;image-rendering:auto;shape-rendering:auto;text-rendering:auto;enable-background:accumulate;stop-color:#000000;stop-opacity:1" />
    </g>
    <path
       d="m 22.47748,73.26976 c 1.65167,4.51409 5.50279,8.6551 5.81641,11.40404 0.20947,1.83632 -1.58464,2.78401 -2.78485,3.59346 -1.72816,1.1655 -4.4494,1.20865 -7.1433,-1.23666 C 16.388,85.23535 14.46675,81.63576 12.75298,78.49532 11.3363,75.89928 8.60114,73.99251 7.99531,71.59054 6.86996,67.12898 8.66886,62.27896 10.84965,61.40408 c 3.34028,-1.34006 6.55286,-0.56835 8.68526,2.85948 1.26521,2.0338 1.48468,5.02182 2.94257,9.0062 z"
       style="fill:#f27795;fill-opacity:1;fill-rule:evenodd;stroke:#000000;stroke-width:1;stroke-linecap:round;stroke-miterlimit:4;stroke-dasharray:none;stroke-opacity:1;paint-order:fill markers stroke;filter:url(#filter1094)"
       id="path1357" />
    <path
       id="path1530"
       d="m 39.54283,56.43461 c 0.41103,1.69404 0.8224,3.38954 1.05962,4.74012 0.23721,1.35057 0.30276,2.36646 0.45258,3.49425 0.14983,1.12779 0.38396,2.36799 0.73629,3.39207 0.35233,1.02408 0.82247,1.83139 1.15598,2.4401 0.33351,0.60871 0.53006,1.01819 0.75943,1.42775 0.22938,0.40956 0.49149,0.81912 0.80275,1.31879 0.31127,0.49967 0.67304,1.09166 1.16895,2.19409 0.49591,1.10244 1.13341,2.73169 1.76861,4.3551"
       style="fill:none;stroke:#000000;stroke-width:1;stroke-linecap:butt;stroke-linejoin:miter;stroke-miterlimit:4;stroke-dasharray:none;stroke-opacity:1;filter:url(#filter1094)" />
    <path
       id="path3530"
       d="M 43.742908,40.112074 55.845689,36.654136"
       style="fill:none;stroke:#000000;stroke-width:1px;stroke-linecap:butt;stroke-linejoin:miter;stroke-opacity:1" />
    <path
       id="path3536"
       d="m 43.915805,42.013939 12.102781,0.345794"
       style="fill:none;stroke:#000000;stroke-width:1px;stroke-linecap:butt;stroke-linejoin:miter;stroke-opacity:1" />
    <path
       id="path3538"
       d="m 43.915805,44.953186 11.929884,1.901866"
       style="fill:none;stroke:#000000;stroke-width:1px;stroke-linecap:butt;stroke-linejoin:miter;stroke-opacity:1" />
    <path
       id="path3540"
       d="M 32.331715,39.939177 20.401831,37.864414"
       style="fill:none;stroke:#000000;stroke-width:1px;stroke-linecap:butt;stroke-linejoin:miter;stroke-opacity:1" />
    <path
       id="path3542"
       d="M 34.23358,42.186836 21.957902,43.742908"
       style="fill:none;stroke:#000000;stroke-width:1px;stroke-linecap:butt;stroke-linejoin:miter;stroke-opacity:1" />
    <path
       id="path3544"
       d="m 33.196199,44.088702 -7.953256,4.322421"
       style="fill:none;stroke:#000000;stroke-width:1px;stroke-linecap:butt;stroke-linejoin:miter;stroke-opacity:1" />
  </g>
</svg>
