<?xml version="1.0" encoding="UTF-8" standalone="no"?>
<svg
   xmlns:dc="http://purl.org/dc/elements/1.1/"
   xmlns:cc="http://creativecommons.org/ns#"
   xmlns:rdf="http://www.w3.org/1999/02/22-rdf-syntax-ns#"
   xmlns:svg="http://www.w3.org/2000/svg"
   xmlns="http://www.w3.org/2000/svg"
   id="svg901"
   viewBox="0 0 100.14 102.12"
   version="1.1"
   height="102.12"
   width="100.14">
  <metadata
     id="metadata907">
    <rdf:RDF>
      <cc:Work
         rdf:about="">
        <dc:format>image/svg+xml</dc:format>
        <dc:type
           rdf:resource="http://purl.org/dc/dcmitype/StillImage" />
        <dc:title></dc:title>
      </cc:Work>
    </rdf:RDF>
  </metadata>
  <defs
     id="defs905" />
  <path
     id="path871"
     style="paint-order:fill markers stroke"
     stroke-width="2.048"
     stroke-linecap="round"
     stroke="#000000"
     fill-rule="evenodd"
     fill="#e3c2bb"
     d="m 99.119554,59.61034 c 0,10.718208 -3.04896,24.185856 -9.808794,31.333376 C 77.48356,103.4488 59.436584,101.82064 43.948584,99.456126 17.478184,95.415319 2.7981204,87.416958 1.1679124,59.610238 0.61063112,50.104138 1.620162,39.771262 5.2451732,30.793854 8.1915284,23.496932 14.688604,18.257022 19.974389,14.187646 24.491048,10.710654 25.380495,2.2600936 28.935311,1.0917096 c 2.837709,-0.93242368 12.6208,9.3405184 12.6208,9.3405184 0,0 9.524224,-0.8622387 12.036096,-0.8622387 5.990093,0 19.494912,4.1401347 19.494912,4.1401347 0,0 13.205504,-6.5610755 15.548416,-3.9519235 1.958912,2.1812225 -1.20873,11.4135035 -1.20873,11.4135035 0,0 5.651866,5.187277 8.39209,12.488704 3.085619,8.221287 3.300761,19.01056 3.300761,25.950208" />
  <path
     class="tongue"
     style="opacity:1;fill:#ff2a2a;fill-rule:evenodd;stroke-width:2;stroke-linecap:round;paint-order:fill markers stroke"
     d="m 51.114307,20.435994 c -0.113339,0.01744 -0.331996,0.383529 -0.615235,0.814453 -0.377652,0.574566 -0.869684,1.265006 -1.591797,1.806641 -0.493245,0.369954 -1.096631,0.662496 -1.654296,0.822265 a 4.1681633,9.5867758 0 0 0 -0.01172,0.689453 4.1681633,9.5867758 0 0 0 4.167969,9.585938 4.1681633,9.5867758 0 0 0 4.167968,-9.585938 4.1681633,9.5867758 0 0 0 0,-0.121093 c -0.206931,0.09542 -0.420328,0.173188 -0.638672,0.226562 -0.84224,0.205886 -1.794679,0.107556 -2.484375,-0.1875 -0.689683,-0.295116 -1.116154,-0.788301 -1.248047,-1.609375 -0.131886,-0.821043 0.03597,-2.003051 -0.01562,-2.332031 -0.0129,-0.08225 -0.03839,-0.115189 -0.07617,-0.109375 z" />
  <path
     d="m 66.692546,54.61322 c -0.243313,-1.793638 -0.486779,-3.588506 -0.575775,-5.142733 -0.089,-1.554227 -0.02332,-2.867814 0.272261,-3.771289 0.295588,-0.903547 0.820992,-1.396122 1.363149,-1.607476 0.542126,-0.211343 1.035162,-0.149708 1.675469,0.326933 0.640246,0.476631 1.395507,1.363251 1.887744,2.299187 0.492247,0.935946 0.722104,1.921024 0.981043,3.005645 0.258939,1.084621 0.562023,2.330624 0.857273,3.544371"
     id="path875"
     style="fill:none;stroke:#000000;stroke-width:2.048" />
  <path
     d="m 28.625653,52.66762 c 0,-2.067763 0,-4.13655 0.180511,-5.729382 0.180511,-1.592832 0.541727,-2.7093 1.060864,-3.538637 0.519168,-0.829317 1.155891,-1.338675 1.92809,-1.552077 0.772198,-0.21333 1.658777,-0.114811 2.348236,0.296192 0.68946,0.411003 1.182004,1.133466 1.477223,2.069299 0.295188,0.935865 0.393697,2.085171 0.393584,2.938778 -1.12e-4,0.853606 -0.09863,1.411891 -0.196997,1.969357"
     id="path877"
     style="fill:none;stroke:#000000;stroke-width:2.048" />
  <path
     d="m 5.492162,30.53898 c 2.7549696,-0.155791 5.509018,-0.311532 8.262144,-0.46721"
     id="path879"
     style="fill:none;stroke:#000000;stroke-width:2.048" />
  <path
     d="m 4.28077,35.78186 c 2.1372928,-0.09093 4.366336,-0.185805 6.54807,-0.278641"
     id="path881"
     style="fill:none;stroke:#000000;stroke-width:2.048" />
  <path
     d="m 54.714818,10.00778 c -0.696812,1.997517 -1.393357,3.994419 -2.089779,5.990707"
     id="path883"
     style="fill:none;stroke:#000000;stroke-width:2.048" />
  <path
     d="m 63.909314,11.54378 c -0.789688,2.136781 -1.579213,4.27305 -2.36841,6.408704"
     id="path885"
     style="fill:none;stroke:#000000;stroke-width:2.048" />
  <path
     d="M 97.763778,42.46858 C 94.606991,41.911504 91.449077,41.354263 88.290037,40.796798"
     id="path887"
     style="fill:none;stroke:#000000;stroke-width:2.048" />
  <path
     d="M 98.04333,47.76266 C 94.886645,46.83422 91.728732,45.905431 88.569589,44.976254"
     id="path889"
     style="fill:none;stroke:#000000;stroke-width:2.048" />
  <ellipse
     id="ellipse893"
     style="stroke-width:1.024;paint-order:fill markers stroke"
     fill-rule="evenodd"
     ry="3.4481153"
     rx="3.5526655"
     cy="24.466663"
     cx="37.926338" />
  <ellipse
     id="ellipse895"
     style="stroke-width:1.024;paint-order:fill markers stroke"
     fill-rule="evenodd"
     ry="3.4481153"
     rx="3.0998528"
     cy="26.002663"
     cx="67.915199" />
  <g
     id="g1033">
    <path
       d="m 52.106337,15.907974 c -3.991184,0.05146 -7.208995,5.02856 -7.208985,11.15039 1e-4,1.229385 0.132749,2.450283 0.392578,3.613282 l 1.352822,0.04492 c -0.03202,1.248871 -0.467021,2.562067 -0.326866,3.099609 0.07111,0.272738 1.034223,0.352547 1.054123,0.369141 0.0199,0.01659 0.46422,0.527943 0.633506,0.524423 0.330647,-0.0069 0.785589,-0.817239 1.350869,-1.241223 0.567156,-0.425405 0.991809,-1.003448 1.351562,-1.550782 0.179814,-0.273574 0.319895,-0.519367 0.53125,-0.777343 0.105677,-0.128988 0.100457,-0.381251 0.783203,-0.486328 0.341373,-0.05254 0.857002,0.18974 1.033203,0.433593 0.176201,0.243853 -0.938449,0.600945 -0.280285,0.627542 0.08135,0.51871 -0.779256,0.766155 -0.797676,1.185547 -0.0184,0.419393 0.915823,0.87554 0.958713,1.142578 0.08719,0.542767 0.533127,0.538698 0.984481,0.731833 0.452094,0.193408 1.241798,0.280482 1.837891,0.134766 0.581697,-0.142195 1.188208,-0.551333 1.617187,-1.09375 0.432557,-0.547015 0.750095,-1.321073 0.851563,-1.867188 0.09759,-0.525409 0.566355,-0.984968 0.471985,-1.472656 -0.09457,-0.488783 -0.286562,-0.703542 -0.385355,-1.131636 l 1.036416,-0.538286 c 0.05982,-0.57816 0.08986,-1.162648 0.08984,-1.748042 -1.32e-4,-6.157911 -3.254682,-11.149911 -7.269531,-11.15039 -0.02083,-1.37e-4 -0.04167,-1.37e-4 -0.0625,0 z"
       style="opacity:1;fill:#e3c2bb;fill-opacity:1;fill-rule:evenodd;stroke-width:1.64297;stroke-linecap:round;paint-order:fill markers stroke" />
    <path
       style="fill:none;stroke:#000000;stroke-width:2.048"
       id="path873"
       d="m 45.962275,30.502175 c -0.03202,1.24887 -0.0657,2.562355 0.148337,3.383296 0.214036,0.8209 0.673751,1.182106 1.373696,1.167565 0.699924,-0.01454 1.663795,-0.41342 2.38592,-0.955044 0.722114,-0.541635 1.214668,-1.231258 1.59232,-1.805824 0.377651,-0.574566 0.640307,-1.034342 0.691896,-0.705331 0.05159,0.32898 -0.117197,1.510502 0.01469,2.331545 0.131892,0.821074 0.558777,1.313588 1.248461,1.608704 0.689695,0.295056 1.641984,0.393575 2.484224,0.187689 0.842281,-0.205895 1.619661,-0.74668 2.177741,-1.452339 0.558039,-0.7057 0.919245,-1.59232 1.053491,-2.314854 0.134216,-0.722565 0.03038,-1.345639 -0.0681,-1.854567 -0.09848,-0.508979 -0.196987,-0.935864 -0.295782,-1.363968" />
  </g>
</svg>
