<?xml version="1.0" encoding="UTF-8" standalone="no"?>
<svg
   xmlns:dc="http://purl.org/dc/elements/1.1/"
   xmlns:cc="http://creativecommons.org/ns#"
   xmlns:rdf="http://www.w3.org/1999/02/22-rdf-syntax-ns#"
   xmlns:svg="http://www.w3.org/2000/svg"
   xmlns="http://www.w3.org/2000/svg"
   xmlns:sodipodi="http://sodipodi.sourceforge.net/DTD/sodipodi-0.dtd"
   xmlns:inkscape="http://www.inkscape.org/namespaces/inkscape"
   version="1.1"
   id="svg833"
   width="80.242851"
   height="97.00058"
   viewBox="0 0 80.242852 97.00058"
   sodipodi:docname="kitty.svg"
   inkscape:version="1.0 (4035a4fb49, 2020-05-01)">
  <metadata
     id="metadata839">
    <rdf:RDF>
      <cc:Work
         rdf:about="">
        <dc:format>image/svg+xml</dc:format>
        <dc:type
           rdf:resource="http://purl.org/dc/dcmitype/StillImage" />
        <dc:title></dc:title>
      </cc:Work>
    </rdf:RDF>
  </metadata>
  <defs
     id="defs837">
    <inkscape:path-effect
       effect="bspline"
       id="path-effect1092"
       is_visible="true"
       lpeversion="1"
       weight="33.333333"
       steps="2"
       helper_size="0"
       apply_no_weight="true"
       apply_with_weight="true"
       only_selected="false" />
    <inkscape:path-effect
       effect="bspline"
       id="path-effect1088"
       is_visible="true"
       lpeversion="1"
       weight="33.333333"
       steps="2"
       helper_size="0"
       apply_no_weight="true"
       apply_with_weight="true"
       only_selected="false" />
    <inkscape:path-effect
       effect="bspline"
       id="path-effect1084"
       is_visible="true"
       lpeversion="1"
       weight="33.333333"
       steps="2"
       helper_size="0"
       apply_no_weight="true"
       apply_with_weight="true"
       only_selected="false" />
    <inkscape:path-effect
       effect="bspline"
       id="path-effect1005"
       is_visible="true"
       lpeversion="1"
       weight="33.333333"
       steps="2"
       helper_size="0"
       apply_no_weight="true"
       apply_with_weight="true"
       only_selected="false" />
    <inkscape:path-effect
       effect="bspline"
       id="path-effect992"
       is_visible="true"
       lpeversion="1"
       weight="33.333333"
       steps="2"
       helper_size="0"
       apply_no_weight="true"
       apply_with_weight="true"
       only_selected="false" />
    <inkscape:path-effect
       effect="bspline"
       id="path-effect926"
       is_visible="true"
       lpeversion="1"
       weight="33.333333"
       steps="2"
       helper_size="0"
       apply_no_weight="true"
       apply_with_weight="true"
       only_selected="false" />
    <inkscape:path-effect
       effect="bspline"
       id="path-effect922"
       is_visible="true"
       lpeversion="1"
       weight="33.333333"
       steps="2"
       helper_size="0"
       apply_no_weight="true"
       apply_with_weight="true"
       only_selected="false" />
    <inkscape:path-effect
       effect="bspline"
       id="path-effect914"
       is_visible="true"
       lpeversion="1"
       weight="33.333333"
       steps="2"
       helper_size="0"
       apply_no_weight="true"
       apply_with_weight="true"
       only_selected="false" />
    <inkscape:path-effect
       effect="bspline"
       id="path-effect910"
       is_visible="true"
       lpeversion="1"
       weight="33.333333"
       steps="2"
       helper_size="0"
       apply_no_weight="true"
       apply_with_weight="true"
       only_selected="false" />
    <inkscape:path-effect
       effect="bspline"
       id="path-effect893"
       is_visible="true"
       lpeversion="1"
       weight="33.333333"
       steps="2"
       helper_size="0"
       apply_no_weight="true"
       apply_with_weight="true"
       only_selected="false" />
    <clipPath
       clipPathUnits="userSpaceOnUse"
       id="clipPath875">
      <rect
         style="fill:#ff0000;fill-opacity:1;fill-rule:nonzero;stroke:none"
         id="rect877"
         width="800"
         height="800"
         x="0"
         y="0" />
    </clipPath>
    <clipPath
       clipPathUnits="userSpaceOnUse"
       id="clipPath883">
      <rect
         style="fill:#ff0000;fill-opacity:1;fill-rule:nonzero;stroke:none"
         id="rect885"
         width="50.502533"
         height="57.363575"
         x="398.44382"
         y="423.58966" />
    </clipPath>
  </defs>
  <sodipodi:namedview
     fit-margin-bottom="0"
     fit-margin-right="0"
     fit-margin-left="0"
     fit-margin-top="0"
     inkscape:document-rotation="0"
     pagecolor="#ffffff"
     bordercolor="#666666"
     borderopacity="1"
     objecttolerance="10"
     gridtolerance="10"
     guidetolerance="10"
     inkscape:pageopacity="0"
     inkscape:pageshadow="2"
     inkscape:window-width="1920"
     inkscape:window-height="1017"
     id="namedview835"
     showgrid="false"
     inkscape:snap-intersection-paths="true"
     inkscape:zoom="1"
     inkscape:cx="41.812989"
     inkscape:cy="-35.9462"
     inkscape:window-x="-8"
     inkscape:window-y="-8"
     inkscape:window-maximized="1"
     inkscape:current-layer="g841" />
  <g
     transform="translate(-43.415351,-445.31626)"
     inkscape:groupmode="layer"
     inkscape:label="Image"
     id="g841">
    <path
       style="opacity:1;fill:#d9cabf;fill-opacity:1;fill-rule:evenodd;stroke:none;stroke-width:0.353377;stroke-linecap:round;stroke-miterlimit:4;stroke-dasharray:none;paint-order:fill markers stroke"
       d=""
       id="path955" />
    <g
       transform="matrix(1.053,0,0,1.053,-4.4274483,-26.172273)"
       id="g1006">
      <g
         transform="matrix(1.5,0,0,1.5,-103.26839,-242.03327)"
         id="g1080">
        <path
           id="path998"
           style="opacity:0.554839;fill:#999999;fill-opacity:1;fill-rule:evenodd;stroke:none;stroke-width:0.8;stroke-linecap:round;stroke-miterlimit:4;stroke-dasharray:none;stroke-opacity:1;paint-order:fill markers stroke"
           d="m 148.41104,515.05761 c 0,1.21765 1.15331,2.97732 -0.52198,3.93097 -2.97882,1.69566 -10.30716,2.19403 -16.22802,2.19403 -5.50787,0 -11.14482,0.52788 -14.19772,-0.97275 -2.07462,-1.01975 -2.55228,-3.78358 -2.55228,-5.15225 0,-3.38274 7.49923,-6.125 16.75,-6.125 4.73061,0 8.50319,2.09211 11.54911,3.24527 2.91042,1.10186 5.20089,1.22684 5.20089,2.87973 z"
           sodipodi:nodetypes="ssssssss" />
        <path
           id="rect966"
           style="fill:#d8cabf;fill-opacity:1;fill-rule:evenodd;stroke:#000000;stroke-width:0.8;stroke-linecap:round;stroke-miterlimit:4;stroke-dasharray:none;stroke-opacity:1;paint-order:fill markers stroke"
           d="m 120.44371,460.27074 c -0.19979,0.0422 -0.15692,0.2621 0.0156,0.91407 0.2301,0.86929 0.68972,2.5082 0.89454,3.36718 0.20483,0.85898 0.15952,0.93224 -0.0899,1.59571 -0.24942,0.66347 -0.69028,1.88934 -1.04101,3.46484 -0.35072,1.57549 -0.60429,3.48017 -0.57032,5.27734 0.034,1.79717 0.35534,3.48593 0.48243,4.3418 0.1271,0.85586 0.0567,0.87967 -0.29297,1.16797 -0.34961,0.28831 -1.0019,0.85992 -1.69922,2.08984 -0.69733,1.22992 -1.47298,3.14851 -1.80664,5.09571 -0.33365,1.94721 -0.22452,3.92171 0.0137,5.58007 0.23816,1.65836 0.64446,3.14856 0.80664,3.74219 0.16217,0.59363 0.16211,0.59375 0.16211,0.59375 -0.65555,0.0427 -1.31066,0.0863 -2.12109,0.0293 -0.81043,-0.057 -1.77613,-0.21364 -2.70703,-0.57227 -0.9309,-0.35863 -1.84357,-0.92944 -2.69922,-1.63086 -0.85565,-0.70142 -1.68627,-1.55423 -2.4043,-2.63086 -0.71803,-1.07663 -1.32257,-2.37837 -1.72656,-3.89257 -0.40399,-1.5142 -0.60644,-3.24038 -0.67383,-4.9004 -0.0674,-1.66002 6.1e-4,-3.25275 0.0566,-4.62109 0.0561,-1.36834 0.10076,-2.51266 0,-3.5332 -0.10076,-1.02053 -0.34774,-1.91837 -0.81836,-2.50195 -0.47063,-0.58359 -1.16642,-0.85213 -1.83984,-0.78516 -0.67342,0.067 -1.32362,0.47014 -1.79493,1.07617 -0.47131,0.60602 -0.765728,1.42188 -0.910148,2.21484 -0.14441,0.79297 -0.14453,1.57699 -0.14453,2.94532 0,1.36834 7e-4,3.31982 0.23632,5.61914 0.235638,2.29933 0.706268,4.94725 1.390628,7.21289 0.68435,2.26565 1.58152,4.14878 2.88281,5.80859 1.30129,1.65981 3.00636,3.09488 4.93555,4.11524 1.92919,1.02037 4.08175,1.62698 6.0332,1.88476 1.95145,0.25778 3.70299,0.16878 4.59961,0.15821 0.89662,-0.0106 0.94127,0.0567 1.28906,0.44921 0.34779,0.39251 1.019,1.13093 1.90625,1.8711 0.88725,0.74018 2.02988,1.52556 3.17383,2.49023 1.14395,0.96467 2.28799,2.10946 3.12891,3.37696 0.84093,1.2675 1.38099,2.65872 1.69531,3.35351 0.31431,0.69479 0.42612,0.69338 1.08789,0.73828 0.66177,0.0449 1.96216,0.13938 2.58985,0.16016 0.62769,0.0208 0.66182,-0.0133 0.65625,-0.64649 -0.006,-0.63318 -0.0737,-1.84504 -0.10743,-2.48437 -0.0337,-0.63934 -0.0336,-0.70661 0.17969,-0.8418 0.21331,-0.1352 0.65824,-0.3463 1.44531,-0.82422 0.78707,-0.47792 1.96989,-1.24966 3.07227,-2.20898 1.10237,-0.95933 2.15606,-2.12606 3.10937,-3.28125 0.95332,-1.15518 1.80472,-2.29916 2.54493,-3.56641 0.74021,-1.26725 1.36817,-2.6581 1.7832,-3.95898 0.41502,-1.30087 0.61731,-2.51209 0.75195,-3.86914 0.13464,-1.35705 0.20241,-2.88195 0.13477,-4.03711 -0.0676,-1.15515 -0.26903,-1.98606 -0.56055,-2.89453 -0.29152,-0.90846 -0.67153,-1.89575 -1.09766,-2.83789 -0.42611,-0.94214 -0.89831,-1.83828 -1.12304,-2.33204 -0.22472,-0.49374 -0.20157,-0.58445 0.22461,-1.42578 0.42619,-0.84133 1.25623,-2.43385 1.91797,-3.74609 0.66174,-1.31224 1.15518,-2.34356 1.48046,-3.20703 0.32529,-0.86346 0.48247,-1.5587 0.57227,-2.29883 0.0898,-0.74014 0.11205,-1.52626 -0.0781,-2.1543 -0.19019,-0.62804 -0.5944,-1.09883 -1.08789,-1.3125 -0.49351,-0.21367 -1.07732,-0.16719 -1.59376,0.11329 -0.51642,0.28047 -0.96452,0.7947 -1.52539,1.92773 -0.56086,1.13302 -1.23447,2.88346 -1.58203,3.60156 -0.34756,0.71809 -0.36987,0.40404 -0.51562,-0.51562 -0.14574,-0.91965 -0.41368,-2.44546 -0.75,-3.66797 -0.33631,-1.2225 -0.73982,-2.14262 -1.1211,-2.92774 -0.38128,-0.78512 -0.74173,-1.43499 -1.38086,-2.20898 -0.63912,-0.774 -1.5574,-1.67047 -2.83593,-2.34375 -1.27852,-0.67329 -2.91698,-1.12209 -5.25,-1.2793 -2.33301,-0.15721 -5.36049,-0.0227 -6.90821,0.0391 -1.54772,0.0618 -1.61897,0.0491 -2.13867,-0.0684 -0.51971,-0.11742 -1.47352,-0.33663 -1.97265,-0.4004 -0.12478,-0.0159 -0.21857,-0.0217 -0.28516,-0.008 z" />
        <path
           sodipodi:nodetypes="cssssssc"
           id="path904"
           style="fill:#000000;fill-opacity:1;fill-rule:evenodd;stroke:none;stroke-width:2.20684;stroke-linecap:round;stroke-miterlimit:4;stroke-dasharray:none;paint-order:fill markers stroke"
           d="m 135.79564,465.04313 c 0,0.26435 0.0245,0.44394 -0.16812,0.63133 -0.24072,0.23415 -0.74157,0.44538 -1.14413,0.44538 -0.72473,0 -1.31224,-0.48206 -1.31224,-1.07671 0,-0.3367 0.14148,-0.68418 0.43645,-0.88162 0.22598,-0.15126 0.56141,-0.1951 0.87579,-0.1951 0.4003,0 0.85249,0.0533 1.09319,0.2852 0.19507,0.18793 0.21906,0.52532 0.21906,0.79152" />
        <path
           style="color:#000000;font-style:normal;font-variant:normal;font-weight:normal;font-stretch:normal;font-size:medium;line-height:normal;font-family:sans-serif;font-variant-ligatures:normal;font-variant-position:normal;font-variant-caps:normal;font-variant-numeric:normal;font-variant-alternates:normal;font-variant-east-asian:normal;font-feature-settings:normal;font-variation-settings:normal;text-indent:0;text-align:start;text-decoration:none;text-decoration-line:none;text-decoration-style:solid;text-decoration-color:#000000;letter-spacing:normal;word-spacing:normal;text-transform:none;writing-mode:lr-tb;direction:ltr;text-orientation:mixed;dominant-baseline:auto;baseline-shift:baseline;text-anchor:start;white-space:normal;shape-padding:0;shape-margin:0;inline-size:0;clip-rule:nonzero;display:inline;overflow:visible;visibility:visible;isolation:auto;mix-blend-mode:normal;color-interpolation:sRGB;color-interpolation-filters:linearRGB;solid-color:#000000;solid-opacity:1;vector-effect:none;fill:#000000;fill-opacity:1;fill-rule:nonzero;stroke:none;stroke-width:0.9;stroke-linecap:butt;stroke-linejoin:miter;stroke-miterlimit:4;stroke-dasharray:none;stroke-dashoffset:0;stroke-opacity:1;color-rendering:auto;image-rendering:auto;shape-rendering:auto;text-rendering:auto;enable-background:accumulate;stop-color:#000000"
           d="m 141.23574,466.71927 -1.19687,0.5931"
           id="path1114" />
        <path
           style="color:#000000;font-style:normal;font-variant:normal;font-weight:normal;font-stretch:normal;font-size:medium;line-height:normal;font-family:sans-serif;font-variant-ligatures:normal;font-variant-position:normal;font-variant-caps:normal;font-variant-numeric:normal;font-variant-alternates:normal;font-variant-east-asian:normal;font-feature-settings:normal;font-variation-settings:normal;text-indent:0;text-align:start;text-decoration:none;text-decoration-line:none;text-decoration-style:solid;text-decoration-color:#000000;letter-spacing:normal;word-spacing:normal;text-transform:none;writing-mode:lr-tb;direction:ltr;text-orientation:mixed;dominant-baseline:auto;baseline-shift:baseline;text-anchor:start;white-space:normal;shape-padding:0;shape-margin:0;inline-size:0;clip-rule:nonzero;display:inline;overflow:visible;visibility:visible;isolation:auto;mix-blend-mode:normal;color-interpolation:sRGB;color-interpolation-filters:linearRGB;solid-color:#000000;solid-opacity:1;vector-effect:none;fill:#000000;fill-opacity:1;fill-rule:nonzero;stroke:none;stroke-width:0.9;stroke-linecap:butt;stroke-linejoin:miter;stroke-miterlimit:4;stroke-dasharray:none;stroke-dashoffset:0;stroke-opacity:1;color-rendering:auto;image-rendering:auto;shape-rendering:auto;text-rendering:auto;enable-background:accumulate;stop-color:#000000"
           d="m 141.03516,466.31641 c 0,0 -0.95375,0.49601 -1.03126,0.95898 -0.0274,0.16373 -0.0446,0.32939 0.23438,0.43945 0.16385,0.0646 1.19727,-0.59179 1.19727,-0.59179 z"
           id="path1116"
           sodipodi:nodetypes="cascc" />
        <g
           id="g966"
           style="opacity:1">
          <path
             style="color:#000000;font-style:normal;font-variant:normal;font-weight:normal;font-stretch:normal;font-size:medium;line-height:normal;font-family:sans-serif;font-variant-ligatures:normal;font-variant-position:normal;font-variant-caps:normal;font-variant-numeric:normal;font-variant-alternates:normal;font-variant-east-asian:normal;font-feature-settings:normal;font-variation-settings:normal;text-indent:0;text-align:start;text-decoration:none;text-decoration-line:none;text-decoration-style:solid;text-decoration-color:#000000;letter-spacing:normal;word-spacing:normal;text-transform:none;writing-mode:lr-tb;direction:ltr;text-orientation:mixed;dominant-baseline:auto;baseline-shift:baseline;text-anchor:start;white-space:normal;shape-padding:0;shape-margin:0;inline-size:0;clip-rule:nonzero;display:inline;overflow:visible;visibility:visible;isolation:auto;mix-blend-mode:normal;color-interpolation:sRGB;color-interpolation-filters:linearRGB;solid-color:#000000;solid-opacity:1;vector-effect:none;fill:#000000;fill-opacity:1;fill-rule:nonzero;stroke:none;stroke-width:0.6;stroke-linecap:butt;stroke-linejoin:miter;stroke-miterlimit:4;stroke-dasharray:none;stroke-dashoffset:0;stroke-opacity:1;color-rendering:auto;image-rendering:auto;shape-rendering:auto;text-rendering:auto;enable-background:accumulate;stop-color:#000000;stop-opacity:1"
             d="m 137.65316,467.716 c -1.64877,0.25366 -3.29837,0.50745 -4.9488,0.76136"
             id="path968" />
          <path
             style="color:#000000;font-style:normal;font-variant:normal;font-weight:normal;font-stretch:normal;font-size:medium;line-height:normal;font-family:sans-serif;font-variant-ligatures:normal;font-variant-position:normal;font-variant-caps:normal;font-variant-numeric:normal;font-variant-alternates:normal;font-variant-east-asian:normal;font-feature-settings:normal;font-variation-settings:normal;text-indent:0;text-align:start;text-decoration:none;text-decoration-line:none;text-decoration-style:solid;text-decoration-color:#000000;letter-spacing:normal;word-spacing:normal;text-transform:none;writing-mode:lr-tb;direction:ltr;text-orientation:mixed;dominant-baseline:auto;baseline-shift:baseline;text-anchor:start;white-space:normal;shape-padding:0;shape-margin:0;inline-size:0;clip-rule:nonzero;display:inline;overflow:visible;visibility:visible;isolation:auto;mix-blend-mode:normal;color-interpolation:sRGB;color-interpolation-filters:linearRGB;solid-color:#000000;solid-opacity:1;vector-effect:none;fill:#000000;fill-opacity:1;fill-rule:nonzero;stroke:none;stroke-width:0.6;stroke-linecap:butt;stroke-linejoin:miter;stroke-miterlimit:4;stroke-dasharray:none;stroke-dashoffset:0;stroke-opacity:1;color-rendering:auto;image-rendering:auto;shape-rendering:auto;text-rendering:auto;enable-background:accumulate;stop-color:#000000;stop-opacity:1"
             d="m 137.60742,467.41992 c -1.64877,0.25366 -3.29879,0.50781 -4.94922,0.76172 l -0.0801,0.38868 c 1.65043,-0.25391 3.42626,-0.60066 5.07503,-0.85432 z"
             id="path970"
             sodipodi:nodetypes="ccccc" />
        </g>
        <g
           id="g972"
           style="opacity:1">
          <path
             style="color:#000000;font-style:normal;font-variant:normal;font-weight:normal;font-stretch:normal;font-size:medium;line-height:normal;font-family:sans-serif;font-variant-ligatures:normal;font-variant-position:normal;font-variant-caps:normal;font-variant-numeric:normal;font-variant-alternates:normal;font-variant-east-asian:normal;font-feature-settings:normal;font-variation-settings:normal;text-indent:0;text-align:start;text-decoration:none;text-decoration-line:none;text-decoration-style:solid;text-decoration-color:#000000;letter-spacing:normal;word-spacing:normal;text-transform:none;writing-mode:lr-tb;direction:ltr;text-orientation:mixed;dominant-baseline:auto;baseline-shift:baseline;text-anchor:start;white-space:normal;shape-padding:0;shape-margin:0;inline-size:0;clip-rule:nonzero;display:inline;overflow:visible;visibility:visible;isolation:auto;mix-blend-mode:normal;color-interpolation:sRGB;color-interpolation-filters:linearRGB;solid-color:#000000;solid-opacity:1;vector-effect:none;fill:#000000;fill-opacity:1;fill-rule:nonzero;stroke:none;stroke-width:0.6;stroke-linecap:butt;stroke-linejoin:miter;stroke-miterlimit:4;stroke-dasharray:none;stroke-dashoffset:0;stroke-opacity:1;color-rendering:auto;image-rendering:auto;shape-rendering:auto;text-rendering:auto;enable-background:accumulate;stop-color:#000000;stop-opacity:1"
             d="m 139.17586,468.98711 c -1.36395,1.04675 -2.72804,2.0936 -4.09227,3.14057"
             id="path974" />
          <path
             style="color:#000000;font-style:normal;font-variant:normal;font-weight:normal;font-stretch:normal;font-size:medium;line-height:normal;font-family:sans-serif;font-variant-ligatures:normal;font-variant-position:normal;font-variant-caps:normal;font-variant-numeric:normal;font-variant-alternates:normal;font-variant-east-asian:normal;font-feature-settings:normal;font-variation-settings:normal;text-indent:0;text-align:start;text-decoration:none;text-decoration-line:none;text-decoration-style:solid;text-decoration-color:#000000;letter-spacing:normal;word-spacing:normal;text-transform:none;writing-mode:lr-tb;direction:ltr;text-orientation:mixed;dominant-baseline:auto;baseline-shift:baseline;text-anchor:start;white-space:normal;shape-padding:0;shape-margin:0;inline-size:0;clip-rule:nonzero;display:inline;overflow:visible;visibility:visible;isolation:auto;mix-blend-mode:normal;color-interpolation:sRGB;color-interpolation-filters:linearRGB;solid-color:#000000;solid-opacity:1;vector-effect:none;fill:#000000;fill-opacity:1;fill-rule:nonzero;stroke:none;stroke-width:0.6;stroke-linecap:butt;stroke-linejoin:miter;stroke-miterlimit:4;stroke-dasharray:none;stroke-dashoffset:0;stroke-opacity:1;color-rendering:auto;image-rendering:auto;shape-rendering:auto;text-rendering:auto;enable-background:accumulate;stop-color:#000000;stop-opacity:1"
             d="m 138.99414,468.75 c -1.36395,1.04675 -2.42483,2.01553 -3.78906,3.0625 l 0.0605,0.55273 c 1.36423,-1.04696 2.54628,-2.33137 3.91024,-3.37812 z"
             id="path976"
             sodipodi:nodetypes="ccccc" />
        </g>
        <path
           style="color:#000000;font-style:normal;font-variant:normal;font-weight:normal;font-stretch:normal;font-size:medium;line-height:normal;font-family:sans-serif;font-variant-ligatures:normal;font-variant-position:normal;font-variant-caps:normal;font-variant-numeric:normal;font-variant-alternates:normal;font-variant-east-asian:normal;font-feature-settings:normal;font-variation-settings:normal;text-indent:0;text-align:start;text-decoration:none;text-decoration-line:none;text-decoration-style:solid;text-decoration-color:#000000;letter-spacing:normal;word-spacing:normal;text-transform:none;writing-mode:lr-tb;direction:ltr;text-orientation:mixed;dominant-baseline:auto;baseline-shift:baseline;text-anchor:start;white-space:normal;shape-padding:0;shape-margin:0;inline-size:0;clip-rule:nonzero;display:inline;overflow:visible;visibility:visible;opacity:1;isolation:auto;mix-blend-mode:normal;color-interpolation:sRGB;color-interpolation-filters:linearRGB;solid-color:#000000;solid-opacity:1;vector-effect:none;fill:#000000;fill-opacity:1;fill-rule:nonzero;stroke:none;stroke-width:0.8;stroke-linecap:butt;stroke-linejoin:miter;stroke-miterlimit:4;stroke-dasharray:none;stroke-dashoffset:0;stroke-opacity:1;color-rendering:auto;image-rendering:auto;shape-rendering:auto;text-rendering:auto;enable-background:accumulate;stop-color:#000000;stop-opacity:1"
           d="m 134.41211,473.61914 c -0.50805,0.17495 -1.06305,0.60813 -1.32813,1.48633 -0.26508,0.87818 -0.31542,2.19241 0.0215,3.72265 0.33689,1.53016 1.05316,3.22222 1.75976,4.9004 0,0 0.16338,0.0912 0.46408,-0.0289 0.26125,-0.10431 0.27421,-0.28164 0.27421,-0.28164 -0.7066,-1.67817 -1.40495,-3.34532 -1.7168,-4.76172 -0.31183,-1.41632 -0.24371,-2.63587 -0.0371,-3.32031 0.20658,-0.68442 0.47508,-0.84139 0.82227,-0.96094 0.3474,-0.11962 0.61123,-0.11543 0.85742,0.082 0.24671,0.19789 0.5442,0.73354 0.72461,1.31055 0.18161,0.58083 0.27056,1.19647 0.58984,1.91406 0.32037,0.72007 0.83393,1.43856 1.33398,2.14453 0,0 0.16893,0.14594 0.47817,-0.0821 0.2781,-0.20511 0.17418,-0.38076 0.17418,-0.38076 -0.50006,-0.70597 -0.98634,-1.40007 -1.25586,-2.00586 -0.27064,-0.60827 -0.35154,-1.17218 -0.55664,-1.82812 -0.20629,-0.65978 -0.49688,-1.30273 -0.98633,-1.69532 -0.48999,-0.393 -1.11131,-0.3897 -1.61914,-0.21484 z"
           id="path980"
           sodipodi:nodetypes="ssscscsssssscscsssss" />
        <path
           sodipodi:nodetypes="sassss"
           d="m 124.68318,462.4781 c 0.5848,0.82931 0.14022,2.03202 -0.48029,2.70595 -0.39351,0.42738 -1.20182,0.44494 -1.68511,0.44494 -1.20812,0 -1.75,-1.37113 -1.75,-3.0625 0,-1.69137 -1.27506,-1.99112 -0.0669,-1.99112 1.20812,0 3.31943,0.96265 3.98234,1.90273 z"
           style="fill:#000000;fill-opacity:1;fill-rule:evenodd;stroke:none;stroke-width:0;stroke-linecap:round;stroke-miterlimit:4;stroke-dasharray:none;stroke-opacity:1;paint-order:fill markers stroke"
           id="path1017" />
      </g>
      <g
         style="opacity:1"
         id="g1094"
         transform="matrix(1.5,0,0,1.5,-41.768388,-246.90827)">
        <path
           id="path1096"
           d="m 90.5,490.25 c -2.082492,0.0801 -4.33237,0.16663 -6.248939,-0.0415 C 82.334493,490.00035 80.667862,489.50036 79,489"
           style="color:#000000;font-style:normal;font-variant:normal;font-weight:normal;font-stretch:normal;font-size:medium;line-height:normal;font-family:sans-serif;font-variant-ligatures:normal;font-variant-position:normal;font-variant-caps:normal;font-variant-numeric:normal;font-variant-alternates:normal;font-variant-east-asian:normal;font-feature-settings:normal;font-variation-settings:normal;text-indent:0;text-align:start;text-decoration:none;text-decoration-line:none;text-decoration-style:solid;text-decoration-color:#000000;letter-spacing:normal;word-spacing:normal;text-transform:none;writing-mode:lr-tb;direction:ltr;text-orientation:mixed;dominant-baseline:auto;baseline-shift:baseline;text-anchor:start;white-space:normal;shape-padding:0;shape-margin:0;inline-size:0;clip-rule:nonzero;display:inline;overflow:visible;visibility:visible;isolation:auto;mix-blend-mode:normal;color-interpolation:sRGB;color-interpolation-filters:linearRGB;solid-color:#000000;solid-opacity:1;vector-effect:none;fill:#c2ab9b;fill-opacity:1;fill-rule:nonzero;stroke:none;stroke-width:1.2;stroke-linecap:butt;stroke-linejoin:miter;stroke-miterlimit:4;stroke-dasharray:none;stroke-dashoffset:0;stroke-opacity:1;color-rendering:auto;image-rendering:auto;shape-rendering:auto;text-rendering:auto;enable-background:accumulate;stop-color:#000000;stop-opacity:1" />
        <path
           sodipodi:nodetypes="cssssssc"
           id="path1098"
           d="m 79.171875,488.42578 c 0,0 -1.383222,0.17571 -0.34375,1.14844 1.861936,1.74239 3.508021,1.58974 5.490005,1.80499 1.98442,0.21551 3.922999,0.17547 6.205308,-0.52962 0.382219,-0.11808 0.880845,-1.13026 -0.04688,-1.19922 -1.799197,-0.13375 -3.38336,0.0733 -5.232078,-0.12749 -1.851154,-0.20104 -3.920329,-1.05065 -6.072609,-1.09716 -1.8e-5,0 4e-6,6e-5 4e-6,6e-5 z"
           style="color:#000000;font-style:normal;font-variant:normal;font-weight:normal;font-stretch:normal;font-size:medium;line-height:normal;font-family:sans-serif;font-variant-ligatures:normal;font-variant-position:normal;font-variant-caps:normal;font-variant-numeric:normal;font-variant-alternates:normal;font-variant-east-asian:normal;font-feature-settings:normal;font-variation-settings:normal;text-indent:0;text-align:start;text-decoration:none;text-decoration-line:none;text-decoration-style:solid;text-decoration-color:#000000;letter-spacing:normal;word-spacing:normal;text-transform:none;writing-mode:lr-tb;direction:ltr;text-orientation:mixed;dominant-baseline:auto;baseline-shift:baseline;text-anchor:start;white-space:normal;shape-padding:0;shape-margin:0;inline-size:0;clip-rule:nonzero;display:inline;overflow:visible;visibility:visible;isolation:auto;mix-blend-mode:normal;color-interpolation:sRGB;color-interpolation-filters:linearRGB;solid-color:#000000;solid-opacity:1;vector-effect:none;fill:#c2ab9b;fill-opacity:1;fill-rule:nonzero;stroke:none;stroke-width:1.2;stroke-linecap:butt;stroke-linejoin:miter;stroke-miterlimit:4;stroke-dasharray:none;stroke-dashoffset:0;stroke-opacity:1;color-rendering:auto;image-rendering:auto;shape-rendering:auto;text-rendering:auto;enable-background:accumulate;stop-color:#000000;stop-opacity:1" />
      </g>
      <g
         transform="matrix(1.5,0,0,1.5,-42.36501,-239.47456)"
         id="g1104"
         style="opacity:1">
        <path
           style="color:#000000;font-style:normal;font-variant:normal;font-weight:normal;font-stretch:normal;font-size:medium;line-height:normal;font-family:sans-serif;font-variant-ligatures:normal;font-variant-position:normal;font-variant-caps:normal;font-variant-numeric:normal;font-variant-alternates:normal;font-variant-east-asian:normal;font-feature-settings:normal;font-variation-settings:normal;text-indent:0;text-align:start;text-decoration:none;text-decoration-line:none;text-decoration-style:solid;text-decoration-color:#000000;letter-spacing:normal;word-spacing:normal;text-transform:none;writing-mode:lr-tb;direction:ltr;text-orientation:mixed;dominant-baseline:auto;baseline-shift:baseline;text-anchor:start;white-space:normal;shape-padding:0;shape-margin:0;inline-size:0;clip-rule:nonzero;display:inline;overflow:visible;visibility:visible;isolation:auto;mix-blend-mode:normal;color-interpolation:sRGB;color-interpolation-filters:linearRGB;solid-color:#000000;solid-opacity:1;vector-effect:none;fill:#c2ab9b;fill-opacity:1;fill-rule:nonzero;stroke:none;stroke-width:1.2;stroke-linecap:butt;stroke-linejoin:miter;stroke-miterlimit:4;stroke-dasharray:none;stroke-dashoffset:0;stroke-opacity:1;color-rendering:auto;image-rendering:auto;shape-rendering:auto;text-rendering:auto;enable-background:accumulate;stop-color:#000000;stop-opacity:1"
           d="m 90.5,490.25 c -2.082492,0.0801 -4.33237,0.16663 -6.248939,-0.0415 C 82.334493,490.00035 80.667862,489.50036 79,489"
           id="path1100" />
        <path
           style="color:#000000;font-style:normal;font-variant:normal;font-weight:normal;font-stretch:normal;font-size:medium;line-height:normal;font-family:sans-serif;font-variant-ligatures:normal;font-variant-position:normal;font-variant-caps:normal;font-variant-numeric:normal;font-variant-alternates:normal;font-variant-east-asian:normal;font-feature-settings:normal;font-variation-settings:normal;text-indent:0;text-align:start;text-decoration:none;text-decoration-line:none;text-decoration-style:solid;text-decoration-color:#000000;letter-spacing:normal;word-spacing:normal;text-transform:none;writing-mode:lr-tb;direction:ltr;text-orientation:mixed;dominant-baseline:auto;baseline-shift:baseline;text-anchor:start;white-space:normal;shape-padding:0;shape-margin:0;inline-size:0;clip-rule:nonzero;display:inline;overflow:visible;visibility:visible;isolation:auto;mix-blend-mode:normal;color-interpolation:sRGB;color-interpolation-filters:linearRGB;solid-color:#000000;solid-opacity:1;vector-effect:none;fill:#c2ab9b;fill-opacity:1;fill-rule:nonzero;stroke:none;stroke-width:1.2;stroke-linecap:butt;stroke-linejoin:miter;stroke-miterlimit:4;stroke-dasharray:none;stroke-dashoffset:0;stroke-opacity:1;color-rendering:auto;image-rendering:auto;shape-rendering:auto;text-rendering:auto;enable-background:accumulate;stop-color:#000000;stop-opacity:1"
           d="m 79.171875,488.42578 c 0,0 -1.383221,0.17571 -0.34375,1.14844 0.580519,0.54325 1.523682,0.61993 2.120351,0.83968 1.317065,0.48507 2.314977,0.64039 3.679013,0.78853 1.616458,0.17555 2.953036,0.25464 4.643097,-0.0868 0.384717,-0.0777 0.829654,-0.13532 1.252852,-0.26606 0.382219,-0.11808 1.234398,-1.43962 0.306673,-1.50858 -1.799197,-0.13375 -3.736913,0.38266 -5.585631,0.18187 -1.851154,-0.20104 -4.494853,-1.66937 -6.072609,-1.09716 -1.7e-5,10e-6 4e-6,6e-5 4e-6,6e-5 z"
           id="path1102"
           sodipodi:nodetypes="cssssssssc" />
      </g>
      <g
         transform="matrix(1.5,0,0,1.5,-41.838347,-231.70861)"
         id="g1110"
         style="opacity:1">
        <path
           style="color:#000000;font-style:normal;font-variant:normal;font-weight:normal;font-stretch:normal;font-size:medium;line-height:normal;font-family:sans-serif;font-variant-ligatures:normal;font-variant-position:normal;font-variant-caps:normal;font-variant-numeric:normal;font-variant-alternates:normal;font-variant-east-asian:normal;font-feature-settings:normal;font-variation-settings:normal;text-indent:0;text-align:start;text-decoration:none;text-decoration-line:none;text-decoration-style:solid;text-decoration-color:#000000;letter-spacing:normal;word-spacing:normal;text-transform:none;writing-mode:lr-tb;direction:ltr;text-orientation:mixed;dominant-baseline:auto;baseline-shift:baseline;text-anchor:start;white-space:normal;shape-padding:0;shape-margin:0;inline-size:0;clip-rule:nonzero;display:inline;overflow:visible;visibility:visible;isolation:auto;mix-blend-mode:normal;color-interpolation:sRGB;color-interpolation-filters:linearRGB;solid-color:#000000;solid-opacity:1;vector-effect:none;fill:#c2ab9b;fill-opacity:1;fill-rule:nonzero;stroke:none;stroke-width:1.2;stroke-linecap:butt;stroke-linejoin:miter;stroke-miterlimit:4;stroke-dasharray:none;stroke-dashoffset:0;stroke-opacity:1;color-rendering:auto;image-rendering:auto;shape-rendering:auto;text-rendering:auto;enable-background:accumulate;stop-color:#000000;stop-opacity:1"
           d="m 90.5,490.25 c -2.082492,0.0801 -4.33237,0.16663 -6.248939,-0.0415 C 82.334493,490.00035 80.667862,489.50036 79,489"
           id="path1106" />
        <path
           style="color:#000000;font-style:normal;font-variant:normal;font-weight:normal;font-stretch:normal;font-size:medium;line-height:normal;font-family:sans-serif;font-variant-ligatures:normal;font-variant-position:normal;font-variant-caps:normal;font-variant-numeric:normal;font-variant-alternates:normal;font-variant-east-asian:normal;font-feature-settings:normal;font-variation-settings:normal;text-indent:0;text-align:start;text-decoration:none;text-decoration-line:none;text-decoration-style:solid;text-decoration-color:#000000;letter-spacing:normal;word-spacing:normal;text-transform:none;writing-mode:lr-tb;direction:ltr;text-orientation:mixed;dominant-baseline:auto;baseline-shift:baseline;text-anchor:start;white-space:normal;shape-padding:0;shape-margin:0;inline-size:0;clip-rule:nonzero;display:inline;overflow:visible;visibility:visible;isolation:auto;mix-blend-mode:normal;color-interpolation:sRGB;color-interpolation-filters:linearRGB;solid-color:#000000;solid-opacity:1;vector-effect:none;fill:#c2ab9b;fill-opacity:1;fill-rule:nonzero;stroke:none;stroke-width:1.2;stroke-linecap:butt;stroke-linejoin:miter;stroke-miterlimit:4;stroke-dasharray:none;stroke-dashoffset:0;stroke-opacity:1;color-rendering:auto;image-rendering:auto;shape-rendering:auto;text-rendering:auto;enable-background:accumulate;stop-color:#000000;stop-opacity:1"
           d="m 79.171875,488.42578 c 0,0 -1.383222,0.61765 -0.34375,1.59038 1.861936,1.74239 3.508021,1.1478 5.490005,1.36305 1.98442,0.21551 3.746222,0.24176 6.028531,-0.46333 0.382219,-0.11808 0.394709,-1.41752 -0.533016,-1.48648 -1.799197,-0.13375 -2.720447,0.29427 -4.569165,0.0935 -1.851154,-0.20104 -3.920329,-1.05065 -6.072609,-1.09716 -1.8e-5,0 4e-6,6e-5 4e-6,6e-5 z"
           id="path1108"
           sodipodi:nodetypes="csssssscc" />
      </g>
      <path
         id="path963"
         style="opacity:1;fill:#000000;fill-rule:evenodd;stroke:none;stroke-width:2.84469;stroke-linecap:round;paint-order:fill markers stroke"
         d="m 107.44576,454.85927 c -0.0545,0.27552 -0.15225,0.55986 -0.345,0.76869 -0.32436,0.35142 -0.6624,0.67728 -1.27497,0.67728 -0.67263,0 -1.29984,-0.27418 -1.60436,-0.76492 -0.14205,-0.2288 -0.18138,-0.55007 -0.18138,-0.83021 0,-0.53484 0.40239,-0.70245 0.85461,-0.95344 0.29268,-0.16245 0.58913,-0.32693 0.93113,-0.5091 0.24891,-0.1326 0.51909,-0.19487 0.73435,-0.1125 0.63767,0.2433 0.82932,0.91696 0.86906,1.19398 0.0252,0.17576 0.0509,0.35676 0.0165,0.53022 z"
         sodipodi:nodetypes="assssssssaa" />
    </g>
  </g>
</svg>
