<?xml version="1.0" encoding="UTF-8" standalone="no"?>
<svg
   xmlns:dc="http://purl.org/dc/elements/1.1/"
   xmlns:cc="http://creativecommons.org/ns#"
   xmlns:rdf="http://www.w3.org/1999/02/22-rdf-syntax-ns#"
   xmlns:svg="http://www.w3.org/2000/svg"
   xmlns="http://www.w3.org/2000/svg"
   xmlns:sodipodi="http://sodipodi.sourceforge.net/DTD/sodipodi-0.dtd"
   xmlns:inkscape="http://www.inkscape.org/namespaces/inkscape"
   inkscape:version="1.0 (4035a4fb49, 2020-05-01)"
   sodipodi:docname="kitty_ball_2.svg"
   viewBox="0 0 81.692123 90.626579"
   height="90.626579"
   width="81.692123"
   id="svg962"
   version="1.1">
  <metadata
     id="metadata968">
    <rdf:RDF>
      <cc:Work
         rdf:about="">
        <dc:format>image/svg+xml</dc:format>
        <dc:type
           rdf:resource="http://purl.org/dc/dcmitype/StillImage" />
        <dc:title></dc:title>
      </cc:Work>
    </rdf:RDF>
  </metadata>
  <defs
     id="defs966">
    <inkscape:path-effect
       effect="bspline"
       id="path-effect1569"
       is_visible="true"
       lpeversion="1"
       weight="33.333333"
       steps="2"
       helper_size="0"
       apply_no_weight="true"
       apply_with_weight="true"
       only_selected="false" />
    <inkscape:path-effect
       only_selected="false"
       apply_with_weight="true"
       apply_no_weight="true"
       helper_size="0"
       steps="2"
       weight="33.333333"
       lpeversion="1"
       is_visible="true"
       id="path-effect1565"
       effect="bspline" />
    <inkscape:path-effect
       only_selected="false"
       apply_with_weight="true"
       apply_no_weight="true"
       helper_size="0"
       steps="2"
       weight="33.333333"
       lpeversion="1"
       is_visible="true"
       id="path-effect1544"
       effect="bspline" />
    <inkscape:path-effect
       only_selected="false"
       apply_with_weight="true"
       apply_no_weight="true"
       helper_size="0"
       steps="2"
       weight="33.333333"
       lpeversion="1"
       is_visible="true"
       id="path-effect1540"
       effect="bspline" />
  </defs>
  <sodipodi:namedview
     fit-margin-bottom="0"
     fit-margin-right="0"
     fit-margin-left="0"
     fit-margin-top="0"
     inkscape:current-layer="g1581"
     inkscape:window-maximized="1"
     inkscape:window-y="-8"
     inkscape:window-x="-8"
     inkscape:cy="53.124969"
     inkscape:cx="109.2247"
     inkscape:zoom="1"
     showgrid="false"
     id="namedview964"
     inkscape:window-height="1017"
     inkscape:window-width="1920"
     inkscape:pageshadow="2"
     inkscape:pageopacity="0"
     guidetolerance="10"
     gridtolerance="10"
     objecttolerance="10"
     borderopacity="1"
     bordercolor="#666666"
     pagecolor="#ffffff" />
  <g
     transform="translate(-424.08079,-366.12674)"
     id="g970"
     inkscape:label="Image"
     inkscape:groupmode="layer">
    <g
       id="g1548" />
    <g
       transform="translate(-71.576523,6.5419403)"
       id="g1581">
      <g
         transform="matrix(0.81,0,0,0.81,14.654011,7.7224727)"
         id="g1797">
        <g
           id="g1782">
          <path
             id="path1535"
             style="fill:#e5e8ec;fill-opacity:1;fill-rule:evenodd;stroke:#000000;stroke-width:2;stroke-linecap:round;stroke-miterlimit:4;stroke-dasharray:none;stroke-opacity:1;paint-order:fill markers stroke"
             d="m 693.64132,491.80561 c 1.10565,28.45758 -18.42085,52.32048 -47.30317,53.44264 -28.88232,1.12216 -50.37046,-25.50424 -51.47611,-53.96182 -0.22379,-5.75984 0.77287,-13.53056 3.57195,-20.13001 3.04426,-7.17748 7.9222,-12.95796 7.9222,-12.95796 0,0 0.15105,-18.58056 6.03186,-22.14211 3.80258,-2.30293 14.26939,7.8464 14.26939,7.8464 0,0 11.30171,-1.3999 15.82329,-1.44189 9.21083,-0.0856 14.94263,2.27997 14.94263,2.27997 0,0 11.80393,-10.30844 16.5001,-9.25853 1.7318,0.38718 4.71176,16.63583 4.71176,16.63583 0,0 5.421,6.78511 9.12671,15.25495 3.68236,8.41649 5.64886,18.49913 5.87939,24.43253 z"
             sodipodi:nodetypes="sssscscscscss" />
          <g
             transform="rotate(-2.2249778,2070.1169,-2134.7241)"
             id="g1596">
            <g
               id="g1587">
              <path
                 inkscape:original-d="m 546.82924,417.33731 c -1.66655,2.50233 -3.3341,5.13193 -5.00266,7.6964"
                 inkscape:path-effect="#path-effect1540"
                 id="path1538"
                 d="m 546.82924,417.33731 c -1.63841,2.52062 -3.33526,5.13117 -5.00266,7.6964"
                 style="fill:none;stroke:#000000;stroke-width:2;stroke-linecap:butt;stroke-linejoin:miter;stroke-miterlimit:4;stroke-dasharray:none;stroke-opacity:1" />
              <path
                 inkscape:original-d="m 540.86453,419.64623 c 2.30992,1.66855 4.61884,3.46438 6.92676,5.19507"
                 inkscape:path-effect="#path-effect1544"
                 id="path1542"
                 d="m 540.86453,419.64623 c 2.27925,1.70944 4.61896,3.46422 6.92676,5.19507"
                 style="fill:none;stroke:#000000;stroke-width:2;stroke-linecap:butt;stroke-linejoin:miter;stroke-miterlimit:4;stroke-dasharray:none;stroke-opacity:1" />
              <ellipse
                 style="fill:#000000;fill-opacity:1;fill-rule:evenodd;stroke-width:2;stroke-linecap:round;stroke-miterlimit:4;stroke-dasharray:none;paint-order:fill markers stroke"
                 id="path1550"
                 cx="526.91486"
                 cy="412.43085"
                 rx="3.3224912"
                 ry="3.9444051" />
              <ellipse
                 ry="3.9444051"
                 rx="3.1747651"
                 cy="412.04605"
                 cx="559.62457"
                 id="ellipse1552"
                 style="fill:#000000;fill-opacity:1;fill-rule:evenodd;stroke-width:2;stroke-linecap:round;stroke-miterlimit:4;stroke-dasharray:none;paint-order:fill markers stroke" />
            </g>
            <path
               sodipodi:nodetypes="ccccccac"
               inkscape:original-d="m 501.8053,433.69216 c -0.38382,-2.50033 -0.76864,-5.00166 -1.15446,-7.50399 0.70652,-2.69279 1.41201,-5.38648 2.11651,-8.08122 1.09135,-1.02521 2.18165,-2.05137 3.27097,-3.07856 1.28376,0.89893 2.4382,1.79683 3.65579,2.69374 0.96307,2.3741 1.9251,4.74711 2.88615,7.11917 0.0651,1.861 0.12927,3.72093 0.19241,5.57989 0.25755,2.24578 0.51409,4.49057 0.76964,6.73435"
               inkscape:path-effect="#path-effect1565"
               id="path1563"
               d="m 501.8053,433.69216 c -0.38465,-2.5002 -0.76947,-5.00153 -0.6093,-7.59931 0.16018,-2.59778 0.86567,-5.29147 1.7637,-7.15181 0.89803,-1.86033 1.98833,-2.88649 3.16413,-2.93488 1.17581,-0.0484 2.35281,0.81889 3.44283,2.45458 1.09001,1.6357 2.05204,4.00871 2.56491,6.12515 0.51286,2.11644 0.577,3.97637 0.73739,6.02878 0.16038,2.0524 0.41693,4.29719 0.67335,6.54087"
               style="fill:none;stroke:#000000;stroke-width:2;stroke-linecap:butt;stroke-linejoin:miter;stroke-miterlimit:4;stroke-dasharray:none;stroke-opacity:1" />
            <path
               sodipodi:nodetypes="cccccccc"
               style="fill:none;stroke:#000000;stroke-width:2;stroke-linecap:butt;stroke-linejoin:miter;stroke-miterlimit:4;stroke-dasharray:none;stroke-opacity:1"
               d="m 585.4478,442.3973 c 0.24866,-2.77221 0.49742,-5.54565 0.26919,-8.27953 -0.22823,-2.73389 -0.93372,-5.42758 -1.6503,-7.33322 -0.71658,-1.90563 -1.41776,-2.9821 -2.6131,-3.04916 -1.19533,-0.0671 -2.72277,0.88782 -3.99404,2.56884 -1.27128,1.68102 -2.23331,4.05403 -2.78604,6.17034 -0.55273,2.11632 -0.69655,3.97603 -0.85692,6.0288 -0.16037,2.05277 -0.33722,4.29751 -0.51396,6.54098"
               id="path1567"
               inkscape:path-effect="#path-effect1569"
               inkscape:original-d="m 585.4478,442.3973 c 0.24974,-2.77211 0.4985,-5.54555 0.7463,-8.32032 -0.70652,-2.69279 -1.41201,-5.38648 -2.11651,-8.08122 -0.72724,-1.117 -1.42842,-2.19347 -2.18253,-3.35067 -1.63607,1.02441 -3.16351,1.97929 -4.74423,2.96585 -0.96307,2.3741 -1.9251,4.74711 -2.88615,7.11917 -0.14283,1.86086 -0.28664,3.72057 -0.43151,5.57989 -0.17588,2.24622 -0.35272,4.49096 -0.53054,6.73435" />
          </g>
        </g>
        <g
           id="g1765"
           style="fill:#bfa897;fill-opacity:1">
          <path
             id="path1535-0"
             style="fill:#bfa897;fill-opacity:1;fill-rule:evenodd;stroke:none;stroke-width:2;stroke-linecap:round;stroke-miterlimit:4;stroke-dasharray:none;stroke-opacity:1;paint-order:fill markers stroke"
             d="m 647.03829,443.60791 c -0.14649,0.48267 -0.29292,0.9421 -0.43763,1.45973 -1.38166,4.94245 -0.68822,7.73219 0.57481,7.92312 1.26305,0.19094 3.55165,-2.67351 3.99799,-7.23138 0.0836,-0.55336 0.13464,-1.08674 0.16866,-1.60738 -1.24967,-0.22227 -2.69194,-0.41007 -4.30383,-0.54409 z" />
          <path
             id="path1535-1"
             style="fill:#bfa897;fill-opacity:1;fill-rule:evenodd;stroke:none;stroke-width:2;stroke-linecap:round;stroke-miterlimit:4;stroke-dasharray:none;stroke-opacity:1;paint-order:fill markers stroke"
             d="m 639.11113,443.60009 c -1.39032,0.0967 -2.89904,0.23783 -4.43362,0.38726 -0.32609,0.82693 -0.60972,1.74515 -0.80858,2.73267 -0.78231,3.88482 -0.75666,7.59057 1.04065,7.56686 1.27729,-0.0169 3.41813,-3.18298 4.00443,-6.85594 0.22345,-1.39992 0.27978,-2.71884 0.19712,-3.83085 z" />
        </g>
      </g>
    </g>
  </g>
</svg>
