<?xml version="1.0" encoding="UTF-8" standalone="no"?>
<svg
   xmlns:dc="http://purl.org/dc/elements/1.1/"
   xmlns:cc="http://creativecommons.org/ns#"
   xmlns:rdf="http://www.w3.org/1999/02/22-rdf-syntax-ns#"
   xmlns:svg="http://www.w3.org/2000/svg"
   xmlns="http://www.w3.org/2000/svg"
   width="7.29532mm"
   height="7.4127698mm"
   viewBox="0 0 7.2953202 7.4127701"
   version="1.1"
   id="svg901">
  <defs
     id="defs895" />
  <metadata
     id="metadata898">
    <rdf:RDF>
      <cc:Work
         rdf:about="">
        <dc:format>image/svg+xml</dc:format>
        <dc:type
           rdf:resource="http://purl.org/dc/dcmitype/StillImage" />
        <dc:title></dc:title>
      </cc:Work>
    </rdf:RDF>
  </metadata>
  <g
     style="fill:#000000"
     id="layer1"
     transform="matrix(0.28387501,0,0,0.26587524,-47.820072,-8.5308794)">
    <path
       d="m 174.57387,35.848297 a 1.110839,0.9772042 0 0 0 -0.80512,0.32091 1.110839,0.9772042 0 0 0 -0.0959,-0.004 1.110839,0.9772042 0 0 0 -1.11104,0.97668 1.110839,0.9772042 0 0 0 -0.56793,0.85241 1.110839,0.9772042 0 0 0 0.21265,0.5749 1.110839,0.9772042 0 0 0 -0.22918,0.59454 1.110839,0.9772042 0 0 0 0.65189,0.88986 1.110839,0.9772042 0 0 0 1.11027,0.95602 1.110839,0.9772042 0 0 0 0.16278,-0.0109 1.110839,0.9772042 0 0 0 0.75603,0.26124 1.110839,0.9772042 0 0 0 0.80693,-0.30568 1.110839,0.9772042 0 0 0 0.11188,0.005 1.110839,0.9772042 0 0 0 1.11078,-0.97722 1.110839,0.9772042 0 0 0 -10e-4,-0.0411 1.110839,0.9772042 0 0 0 0.58576,-0.861199 1.110839,0.9772042 0 0 0 -0.19586,-0.5537 1.110839,0.9772042 0 0 0 0.17906,-0.53201 1.110839,0.9772042 0 0 0 -0.61804,-0.87566 1.110839,0.9772042 0 0 0 -1.11079,-0.97022 1.110839,0.9772042 0 0 0 -0.12712,0.006 1.110839,0.9772042 0 0 0 -0.80848,-0.30695 1.110839,0.9772042 0 0 0 -0.0176,0 z"
       style="fill:#000000;fill-opacity:1;fill-rule:evenodd;stroke-width:249.999;stroke-linecap:round;paint-order:fill markers stroke"
       id="path849" />
  </g>
  <g
     transform="matrix(0.41338698,0,0,0.4149361,-67.904665,-12.371567)"
     id="g2081"
     style="fill:#000000">
    <path
       id="path2079"
       style="fill:#000000;fill-opacity:1;fill-rule:evenodd;stroke-width:249.999;stroke-linecap:round;paint-order:fill markers stroke"
       d="m 174.57387,35.848297 a 1.110839,0.9772042 0 0 0 -0.80512,0.32091 1.110839,0.9772042 0 0 0 -0.0959,-0.004 1.110839,0.9772042 0 0 0 -1.11104,0.97668 1.110839,0.9772042 0 0 0 -0.56793,0.85241 1.110839,0.9772042 0 0 0 0.21265,0.5749 1.110839,0.9772042 0 0 0 -0.22918,0.59454 1.110839,0.9772042 0 0 0 0.65189,0.88986 1.110839,0.9772042 0 0 0 1.11027,0.95602 1.110839,0.9772042 0 0 0 0.16278,-0.0109 1.110839,0.9772042 0 0 0 0.75603,0.26124 1.110839,0.9772042 0 0 0 0.80693,-0.30568 1.110839,0.9772042 0 0 0 0.11188,0.005 1.110839,0.9772042 0 0 0 1.11078,-0.97722 1.110839,0.9772042 0 0 0 -10e-4,-0.0411 1.110839,0.9772042 0 0 0 0.58576,-0.861199 1.110839,0.9772042 0 0 0 -0.19586,-0.5537 1.110839,0.9772042 0 0 0 0.17906,-0.53201 1.110839,0.9772042 0 0 0 -0.61804,-0.87566 1.110839,0.9772042 0 0 0 -1.11079,-0.97022 1.110839,0.9772042 0 0 0 -0.12712,0.006 1.110839,0.9772042 0 0 0 -0.80848,-0.30695 1.110839,0.9772042 0 0 0 -0.0176,0 z" />
  </g>
  <g
     style="fill:#000000"
     id="g2085"
     transform="matrix(0.35815394,0,0,0.35717502,-61.189403,-8.0721206)">
    <path
       d="m 174.57387,35.848297 a 1.110839,0.9772042 0 0 0 -0.80512,0.32091 1.110839,0.9772042 0 0 0 -0.0959,-0.004 1.110839,0.9772042 0 0 0 -1.11104,0.97668 1.110839,0.9772042 0 0 0 -0.56793,0.85241 1.110839,0.9772042 0 0 0 0.21265,0.5749 1.110839,0.9772042 0 0 0 -0.22918,0.59454 1.110839,0.9772042 0 0 0 0.65189,0.88986 1.110839,0.9772042 0 0 0 1.11027,0.95602 1.110839,0.9772042 0 0 0 0.16278,-0.0109 1.110839,0.9772042 0 0 0 0.75603,0.26124 1.110839,0.9772042 0 0 0 0.80693,-0.30568 1.110839,0.9772042 0 0 0 0.11188,0.005 1.110839,0.9772042 0 0 0 1.11078,-0.97722 1.110839,0.9772042 0 0 0 -10e-4,-0.0411 1.110839,0.9772042 0 0 0 0.58576,-0.861199 1.110839,0.9772042 0 0 0 -0.19586,-0.5537 1.110839,0.9772042 0 0 0 0.17906,-0.53201 1.110839,0.9772042 0 0 0 -0.61804,-0.87566 1.110839,0.9772042 0 0 0 -1.11079,-0.97022 1.110839,0.9772042 0 0 0 -0.12712,0.006 1.110839,0.9772042 0 0 0 -0.80848,-0.30695 1.110839,0.9772042 0 0 0 -0.0176,0 z"
       style="fill:#000000;fill-opacity:1;fill-rule:evenodd;stroke-width:249.999;stroke-linecap:round;paint-order:fill markers stroke"
       id="path2083" />
  </g>
  <g
     transform="matrix(0.29720713,0,0,0.30314046,-46.038392,-5.8930839)"
     id="g2089"
     style="fill:#000000">
    <path
       id="path2087"
       style="fill:#000000;fill-opacity:1;fill-rule:evenodd;stroke-width:249.999;stroke-linecap:round;paint-order:fill markers stroke"
       d="m 174.57387,35.848297 a 1.110839,0.9772042 0 0 0 -0.80512,0.32091 1.110839,0.9772042 0 0 0 -0.0959,-0.004 1.110839,0.9772042 0 0 0 -1.11104,0.97668 1.110839,0.9772042 0 0 0 -0.56793,0.85241 1.110839,0.9772042 0 0 0 0.21265,0.5749 1.110839,0.9772042 0 0 0 -0.22918,0.59454 1.110839,0.9772042 0 0 0 0.65189,0.88986 1.110839,0.9772042 0 0 0 1.11027,0.95602 1.110839,0.9772042 0 0 0 0.16278,-0.0109 1.110839,0.9772042 0 0 0 0.75603,0.26124 1.110839,0.9772042 0 0 0 0.80693,-0.30568 1.110839,0.9772042 0 0 0 0.11188,0.005 1.110839,0.9772042 0 0 0 1.11078,-0.97722 1.110839,0.9772042 0 0 0 -10e-4,-0.0411 1.110839,0.9772042 0 0 0 0.58576,-0.861199 1.110839,0.9772042 0 0 0 -0.19586,-0.5537 1.110839,0.9772042 0 0 0 0.17906,-0.53201 1.110839,0.9772042 0 0 0 -0.61804,-0.87566 1.110839,0.9772042 0 0 0 -1.11079,-0.97022 1.110839,0.9772042 0 0 0 -0.12712,0.006 1.110839,0.9772042 0 0 0 -0.80848,-0.30695 1.110839,0.9772042 0 0 0 -0.0176,0 z" />
  </g>
  <g
     style="fill:#000000"
     id="g2093"
     transform="matrix(0.29720713,0,0,0.30314046,-46.431723,-10.804674)">
    <path
       d="m 174.57387,35.848297 a 1.110839,0.9772042 0 0 0 -0.80512,0.32091 1.110839,0.9772042 0 0 0 -0.0959,-0.004 1.110839,0.9772042 0 0 0 -1.11104,0.97668 1.110839,0.9772042 0 0 0 -0.56793,0.85241 1.110839,0.9772042 0 0 0 0.21265,0.5749 1.110839,0.9772042 0 0 0 -0.22918,0.59454 1.110839,0.9772042 0 0 0 0.65189,0.88986 1.110839,0.9772042 0 0 0 1.11027,0.95602 1.110839,0.9772042 0 0 0 0.16278,-0.0109 1.110839,0.9772042 0 0 0 0.75603,0.26124 1.110839,0.9772042 0 0 0 0.80693,-0.30568 1.110839,0.9772042 0 0 0 0.11188,0.005 1.110839,0.9772042 0 0 0 1.11078,-0.97722 1.110839,0.9772042 0 0 0 -10e-4,-0.0411 1.110839,0.9772042 0 0 0 0.58576,-0.861199 1.110839,0.9772042 0 0 0 -0.19586,-0.5537 1.110839,0.9772042 0 0 0 0.17906,-0.53201 1.110839,0.9772042 0 0 0 -0.61804,-0.87566 1.110839,0.9772042 0 0 0 -1.11079,-0.97022 1.110839,0.9772042 0 0 0 -0.12712,0.006 1.110839,0.9772042 0 0 0 -0.80848,-0.30695 1.110839,0.9772042 0 0 0 -0.0176,0 z"
       style="fill:#000000;fill-opacity:1;fill-rule:evenodd;stroke-width:249.999;stroke-linecap:round;paint-order:fill markers stroke"
       id="path2091" />
  </g>
</svg>
