<?xml version="1.0" encoding="UTF-8" standalone="no"?>
<svg
   xmlns:dc="http://purl.org/dc/elements/1.1/"
   xmlns:cc="http://creativecommons.org/ns#"
   xmlns:rdf="http://www.w3.org/1999/02/22-rdf-syntax-ns#"
   xmlns:svg="http://www.w3.org/2000/svg"
   xmlns="http://www.w3.org/2000/svg"
   xmlns:xlink="http://www.w3.org/1999/xlink"
   shape-rendering="crispEdges"
   id="svg8"
   version="1.1"
   viewBox="0 0 20.835941 21.148207"
   height="21.148207mm"
   width="20.835941mm">
  <defs
     id="defs2">
    <linearGradient
       id="linearGradient850">
      <stop
         id="stop846"
         offset="0"
         style="stop-color:#ffffff;stop-opacity:1" />
      <stop
         id="stop848"
         offset="1"
         style="stop-color:#e92d3a;stop-opacity:1" />
    </linearGradient>
    <radialGradient
       gradientUnits="userSpaceOnUse"
       gradientTransform="matrix(-0.72346123,-0.51899691,0.79170025,-1.1035989,-193.47137,202.50855)"
       r="38.598957"
       fy="104.6024"
       fx="-4.6656685"
       cy="104.6024"
       cx="-4.6656685"
       id="radialGradient854"
       xlink:href="#linearGradient850" />
    <radialGradient
       r="38.598957"
       fy="104.6024"
       fx="-4.6656685"
       cy="104.6024"
       cx="-4.6656685"
       gradientTransform="matrix(-0.1063488,-0.07629254,0.11637993,-0.16222904,19.625732,120.33985)"
       gradientUnits="userSpaceOnUse"
       id="radialGradient868"
       xlink:href="#linearGradient850" />
    <radialGradient
       r="38.598957"
       fy="104.6024"
       fx="-4.6656685"
       cy="104.6024"
       cx="-4.6656685"
       gradientTransform="matrix(-0.1063488,-0.07629254,0.11637993,-0.16222904,-2.053168,120.50355)"
       gradientUnits="userSpaceOnUse"
       id="radialGradient897"
       xlink:href="#linearGradient850" />
    <radialGradient
       xlink:href="#linearGradient850"
       id="radialGradient897-6"
       gradientUnits="userSpaceOnUse"
       gradientTransform="matrix(-0.40194822,-0.28834976,0.43986115,-0.61314913,-118.9817,81.197238)"
       cx="-4.6656685"
       cy="104.6024"
       fx="-4.6656685"
       fy="104.6024"
       r="38.598957" />
    <radialGradient
       xlink:href="#linearGradient850"
       id="radialGradient897-5"
       gradientUnits="userSpaceOnUse"
       gradientTransform="matrix(-0.40194822,-0.28834976,0.43986115,-0.61314913,-118.9817,81.197238)"
       cx="-4.6656685"
       cy="104.6024"
       fx="-4.6656685"
       fy="104.6024"
       r="38.598957" />
    <radialGradient
       xlink:href="#linearGradient850"
       id="radialGradient897-53"
       gradientUnits="userSpaceOnUse"
       gradientTransform="matrix(-0.1063488,-0.07629254,0.11637993,-0.16222904,42.885693,126.65408)"
       cx="-4.6656685"
       cy="104.6024"
       fx="-4.6656685"
       fy="104.6024"
       r="38.598957" />
    <radialGradient
       xlink:href="#linearGradient850"
       id="radialGradient897-61"
       gradientUnits="userSpaceOnUse"
       gradientTransform="matrix(-0.1063488,-0.07629254,0.11637993,-0.16222904,22.049753,126.65408)"
       cx="-4.6656685"
       cy="104.6024"
       fx="-4.6656685"
       fy="104.6024"
       r="38.598957" />
    <radialGradient
       r="38.598957"
       fy="104.6024"
       fx="-4.6656685"
       cy="104.6024"
       cx="-4.6656685"
       gradientTransform="matrix(-0.1063488,-0.07629254,0.11637993,-0.16222904,22.049753,126.65408)"
       gradientUnits="userSpaceOnUse"
       id="radialGradient1336"
       xlink:href="#linearGradient850" />
  </defs>
  <metadata
     id="metadata5">
    <rdf:RDF>
      <cc:Work
         rdf:about="">
        <dc:format>image/svg+xml</dc:format>
        <dc:type
           rdf:resource="http://purl.org/dc/dcmitype/StillImage" />
        <dc:title></dc:title>
      </cc:Work>
    </rdf:RDF>
  </metadata>
  <g
     transform="translate(-37.525619,-92.006588)"
     id="layer1">
    <g
       transform="translate(34.528125,-5.159375)"
       id="g1334">
      <path
         d="m 19.096596,105.76466 c 0,3.77499 -2.613857,8.10799 -5.511688,8.26584 -0.02879,10e-4 -0.07166,0.17948 -0.08635,0.3463 -0.0036,0.0411 0.0768,0.028 0.10908,0.19678 -0.171977,0.0367 -0.118932,0.0456 -0.42579,-0.0927 0.06051,-0.11994 0.129552,-0.0991 0.126607,-0.13134 -0.01604,-0.17564 -0.04883,-0.31678 -0.08321,-0.31904 -2.883906,-0.18989 -5.476739,-4.50604 -5.476739,-8.26584 0,-3.84537 2.712201,-6.580843 5.674046,-6.580843 2.961846,0 5.674048,2.735473 5.674048,6.580843 z"
         style="fill:url(#radialGradient897);fill-opacity:1;fill-rule:evenodd;stroke-width:73.5;stroke-linecap:round;paint-order:fill markers stroke"
         id="path891" />
      <path
         id="path893"
         d="m 13.578638,114.03328 -0.346874,-7e-4 -0.01223,0.0335 c 0,0 -0.06639,0.25507 -0.150391,0.57618 -0.02351,0.0899 -0.01713,0.268 0.002,0.49414 0.01908,0.22613 0.052,0.49719 0.08789,0.75781 0.07178,0.52124 0.154297,1.00195 0.154297,1.00195 v 0.002 c 0,0 0.06929,0.33111 0.140624,0.67382 0.03567,0.17136 0.07254,0.34537 0.101563,0.48242 0.02902,0.13706 0.04975,0.23388 0.05664,0.25977 l 0.04687,-0.0117 c -0.0052,-0.0194 -0.02764,-0.12086 -0.05664,-0.25781 -0.029,-0.13695 -0.0659,-0.31109 -0.101562,-0.48242 -0.07132,-0.34266 -0.138672,-0.67383 -0.138672,-0.67383 0,0 -0.08265,-0.47974 -0.154297,-1 -0.03582,-0.26013 -0.06894,-0.53123 -0.08789,-0.75586 -0.01895,-0.22463 -0.02239,-0.4059 -0.0039,-0.47656 0.08174,-0.31246 0.141965,-0.55935 0.145442,-0.57264 l 0.291401,7.7e-4 z"
         style="color:#000000;font-style:normal;font-variant:normal;font-weight:normal;font-stretch:normal;font-size:medium;line-height:normal;font-family:sans-serif;font-variant-ligatures:normal;font-variant-position:normal;font-variant-caps:normal;font-variant-numeric:normal;font-variant-alternates:normal;font-variant-east-asian:normal;font-feature-settings:normal;font-variation-settings:normal;text-indent:0;text-align:start;text-decoration:none;text-decoration-line:none;text-decoration-style:solid;text-decoration-color:#000000;letter-spacing:normal;word-spacing:normal;text-transform:none;writing-mode:lr-tb;direction:ltr;text-orientation:mixed;dominant-baseline:auto;baseline-shift:baseline;text-anchor:start;white-space:normal;shape-padding:0;shape-margin:0;inline-size:0;clip-rule:nonzero;display:inline;overflow:visible;visibility:visible;isolation:auto;mix-blend-mode:normal;color-interpolation:sRGB;color-interpolation-filters:linearRGB;solid-color:#000000;solid-opacity:1;vector-effect:none;fill:#000000;fill-opacity:1;fill-rule:nonzero;stroke:none;stroke-width:0.0491903;stroke-linecap:butt;stroke-linejoin:miter;stroke-miterlimit:4;stroke-dasharray:none;stroke-dashoffset:0;stroke-opacity:1;color-rendering:auto;image-rendering:auto;shape-rendering:auto;text-rendering:auto;enable-background:accumulate;stop-color:#000000" />
    </g>
    <g
       id="g931"
       transform="translate(24.102921,-14.883846)">
      <path
         transform="matrix(0.26458333,0,0,0.26458333,29.427406,99.020114)"
         d="m -60.490234,29.746094 v 29.074218 c 0.205546,0.05901 0.34612,0.0402 0.699218,-0.03516 -0.122003,-0.637908 -0.425715,-0.588802 -0.412109,-0.74414 0.05552,-0.630501 0.217359,-1.304815 0.326172,-1.308594 9.875038,-0.537911 18.873224,-13.904133 20.548828,-26.986328 z"
         style="fill:url(#radialGradient897-6);fill-opacity:1;fill-rule:evenodd;stroke-width:277.795;stroke-linecap:round;paint-order:fill markers stroke"
         id="path891-4" />
      <path
         transform="matrix(0.26458333,0,0,0.26458333,29.427406,99.020114)"
         d="m -60.490234,56.742188 v 0.191406 l 0.492187,0.002 0.09766,-0.193359 z m 0,11.902343 v 0.910157 c 0.05605,0.268775 0.05765,0.27644 0.117187,0.5625 0.134816,0.647659 0.275073,1.306234 0.384766,1.824218 0.109682,0.518022 0.188803,0.882617 0.214843,0.980469 l 0.175782,-0.04297 c -0.01965,-0.07332 -0.103285,-0.457003 -0.212891,-0.974609 -0.109606,-0.517606 -0.24998,-1.176672 -0.384765,-1.824219 -0.151933,-0.729968 -0.195415,-0.949524 -0.294922,-1.435546 z"
         style="color:#000000;font-style:normal;font-variant:normal;font-weight:normal;font-stretch:normal;font-size:medium;line-height:normal;font-family:sans-serif;font-variant-ligatures:normal;font-variant-position:normal;font-variant-caps:normal;font-variant-numeric:normal;font-variant-alternates:normal;font-variant-east-asian:normal;font-feature-settings:normal;font-variation-settings:normal;text-indent:0;text-align:start;text-decoration:none;text-decoration-line:none;text-decoration-style:solid;text-decoration-color:#000000;letter-spacing:normal;word-spacing:normal;text-transform:none;writing-mode:lr-tb;direction:ltr;text-orientation:mixed;dominant-baseline:auto;baseline-shift:baseline;text-anchor:start;white-space:normal;shape-padding:0;shape-margin:0;inline-size:0;clip-rule:nonzero;display:inline;overflow:visible;visibility:visible;isolation:auto;mix-blend-mode:normal;color-interpolation:sRGB;color-interpolation-filters:linearRGB;solid-color:#000000;solid-opacity:1;vector-effect:none;fill:#000000;fill-opacity:1;fill-rule:nonzero;stroke:none;stroke-width:0.185916;stroke-linecap:butt;stroke-linejoin:miter;stroke-miterlimit:4;stroke-dasharray:none;stroke-dashoffset:0;stroke-opacity:1;color-rendering:auto;image-rendering:auto;shape-rendering:auto;text-rendering:auto;enable-background:accumulate;stop-color:#000000"
         id="path893-7" />
    </g>
    <g
       transform="translate(44.938858,-14.883846)"
       id="g984">
      <path
         transform="matrix(0.26458333,0,0,0.26458333,29.427406,99.020114)"
         d="m -81.654297,29.746094 c 1.66786,13.025741 10.594525,26.339506 20.417969,26.986328 0.12994,0.0085 0.253829,0.541242 0.314453,1.205078 0.01113,0.121852 -0.249816,0.04278 -0.478516,0.496094 0.529746,0.238754 0.737329,0.337104 0.910157,0.386718 V 29.746094 Z"
         style="fill:url(#radialGradient897-5);fill-opacity:1;fill-rule:evenodd;stroke-width:277.795;stroke-linecap:round;paint-order:fill markers stroke"
         id="path891-5" />
      <path
         transform="matrix(0.26458333,0,0,0.26458333,29.427406,99.020114)"
         d="m -61.210938,56.740234 -0.04687,0.126954 c 0,0 -0.250876,0.96409 -0.56836,2.177734 -0.08886,0.339779 -0.06449,1.012485 0.0078,1.867187 0.07211,0.854665 0.196384,1.878261 0.332031,2.863282 0.271294,1.970041 0.582031,3.787109 0.582031,3.787109 v 0.0078 c 0,0 0.216313,1.036133 0.414063,1.984376 v -0.910157 c -0.07704,-0.376268 -0.228516,-1.111328 -0.228516,-1.111328 0,0 -0.313193,-1.81296 -0.583984,-3.779297 -0.135383,-0.983168 -0.26041,-2.008426 -0.332032,-2.857422 -0.07162,-0.848995 -0.08356,-1.533719 -0.01367,-1.800781 0.308939,-1.180951 0.535687,-2.113832 0.548829,-2.164062 l 0.609375,0.002 v -0.191406 z"
         style="color:#000000;font-style:normal;font-variant:normal;font-weight:normal;font-stretch:normal;font-size:medium;line-height:normal;font-family:sans-serif;font-variant-ligatures:normal;font-variant-position:normal;font-variant-caps:normal;font-variant-numeric:normal;font-variant-alternates:normal;font-variant-east-asian:normal;font-feature-settings:normal;font-variation-settings:normal;text-indent:0;text-align:start;text-decoration:none;text-decoration-line:none;text-decoration-style:solid;text-decoration-color:#000000;letter-spacing:normal;word-spacing:normal;text-transform:none;writing-mode:lr-tb;direction:ltr;text-orientation:mixed;dominant-baseline:auto;baseline-shift:baseline;text-anchor:start;white-space:normal;shape-padding:0;shape-margin:0;inline-size:0;clip-rule:nonzero;display:inline;overflow:visible;visibility:visible;isolation:auto;mix-blend-mode:normal;color-interpolation:sRGB;color-interpolation-filters:linearRGB;solid-color:#000000;solid-opacity:1;vector-effect:none;fill:#000000;fill-opacity:1;fill-rule:nonzero;stroke:none;stroke-width:0.185916;stroke-linecap:butt;stroke-linejoin:miter;stroke-miterlimit:4;stroke-dasharray:none;stroke-dashoffset:0;stroke-opacity:1;color-rendering:auto;image-rendering:auto;shape-rendering:auto;text-rendering:auto;enable-background:accumulate;stop-color:#000000"
         id="path893-2" />
    </g>
    <path
       id="path891-2"
       style="fill:url(#radialGradient897-53);fill-opacity:1;fill-rule:evenodd;stroke-width:73.4999;stroke-linecap:round;paint-order:fill markers stroke"
       d="m 58.36156,105.33445 c -2.961845,0 -5.674072,2.73511 -5.674072,6.58048 0,0.37128 0.02606,0.74841 0.07441,1.12603 h 5.599658 z" />
    <path
       id="path891-27"
       style="fill:url(#radialGradient1336);fill-opacity:1;fill-rule:evenodd;stroke-width:73.4999;stroke-linecap:round;paint-order:fill markers stroke"
       d="m 37.52562,105.33447 v 7.70649 h 5.599141 c 0.04837,-0.37764 0.07493,-0.75468 0.07493,-1.12603 0,-3.84536 -2.712226,-6.58046 -5.674071,-6.58046 z" />
  </g>
</svg>
